<svg width="327" height="50" viewBox="0 0 327 50" fill="none" xmlns="http://www.w3.org/2000/svg">
<path d="M24.3886 21.176H27.4126V24.56H24.3886V35.888H20.6446V13.352H24.3886V21.176ZM6.38863 18.296V14.888H17.9566V17.336C17.9566 20.648 17.0926 23.688 15.3646 26.456C13.6526 29.208 11.1486 31.632 7.85263 33.728L5.57263 30.752C8.34063 29.056 10.4686 27.096 11.9566 24.872C9.98863 25.032 8.21263 25.112 6.62863 25.112H6.10063L5.90863 21.752H6.29263C7.33263 21.752 8.54863 21.728 9.94063 21.68C11.3326 21.616 12.5646 21.536 13.6366 21.44C13.9726 20.416 14.1566 19.368 14.1886 18.296H6.38863ZM47.1464 21.176H50.1704V24.56H47.1464V35.888H43.4024V13.352H47.1464V21.176ZM29.1464 18.296V14.888H40.7144V17.336C40.7144 20.648 39.8504 23.688 38.1224 26.456C36.4104 29.208 33.9064 31.632 30.6104 33.728L28.3304 30.752C31.0984 29.056 33.2264 27.096 34.7144 24.872C32.7464 25.032 30.9704 25.112 29.3864 25.112H28.8584L28.6664 21.752H29.0504C30.0904 21.752 31.3064 21.728 32.6984 21.68C34.0904 21.616 35.3224 21.536 36.3944 21.44C36.7304 20.416 36.9144 19.368 36.9464 18.296H29.1464ZM63.9043 31.04H72.6883V34.448H51.3763V31.04H60.1603V27.344H59.9923C58.6963 27.344 57.5363 27.056 56.5123 26.48C55.5043 25.904 54.7123 25.12 54.1363 24.128C53.5763 23.12 53.2963 22.008 53.2963 20.792C53.2963 19.576 53.5763 18.472 54.1363 17.48C54.7123 16.488 55.5043 15.704 56.5123 15.128C57.5363 14.552 58.6963 14.264 59.9923 14.264H64.0723C65.3683 14.264 66.5203 14.552 67.5283 15.128C68.5523 15.704 69.3443 16.488 69.9043 17.48C70.4803 18.472 70.7683 19.576 70.7683 20.792C70.7683 22.008 70.4803 23.12 69.9043 24.128C69.3443 25.12 68.5523 25.904 67.5283 26.48C66.5203 27.056 65.3683 27.344 64.0723 27.344H63.9043V31.04ZM57.0403 20.816C57.0403 21.808 57.3763 22.592 58.0483 23.168C58.7203 23.728 59.6083 24.008 60.7123 24.008H63.3523C64.4563 24.008 65.3443 23.728 66.0163 23.168C66.6883 22.592 67.0243 21.808 67.0243 20.816C67.0243 19.84 66.6883 19.072 66.0163 18.512C65.3443 17.936 64.4563 17.648 63.3523 17.648H60.7123C59.6083 17.648 58.7203 17.936 58.0483 18.512C57.3763 19.072 57.0403 19.84 57.0403 20.816ZM90.7661 35.888V13.352H94.3901V35.888H90.7661ZM84.0941 21.392H86.0861V13.688H89.5901V35.312H86.0861V24.8H84.0941V21.392ZM83.2781 28.664C84.0141 28.6 84.5661 28.544 84.9341 28.496L85.2701 31.808C82.5821 32.192 79.6781 32.384 76.5581 32.384H74.0141L73.8221 28.976H75.4061V18.176H74.0141V14.768H84.5741V18.176H83.2781V28.664ZM80.0381 18.176H78.6221V28.952C78.9261 28.952 79.3981 28.936 80.0381 28.904V18.176ZM116.692 35.888H112.948V13.352H116.692V35.888ZM103.852 33.08C101.964 33.08 100.436 32.456 99.2679 31.208C98.0999 29.96 97.5159 28.016 97.5159 25.376V21.896C97.5159 19.256 98.0999 17.312 99.2679 16.064C100.436 14.816 101.964 14.192 103.852 14.192C105.724 14.192 107.244 14.816 108.412 16.064C109.58 17.312 110.164 19.256 110.164 21.896V25.376C110.164 28.016 109.58 29.96 108.412 31.208C107.244 32.456 105.724 33.08 103.852 33.08ZM103.852 29.696C104.62 29.696 105.236 29.368 105.7 28.712C106.18 28.04 106.42 26.928 106.42 25.376V21.896C106.42 20.344 106.18 19.24 105.7 18.584C105.236 17.912 104.62 17.576 103.852 17.576C103.084 17.576 102.46 17.912 101.98 18.584C101.5 19.24 101.26 20.344 101.26 21.896V25.376C101.26 26.928 101.5 28.04 101.98 28.712C102.46 29.368 103.084 29.696 103.852 29.696ZM144.178 21.176H147.202V24.56H144.178V35.888H140.434V13.352H144.178V21.176ZM126.394 18.296V14.888H137.53V17.336C137.53 20.552 136.714 23.52 135.082 26.24C133.466 28.944 131.082 31.36 127.93 33.488L125.602 30.536C128.322 28.792 130.346 26.832 131.674 24.656C133.018 22.48 133.714 20.36 133.762 18.296H126.394ZM165.16 20.744H163.528V25.352H160.144V13.592H163.528V17.48H165.16V13.352H168.688V25.592H165.16V20.744ZM148.912 14.192H158.512V24.776H148.912V14.192ZM152.2 21.488H155.248V17.48H152.2V21.488ZM163.312 26.408C164.4 26.408 165.368 26.608 166.216 27.008C167.064 27.392 167.728 27.952 168.208 28.688C168.688 29.424 168.928 30.288 168.928 31.28C168.928 32.256 168.688 33.112 168.208 33.848C167.728 34.584 167.064 35.144 166.216 35.528C165.368 35.928 164.4 36.128 163.312 36.128H157.864C156.792 36.128 155.832 35.928 154.984 35.528C154.136 35.144 153.472 34.584 152.992 33.848C152.512 33.112 152.272 32.256 152.272 31.28C152.272 30.288 152.512 29.424 152.992 28.688C153.472 27.952 154.128 27.392 154.96 27.008C155.808 26.608 156.776 26.408 157.864 26.408H163.312ZM162.832 32.792C163.584 32.792 164.16 32.656 164.56 32.384C164.96 32.112 165.16 31.736 165.16 31.256C165.16 30.776 164.96 30.4 164.56 30.128C164.16 29.856 163.584 29.72 162.832 29.72H158.368C157.6 29.72 157.016 29.856 156.616 30.128C156.216 30.4 156.016 30.776 156.016 31.256C156.016 31.736 156.216 32.112 156.616 32.384C157.016 32.656 157.6 32.792 158.368 32.792H162.832ZM186.357 14.816C188.389 14.816 190.029 15.344 191.277 16.4C192.525 17.44 193.149 18.968 193.149 20.984C193.149 23.016 192.525 24.552 191.277 25.592C190.029 26.632 188.389 27.152 186.357 27.152H181.893V34.544H178.125V14.816H186.357ZM186.165 23.84C187.205 23.84 187.997 23.592 188.541 23.096C189.101 22.6 189.381 21.896 189.381 20.984C189.381 20.072 189.101 19.368 188.541 18.872C187.997 18.376 187.205 18.128 186.165 18.128H181.893V23.84H186.165ZM203.39 34.904C201.838 34.904 200.406 34.56 199.094 33.872C197.798 33.2 196.758 32.224 195.974 30.944C195.206 29.648 194.822 28.12 194.822 26.36V23C194.822 21.256 195.206 19.736 195.974 18.44C196.758 17.144 197.798 16.16 199.094 15.488C200.406 14.8 201.838 14.456 203.39 14.456C205.502 14.456 207.278 15.04 208.718 16.208C210.174 17.36 211.142 18.96 211.622 21.008L208.046 22.04C207.71 20.68 207.166 19.664 206.414 18.992C205.662 18.304 204.654 17.96 203.39 17.96C202.51 17.96 201.702 18.16 200.966 18.56C200.246 18.944 199.67 19.528 199.238 20.312C198.806 21.096 198.59 22.04 198.59 23.144V26.216C198.59 27.32 198.806 28.264 199.238 29.048C199.67 29.832 200.246 30.424 200.966 30.824C201.702 31.208 202.51 31.4 203.39 31.4C204.654 31.4 205.662 31.064 206.414 30.392C207.166 29.704 207.71 28.68 208.046 27.32L211.622 28.352C211.142 30.4 210.174 32 208.718 33.152C207.278 34.32 205.502 34.904 203.39 34.904ZM231.834 13.352V17.432H234.858V20.816H231.834V25.712H228.09V13.352H231.834ZM221.61 14.072H225.186V25.016H213.474V14.072H217.05V16.52H221.61V14.072ZM217.05 19.736V21.776H221.61V19.736H217.05ZM226.77 26.528C227.826 26.528 228.77 26.72 229.602 27.104C230.45 27.488 231.114 28.048 231.594 28.784C232.074 29.504 232.314 30.36 232.314 31.352C232.314 32.328 232.074 33.176 231.594 33.896C231.114 34.616 230.45 35.168 229.602 35.552C228.77 35.936 227.826 36.128 226.77 36.128H221.658C220.602 36.128 219.65 35.936 218.802 35.552C217.97 35.168 217.314 34.616 216.834 33.896C216.354 33.176 216.114 32.328 216.114 31.352C216.114 30.36 216.354 29.504 216.834 28.784C217.314 28.048 217.97 27.488 218.802 27.104C219.65 26.72 220.602 26.528 221.658 26.528H226.77ZM226.29 32.792C227.01 32.792 227.562 32.664 227.946 32.408C228.346 32.152 228.546 31.792 228.546 31.328C228.546 30.848 228.354 30.48 227.97 30.224C227.586 29.968 227.026 29.84 226.29 29.84H222.138C221.402 29.84 220.834 29.968 220.434 30.224C220.05 30.48 219.858 30.848 219.858 31.328C219.858 31.792 220.058 32.152 220.458 32.408C220.858 32.664 221.418 32.792 222.138 32.792H226.29ZM248.328 22.664C247.16 23.896 245.392 24.984 243.024 25.928L241.392 22.664C244.32 21.528 246.016 20.12 246.48 18.44H242.232V15.2H246.648V13.136H250.344V15.2H254.88V18.44H250.272C250.224 18.84 250.152 19.216 250.056 19.568L255.696 22.184L253.92 25.448L248.328 22.664ZM260.592 13.352V17.432H263.592V20.816H260.592V25.712H256.824V13.352H260.592ZM254.88 29.96C254.832 30.28 254.736 30.6 254.592 30.92L261.864 33.032L260.712 36.128L252.096 33.584C250.368 34.704 248.008 35.552 245.016 36.128L244.056 33.008C248.104 32.144 250.424 31.128 251.016 29.96H245.328V26.768H260.592V29.96H254.88ZM280.878 35.888V13.352H284.622V35.888H280.878ZM266.262 18.296V14.888H277.614V17.336C277.614 20.568 276.774 23.552 275.094 26.288C273.43 29.008 270.982 31.408 267.75 33.488L265.47 30.512C267.358 29.344 268.918 28.056 270.15 26.648C271.398 25.24 272.31 23.832 272.886 22.424C273.478 21 273.79 19.624 273.822 18.296H266.262Z" fill="white"/>
<g clip-path="url(#clip0_6016_43)">
<path d="M320.519 27.6208C319.703 27.6208 319.041 28.2832 319.041 29.0992V31.0384C319.041 32.6968 317.694 34.0384 316.038 34.0408H303.962C302.303 34.0408 300.962 32.6944 300.959 31.0384V18.9616C300.959 17.3032 302.306 15.9616 303.962 15.9592H305.901C306.693 15.928 307.322 15.2752 307.322 14.4808C307.322 13.6864 306.695 13.0312 305.901 13H303.962C302.38 13 300.866 13.6288 299.747 14.7472C298.629 15.8656 298 17.3824 298 18.9616V31.0384C298 32.62 298.629 34.1344 299.747 35.2528C300.866 36.3712 302.38 37 303.962 37H316.038C317.62 37 319.134 36.3712 320.253 35.2528C321.371 34.1344 322 32.62 322 31.0384V29.0992C322 28.708 321.844 28.3312 321.566 28.0528C321.287 27.7768 320.91 27.6208 320.519 27.6208ZM320.522 13H311.68C310.886 13.0312 310.259 13.6864 310.259 14.4784C310.259 15.2704 310.886 15.9256 311.68 15.9568H316.96L308.174 24.7312C307.631 25.3144 307.646 26.2216 308.21 26.788C308.774 27.352 309.683 27.3664 310.266 26.824L319.041 18.0496V23.3176C319.072 24.112 319.725 24.7384 320.519 24.7384C321.314 24.7384 321.966 24.112 321.998 23.3176V14.4784C321.998 13.6624 321.335 13 320.519 13H320.522Z" fill="white"/>
</g>
<defs>
<clipPath id="clip0_6016_43">
<rect width="24" height="24" fill="white" transform="translate(298 13)"/>
</clipPath>
</defs>
</svg>
