<svg width="960" height="511" viewBox="0 0 960 511" fill="none" xmlns="http://www.w3.org/2000/svg">
<circle cx="520" cy="6" r="6" fill="black"/>
<circle cx="620" cy="6" r="6" fill="black"/>
<circle cx="697" cy="6" r="6" fill="black"/>
<path d="M272.36 241.56H236.36V153.36H329.42V182.16H272.36V206.28C278.3 203.58 284.78 201.78 291.8 201.78C317.54 201.78 331.04 215.28 331.04 241.02V280.44C331.04 306 307.46 319.68 281.9 319.68C256.34 319.68 234.56 306 234.56 280.44V266.22H270.56V280.44C270.56 286.2 276.14 290.88 281.9 290.88C287.66 290.88 293.24 286.2 293.24 280.44V239.22C293.24 233.46 288.56 228.78 282.8 228.78C277.22 228.78 272.9 232.74 272.36 238.32V241.56ZM343.587 280.44V188.1C343.587 162.54 364.647 148.86 390.027 148.86C415.407 148.86 436.467 162.54 436.467 188.1V280.44C436.467 306 415.407 319.68 390.027 319.68C364.647 319.68 343.587 306 343.587 280.44ZM379.587 188.1V280.44C379.587 286.2 384.267 290.88 390.027 290.88C395.787 290.88 400.467 286.2 400.467 280.44V188.1C400.467 182.34 395.787 177.66 390.027 177.66C384.267 177.66 379.587 182.34 379.587 188.1ZM450.813 280.44V188.1C450.813 162.54 471.873 148.86 497.253 148.86C522.633 148.86 543.693 162.54 543.693 188.1V280.44C543.693 306 522.633 319.68 497.253 319.68C471.873 319.68 450.813 306 450.813 280.44ZM486.813 188.1V280.44C486.813 286.2 491.493 290.88 497.253 290.88C503.013 290.88 507.693 286.2 507.693 280.44V188.1C507.693 182.34 503.013 177.66 497.253 177.66C491.493 177.66 486.813 182.34 486.813 188.1ZM558.04 241.38V214.56H677.74V241.38H630.4L624.82 272.88H606.28V291.6H724.36V317.88H569.2V264.42H589.9L594.04 241.38H558.04ZM638.14 271.98V247.86H682.06V150.66H721.66V281.34H682.06V271.98H638.14ZM561.64 180.9C561.64 165.24 573.34 152.46 590.08 152.46H639.94C656.5 152.46 668.56 165.24 668.56 180.9C668.56 196.2 656.5 208.98 639.94 208.98H590.08C573.34 208.98 561.64 196.2 561.64 180.9ZM596.92 181.26C596.92 184.14 599.08 186.66 601.42 186.66H629.14C631.48 186.66 633.82 184.14 633.82 181.26C633.82 178.2 631.48 175.68 629.14 175.68H601.42C599.08 175.68 596.92 178.2 596.92 181.26ZM229.811 361.4H173.651C175.991 370.4 191.291 377.96 231.611 377.42V403.34C190.751 403.34 166.271 396.32 153.311 382.82C140.351 396.32 115.871 403.34 75.0105 403.34V377.42C114.791 377.96 130.631 370.4 132.971 361.4H76.8105V335.66H229.811V361.4ZM75.9105 475.88V449.42H229.811V504.68H190.931V475.88H75.9105ZM70.5105 439.7V410.9H236.111V439.7H70.5105ZM252.311 497.48V455C271.571 442.04 287.951 424.22 287.951 371.48V339.26H327.731V371.48C327.731 424.22 344.111 442.04 363.371 455V497.48C340.331 485.96 320.711 470.66 307.751 446.36C294.791 470.66 275.351 485.96 252.311 497.48ZM373.631 502.88V335.66H414.131V502.88H373.631ZM495.635 452.3V432.5H642.875V476.6H535.235V483.08H646.475V502.88H495.635V458.42H603.275V452.3H495.635ZM564.035 425.3H512.915C499.235 425.3 488.075 413.42 488.075 399.56C488.075 385.7 499.235 373.82 512.915 373.82H564.035C577.715 373.82 588.875 385.7 588.875 399.56C588.875 413.42 577.715 425.3 564.035 425.3ZM603.275 428V335.66H642.875V365.72H661.595V397.4H642.875V428H603.275ZM486.275 369.32V345.02H517.775V332.06H559.175V345.02H590.675V369.32H486.275ZM520.475 399.56C520.475 401.72 521.915 404.42 524.255 404.42H553.415C555.935 404.42 557.195 401.72 557.195 399.56C557.195 397.4 555.935 394.88 553.415 394.88H524.255C521.915 394.88 520.475 397.4 520.475 399.56ZM787.595 457.34V335.66H828.095V457.34H787.595ZM830.795 473.36V502.88H675.635V445.64H715.775V473.36H830.795ZM668.075 395.78V376.7C668.075 350.24 690.935 335.66 719.015 335.66C746.915 335.66 769.775 350.24 769.775 376.7V395.78C769.775 421.7 746.915 436.28 719.015 436.28C690.935 436.28 668.075 421.7 668.075 395.78ZM706.955 374.54V397.94C706.955 404.24 711.995 408.74 719.015 408.74C725.675 408.74 731.075 404.24 731.075 397.94V374.54C731.075 368.24 725.675 363.2 719.015 363.2C711.995 363.2 706.955 368.24 706.955 374.54ZM848.075 405.86V335.66H885.875V405.86L884.075 456.26H849.875L848.075 405.86ZM849.875 502.88V469.04H884.075V502.88H849.875Z" fill="black"/>
<path d="M82.0905 61.608V48.308H107.551C108.159 45.192 108.463 41.772 108.463 37.972H81.3305V24.292H124.271V35.692C124.271 68.904 106.943 86.84 80.5705 91.096V76.58C90.2225 74.072 97.6705 69.208 102.535 61.608H82.0905ZM129.971 92.616V22.012H146.691V47.624H154.595V62.14H146.691V92.616H129.971ZM158.091 61.608V48.308H183.551C184.159 45.192 184.463 41.772 184.463 37.972H157.331V24.292H200.271V35.692C200.271 68.904 182.943 86.84 156.571 91.096V76.58C166.223 74.072 173.671 69.208 178.535 61.608H158.091ZM205.971 92.616V22.012H222.691V47.624H230.595V62.14H222.691V92.616H205.971ZM280.679 63.28H252.787C241.615 63.28 233.711 54.236 233.711 43.064C233.711 31.816 241.615 22.772 252.787 22.772H280.679C291.927 22.772 299.831 31.816 299.831 43.064C299.831 54.236 291.927 63.28 280.679 63.28ZM231.811 91.476V77.796H258.183V65.332H275.359V77.796H301.731V91.476H231.811ZM250.811 43.064C250.811 47.32 253.623 50.436 257.803 50.436H275.815C279.995 50.436 282.807 47.32 282.807 43.064C282.807 38.884 279.995 35.768 275.815 35.768H257.803C253.623 35.768 250.811 38.884 250.811 43.064ZM308.571 90.336V78.252H313.055L311.687 37.896H323.923L324.987 78.252H327.799L328.863 37.896H341.023L339.579 78.252H344.063V90.336H308.571ZM342.087 62.14V48.46H347.863V22.012H361.163V92.616H347.863V62.14H342.087ZM364.127 92.616V22.012H377.731V92.616H364.127ZM309.331 36.376V24.292H343.303V36.376H309.331ZM385.331 72.704V41.924C385.331 30.752 394.983 23.152 406.763 23.152C418.619 23.152 428.347 30.752 428.347 41.924V72.704C428.347 83.876 418.619 91.476 406.763 91.476C394.983 91.476 385.331 83.876 385.331 72.704ZM435.795 92.616V22.012H452.895V92.616H435.795ZM401.519 41.164V73.464C401.519 76.124 403.723 78.632 406.991 78.632C410.259 78.632 412.539 76.124 412.539 73.464V41.164C412.539 38.656 410.259 35.92 406.991 35.92C403.723 35.92 401.519 38.656 401.519 41.164ZM484.116 37.744V25.812H497.872V20.492H514.288V25.812H527.892V37.744H514.06V39.796C514.06 49.372 519.684 51.88 528.652 52.488V64.876C518.696 64.648 510.184 61.76 506.08 55.984C501.976 62.064 493.464 65.408 483.356 65.636V53.248C492.324 52.64 497.948 49.372 497.948 39.796V37.744H484.116ZM511.78 68.144V67.764H528.88V68.144C528.88 75.44 537.696 79.544 554.036 79.544V92.616C535.568 92.616 525.612 87.372 520.292 81.444C514.744 87.372 504.864 92.616 486.548 92.616V79.544C502.888 79.544 511.78 75.44 511.78 68.144ZM524.168 50.892V39.416H535.036V22.012H551.756V70.804H535.036V50.892H524.168ZM582.901 35.084V23.152H625.309V27.104H633.745V22.012H650.541V58.492H633.745V53.324H619.457V48.84C611.705 57.352 597.265 58.568 582.521 58.568V46.636C601.369 46.636 610.109 43.9 610.109 35.084H582.901ZM586.093 69.436V60.392H650.541V80.228H603.573V83.268H651.681V92.616H586.093V72.248H633.061V69.436H586.093ZM633.745 38.2H624.625C624.397 39.568 624.017 41.088 623.485 42.228H633.745V38.2ZM686.793 61.152V48.156H697.433V22.012H710.733V92.616H697.433V61.152H686.793ZM713.697 92.616V22.012H727.301V92.616H713.697ZM658.901 37.136V24.292H692.797V37.136H682.765V41.164C682.765 59.784 685.121 69.208 693.633 74.908V90.336C685.729 86.992 679.801 81.824 675.849 73.92C671.897 81.824 666.045 86.992 658.141 90.336V74.908C666.653 69.208 669.009 59.784 669.009 41.164V37.136H658.901ZM734.901 73.464V62.444C734.901 51.348 743.945 44.508 755.573 44.508C767.277 44.508 776.321 51.348 776.321 62.444V73.464C776.321 84.636 767.277 91.476 755.573 91.476C743.945 91.476 734.901 84.636 734.901 73.464ZM783.541 92.616V22.012H800.261V47.624H808.165V62.14H800.261V92.616H783.541ZM734.141 41.772V28.852H747.289V21.252H764.009V28.852H777.157V41.772H734.141ZM750.177 61.836V74.376C750.177 77.492 752.761 79.62 755.725 79.62C758.689 79.62 761.349 77.492 761.349 74.376V61.836C761.349 58.796 758.689 56.516 755.725 56.516C752.761 56.516 750.177 58.796 750.177 61.836ZM861.745 74.072V57.352H851.561V63.584H810.901V23.152H851.561V29.232H861.745V22.012H878.541V74.072H861.745ZM879.681 80.152V92.616H814.093V68.448H831.041V80.152H879.681ZM826.937 35.312V51.424H835.829V35.312H826.937ZM851.561 40.328V46.256H861.745V40.328H851.561Z" fill="black"/>
</svg>
