<svg width="927" height="271" viewBox="0 0 927 271" fill="none" xmlns="http://www.w3.org/2000/svg">
<path d="M26.74 65.156V50.806H54.21C54.866 47.444 55.194 43.754 55.194 39.654H25.92V24.894H72.25V37.194C72.25 73.028 53.554 92.38 25.1 96.972V81.31C35.514 78.604 43.55 73.356 48.798 65.156H26.74ZM78.4 98.612V22.434H96.44V50.068H104.968V65.73H96.44V98.612H78.4ZM108.74 65.156V50.806H136.21C136.866 47.444 137.194 43.754 137.194 39.654H107.92V24.894H154.25V37.194C154.25 73.028 135.554 92.38 107.1 96.972V81.31C117.514 78.604 125.55 73.356 130.798 65.156H108.74ZM160.4 98.612V22.434H178.44V50.068H186.968V65.73H178.44V98.612H160.4ZM241.006 66.96H210.912C198.858 66.96 190.33 57.202 190.33 45.148C190.33 33.012 198.858 23.254 210.912 23.254H241.006C253.142 23.254 261.67 33.012 261.67 45.148C261.67 57.202 253.142 66.96 241.006 66.96ZM188.28 97.382V82.622H216.734V69.174H235.266V82.622H263.72V97.382H188.28ZM208.78 45.148C208.78 49.74 211.814 53.102 216.324 53.102H235.758C240.268 53.102 243.302 49.74 243.302 45.148C243.302 40.638 240.268 37.276 235.758 37.276H216.324C211.814 37.276 208.78 40.638 208.78 45.148ZM271.1 96.152V83.114H275.938L274.462 39.572H287.664L288.812 83.114H291.846L292.994 39.572H306.114L304.556 83.114H309.394V96.152H271.1ZM307.262 65.73V50.97H313.494V22.434H327.844V98.612H313.494V65.73H307.262ZM331.042 98.612V22.434H345.72V98.612H331.042ZM271.92 37.932V24.894H308.574V37.932H271.92ZM353.92 77.128V43.918C353.92 31.864 364.334 23.664 377.044 23.664C389.836 23.664 400.332 31.864 400.332 43.918V77.128C400.332 89.182 389.836 97.382 377.044 97.382C364.334 97.382 353.92 89.182 353.92 77.128ZM408.368 98.612V22.434H426.818V98.612H408.368ZM371.386 43.098V77.948C371.386 80.818 373.764 83.524 377.29 83.524C380.816 83.524 383.276 80.818 383.276 77.948V43.098C383.276 40.392 380.816 37.44 377.29 37.44C373.764 37.44 371.386 40.392 371.386 43.098Z" fill="black"/>
<path d="M456.128 42.408V29.534H470.97V23.794H488.682V29.534H503.36V42.408H488.436V44.622C488.436 54.954 494.504 57.66 504.18 58.316V71.682C493.438 71.436 484.254 68.32 479.826 62.088C475.398 68.648 466.214 72.256 455.308 72.502V59.136C464.984 58.48 471.052 54.954 471.052 44.622V42.408H456.128ZM485.976 75.208V74.798H504.426V75.208C504.426 83.08 513.938 87.508 531.568 87.508V101.612C511.642 101.612 500.9 95.954 495.16 89.558C489.174 95.954 478.514 101.612 458.752 101.612V87.508C476.382 87.508 485.976 83.08 485.976 75.208ZM499.342 56.594V44.212H511.068V25.434H529.108V78.078H511.068V56.594H499.342ZM562.712 39.538V26.664H608.468V30.928H617.57V25.434H635.692V64.794H617.57V59.218H602.154V54.38C593.79 63.564 578.21 64.876 562.302 64.876V52.002C582.638 52.002 592.068 49.05 592.068 39.538H562.712ZM566.156 76.602V66.844H635.692V88.246H585.016V91.526H636.922V101.612H566.156V79.636H616.832V76.602H566.156ZM617.57 42.9H607.73C607.484 44.376 607.074 46.016 606.5 47.246H617.57V42.9ZM674.806 67.664V53.642H686.286V25.434H700.636V101.612H686.286V67.664H674.806ZM703.834 101.612V25.434H718.512V101.612H703.834ZM644.712 41.752V27.894H681.284V41.752H670.46V46.098C670.46 66.188 673.002 76.356 682.186 82.506V99.152C673.658 95.544 667.262 89.968 662.998 81.44C658.734 89.968 652.42 95.544 643.892 99.152V82.506C653.076 76.356 655.618 66.188 655.618 46.098V41.752H644.712Z" fill="black"/>
<circle cx="493" cy="6" r="6" fill="black"/>
<circle cx="599" cy="6" r="6" fill="black"/>
<circle cx="680" cy="6" r="6" fill="black"/>
<path d="M746.92 77.948V66.058C746.92 54.086 756.678 46.706 769.224 46.706C781.852 46.706 791.61 54.086 791.61 66.058V77.948C791.61 90.002 781.852 97.382 769.224 97.382C756.678 97.382 746.92 90.002 746.92 77.948ZM799.4 98.612V22.434H817.44V50.068H825.968V65.73H817.44V98.612H799.4ZM746.1 43.754V29.814H760.286V21.614H778.326V29.814H792.512V43.754H746.1ZM763.402 65.402V78.932C763.402 82.294 766.19 84.59 769.388 84.59C772.586 84.59 775.456 82.294 775.456 78.932V65.402C775.456 62.122 772.586 59.662 769.388 59.662C766.19 59.662 763.402 62.122 763.402 65.402ZM883.778 78.604V60.564H872.79V67.288H828.92V23.664H872.79V30.224H883.778V22.434H901.9V78.604H883.778ZM903.13 85.164V98.612H832.364V72.536H850.65V85.164H903.13ZM846.222 36.784V54.168H855.816V36.784H846.222ZM872.79 42.196V48.592H883.778V42.196H872.79Z" fill="black"/>
<path d="M29.2922 216.04H5.29219V157.24H67.3322V176.44H29.2922V192.52C33.2522 190.72 37.5722 189.52 42.2522 189.52C59.4122 189.52 68.4122 198.52 68.4122 215.68V241.96C68.4122 259 52.6922 268.12 35.6522 268.12C18.6122 268.12 4.09219 259 4.09219 241.96V232.48H28.0922V241.96C28.0922 245.8 31.8122 248.92 35.6522 248.92C39.4922 248.92 43.2122 245.8 43.2122 241.96V214.48C43.2122 210.64 40.0922 207.52 36.2522 207.52C32.5322 207.52 29.6522 210.16 29.2922 213.88V216.04ZM76.7766 241.96V180.4C76.7766 163.36 90.8166 154.24 107.737 154.24C124.657 154.24 138.697 163.36 138.697 180.4V241.96C138.697 259 124.657 268.12 107.737 268.12C90.8166 268.12 76.7766 259 76.7766 241.96ZM100.777 180.4V241.96C100.777 245.8 103.897 248.92 107.737 248.92C111.577 248.92 114.697 245.8 114.697 241.96V180.4C114.697 176.56 111.577 173.44 107.737 173.44C103.897 173.44 100.777 176.56 100.777 180.4ZM148.261 241.96V180.4C148.261 163.36 162.301 154.24 179.221 154.24C196.141 154.24 210.181 163.36 210.181 180.4V241.96C210.181 259 196.141 268.12 179.221 268.12C162.301 268.12 148.261 259 148.261 241.96ZM172.261 180.4V241.96C172.261 245.8 175.381 248.92 179.221 248.92C183.061 248.92 186.181 245.8 186.181 241.96V180.4C186.181 176.56 183.061 173.44 179.221 173.44C175.381 173.44 172.261 176.56 172.261 180.4ZM219.745 215.92V198.04H299.545V215.92H267.985L264.265 236.92H251.905V249.4H330.625V266.92H227.185V231.28H240.985L243.745 215.92H219.745ZM273.145 236.32V220.24H302.425V155.44H328.825V242.56H302.425V236.32H273.145ZM222.145 175.6C222.145 165.16 229.945 156.64 241.105 156.64H274.345C285.385 156.64 293.425 165.16 293.425 175.6C293.425 185.8 285.385 194.32 274.345 194.32H241.105C229.945 194.32 222.145 185.8 222.145 175.6ZM245.665 175.84C245.665 177.76 247.105 179.44 248.665 179.44H267.145C268.705 179.44 270.265 177.76 270.265 175.84C270.265 173.8 268.705 172.12 267.145 172.12H248.665C247.105 172.12 245.665 173.8 245.665 175.84ZM481.922 172.6H444.482C446.042 178.6 456.242 183.64 483.122 183.28V200.56C455.882 200.56 439.562 195.88 430.922 186.88C422.282 195.88 405.962 200.56 378.722 200.56V183.28C405.242 183.64 415.802 178.6 417.362 172.6H379.922V155.44H481.922V172.6ZM379.322 248.92V231.28H481.922V268.12H456.002V248.92H379.322ZM375.722 224.8V205.6H486.122V224.8H375.722ZM496.922 263.32V235C509.762 226.36 520.682 214.48 520.682 179.32V157.84H547.202V179.32C547.202 214.48 558.122 226.36 570.962 235V263.32C555.602 255.64 542.522 245.44 533.882 229.24C525.242 245.44 512.282 255.64 496.922 263.32ZM577.802 266.92V155.44H604.802V266.92H577.802ZM659.138 233.2V220H757.298V249.4H685.538V253.72H759.698V266.92H659.138V237.28H730.898V233.2H659.138ZM704.738 215.2H670.658C661.538 215.2 654.098 207.28 654.098 198.04C654.098 188.8 661.538 180.88 670.658 180.88H704.738C713.858 180.88 721.298 188.8 721.298 198.04C721.298 207.28 713.858 215.2 704.738 215.2ZM730.898 217V155.44H757.298V175.48H769.778V196.6H757.298V217H730.898ZM652.898 177.88V161.68H673.898V153.04H701.498V161.68H722.498V177.88H652.898ZM675.698 198.04C675.698 199.48 676.658 201.28 678.218 201.28H697.658C699.338 201.28 700.178 199.48 700.178 198.04C700.178 196.6 699.338 194.92 697.658 194.92H678.218C676.658 194.92 675.698 196.6 675.698 198.04ZM853.778 236.56V155.44H880.778V236.56H853.778ZM882.578 247.24V266.92H779.138V228.76H805.898V247.24H882.578ZM774.098 195.52V182.8C774.098 165.16 789.338 155.44 808.058 155.44C826.658 155.44 841.898 165.16 841.898 182.8V195.52C841.898 212.8 826.658 222.52 808.058 222.52C789.338 222.52 774.098 212.8 774.098 195.52ZM800.018 181.36V196.96C800.018 201.16 803.378 204.16 808.058 204.16C812.498 204.16 816.098 201.16 816.098 196.96V181.36C816.098 177.16 812.498 173.8 808.058 173.8C803.378 173.8 800.018 177.16 800.018 181.36ZM894.098 202.24V155.44H919.298V202.24L918.098 235.84H895.298L894.098 202.24ZM895.298 266.92V244.36H918.098V266.92H895.298Z" fill="black"/>
</svg>
