<svg width="209" height="31" viewBox="0 0 209 31" fill="none" xmlns="http://www.w3.org/2000/svg">
<path d="M9.98401 12.4479H4.38401L6.84801 5.08792H0.992006V0.735924H13.696L9.98401 12.4479ZM26.784 12.4479H21.184L22.176 5.08792H14.592V0.735924H28.288L26.784 12.4479ZM29.344 18.1119H5.96046e-06V13.4719H12.416V7.90392H17.792V13.4719H29.344V18.1119ZM28 30.6239H22.016V24.5759H1.15201V20.1919H28V30.6239ZM54.5858 14.8799L62.3298 14.4959V18.8799L41.5938 19.8719V15.5199L48.9218 15.1679V12.7679H47.7378C45.1138 12.7679 43.4818 11.0719 43.4818 8.57593C43.4818 7.80792 43.6738 7.07192 43.9938 6.49592H42.1058V2.27192H48.6338V-7.62939e-05H54.9058V2.27192H61.4338V6.49592H59.4818C59.7698 7.07192 60.0578 7.77592 60.0578 8.57593C60.0578 11.0719 58.3618 12.7679 55.7378 12.7679H54.5858V14.8799ZM69.4018 0.671925V7.74393H72.9218V12.9599H69.4018V20.4799H63.3218V0.671925H69.4018ZM48.1538 7.64792C48.1538 8.35192 48.7298 8.89593 49.5298 8.89593H53.9778C54.8098 8.89593 55.3538 8.35192 55.3538 7.64792C55.3538 6.94393 54.7778 6.36793 53.9458 6.36793H49.5618C48.7298 6.36793 48.1538 6.94393 48.1538 7.64792ZM63.0978 25.6319H43.3858V21.3759H69.4018V30.6239H63.0978V25.6319ZM83.2578 18.4319C78.3298 18.4319 74.3298 15.8719 74.3298 11.2639V7.87193C74.3298 3.19992 78.3298 0.671925 83.2578 0.671925C88.1538 0.671925 92.1538 3.19992 92.1538 7.87193V11.2639C92.1538 15.8719 88.1538 18.4319 83.2578 18.4319ZM102.394 22.2079H96.1858V0.671925H102.394V22.2079ZM83.2578 13.9199C84.8898 13.9199 86.2018 13.0239 86.2018 11.5839V7.61592C86.2018 6.14392 84.8898 5.15192 83.2578 5.15192C81.5618 5.15192 80.3138 6.14392 80.3138 7.61592V11.5839C80.3138 13.0239 81.5618 13.9199 83.2578 13.9199ZM102.906 30.3039H75.7698V20.1919H81.9138V25.5039H102.906V30.3039ZM123.866 8.76793H105.946V3.80792H111.866V0.319925H117.946V3.80792H123.866V8.76793ZM133.37 30.3039H127.29V0.671925H133.37V11.7119H136.922V17.1839H133.37V30.3039ZM114.874 29.7599C110.074 29.7599 106.33 26.8799 106.33 22.2399V17.5679C106.33 12.9279 110.074 10.0799 114.874 10.0799C119.738 10.0799 123.482 12.9279 123.482 17.5679V22.2399C123.482 26.8799 119.738 29.7599 114.874 29.7599ZM114.938 25.1839C116.538 25.1839 117.946 24.1279 117.946 22.5279V17.4079C117.946 15.8079 116.538 14.7199 114.938 14.7199C113.306 14.7199 111.93 15.8079 111.93 17.4079V22.5279C111.93 24.1279 113.306 25.1839 114.938 25.1839ZM154.874 16.0959H150.17V10.9119H154.874V0.671925H159.866V30.3039H154.874V16.0959ZM166.746 30.3039H161.626V0.671925H166.746V30.3039ZM137.914 29.2479V22.9119C141.562 19.9999 142.778 16.2559 142.714 7.39193V1.34393H147.962V7.74393C147.962 16.3839 149.146 20.0319 152.762 22.9119V29.2479C149.434 27.2959 146.778 24.8959 145.306 21.3759C143.866 24.8959 141.242 27.2959 137.914 29.2479ZM189.914 17.9519H178.554C173.85 17.9519 170.522 14.2079 170.522 9.50393C170.522 4.79992 173.85 1.02392 178.554 1.02392H189.914C194.65 1.02392 197.978 4.79992 197.978 9.50393C197.978 14.2079 194.65 17.9519 189.914 17.9519ZM180.218 13.0559H188.314C190.362 13.0559 191.802 11.5519 191.802 9.50393C191.802 7.48792 190.362 6.01592 188.314 6.01592H180.218C178.17 6.01592 176.73 7.48792 176.73 9.50393C176.73 11.5519 178.17 13.0559 180.218 13.0559ZM198.938 29.7599H169.594V24.5439H175.354V19.1039H181.018V24.5439H187.61V19.1039H193.274V24.5439H198.938V29.7599ZM202.746 22.0479L202.426 13.0879V0.607925H208.25V13.0879L207.962 22.0479H202.746ZM208.026 30.1119H202.65V24.7679H208.026V30.1119Z" fill="black"/>
</svg>
