<svg width="177" height="50" viewBox="0 0 177 50" fill="none" xmlns="http://www.w3.org/2000/svg">
<path d="M44.0115 10.2C44.0755 10.808 44.1075 11.88 44.1075 13.416C44.1075 14.984 44.0755 16.072 44.0115 16.68C43.3715 16.808 41.9955 16.92 39.8835 17.016C39.8835 20.6 39.8515 23.672 39.7875 26.232C39.0515 26.36 37.8835 26.472 36.2835 26.568C34.7155 26.632 33.4995 26.648 32.6355 26.616C32.5715 23.864 32.5395 19.784 32.5395 14.376C32.5395 8.904 32.5715 4.952 32.6355 2.52C33.3075 2.36 34.4595 2.248 36.0915 2.184C37.7235 2.088 38.9555 2.072 39.7875 2.136C39.8195 2.84 39.8355 4.2 39.8355 6.216L39.8835 10.344C41.2275 10.28 42.1395 10.248 42.6195 10.248L44.0115 10.2ZM4.6515 28.296C4.1075 27.656 3.4515 26.776 2.6835 25.656C1.9155 24.504 1.4035 23.576 1.1475 22.872L11.8995 16.152V12.696C6.3635 12.984 2.9875 13.128 1.7715 13.128C1.6755 12.168 1.6275 11.112 1.6275 9.96C1.6275 8.808 1.6755 7.8 1.7715 6.936C3.7235 6.776 7.0835 6.568 11.8515 6.312C11.8515 4.616 11.8835 3.464 11.9475 2.856C12.4275 2.728 13.2755 2.632 14.4915 2.568C15.7075 2.472 16.8435 2.424 17.8995 2.424C18.6355 2.424 19.1315 2.44 19.3875 2.472C19.4515 3.048 19.4835 4.2 19.4835 5.928L29.0355 5.544C29.0995 6.12 29.1315 7.16 29.1315 8.664C29.1315 10.136 29.0995 11.16 29.0355 11.736L22.6515 12.12L19.4355 12.312V15.672L21.3075 16.392C23.4195 17.192 26.3315 18.328 30.0435 19.8C29.8195 20.568 29.3875 21.592 28.7475 22.872C28.1075 24.152 27.5475 25.128 27.0675 25.8C22.9395 24.328 19.1475 22.856 15.6915 21.384C12.4915 23.56 8.8115 25.864 4.6515 28.296ZM4.1235 30.264C5.5315 30.072 11.6435 29.704 22.4595 29.16C33.3075 28.584 39.0835 28.328 39.7875 28.392C39.8835 30.248 39.9315 33.112 39.9315 36.984C39.9315 40.888 39.8835 43.72 39.7875 45.48C38.0915 45.704 32.1715 46.088 22.0275 46.632C11.8835 47.176 5.9155 47.416 4.1235 47.352C4.0275 45.048 3.9795 42.52 3.9795 39.768C3.9795 36.152 4.0275 32.984 4.1235 30.264ZM32.7315 39.816C32.7955 38.92 32.8275 38.12 32.8275 37.416C32.8275 36.808 32.7955 35.928 32.7315 34.776C31.5155 34.776 28.3315 34.92 23.1795 35.208C18.0595 35.496 14.0595 35.736 11.1795 35.928C11.1155 37.016 11.0835 37.88 11.0835 38.52C11.0835 39 11.1155 39.816 11.1795 40.968C12.2355 41 15.8195 40.84 21.9315 40.488C28.0755 40.168 31.6755 39.944 32.7315 39.816ZM85.6238 2.04C85.7198 5.304 85.7678 12.616 85.7678 23.976C85.7678 35.336 85.7198 42.424 85.6238 45.24C84.9198 45.368 83.7678 45.464 82.1678 45.528C80.5998 45.624 79.3518 45.656 78.4238 45.624C78.3598 43.32 78.3278 39.528 78.3278 34.248C76.0238 34.376 74.5358 34.44 73.8638 34.44C73.7678 33.48 73.7198 32.344 73.7198 31.032C73.7198 29.688 73.7678 28.584 73.8638 27.72C75.0158 27.592 76.4878 27.48 78.2798 27.384C78.2798 22.68 78.2958 19.208 78.3278 16.968C76.0238 17.096 74.5358 17.16 73.8638 17.16C73.7678 16.2 73.7198 15.064 73.7198 13.752C73.7198 12.408 73.7678 11.304 73.8638 10.44C74.9838 10.312 76.4718 10.2 78.3278 10.104L78.3758 6.216C78.3758 4.2 78.3918 2.936 78.4238 2.424C78.8718 2.296 79.6238 2.2 80.6798 2.136C81.7678 2.04 82.8558 1.992 83.9438 1.992C84.7758 1.992 85.3358 2.008 85.6238 2.04ZM60.5678 3.624C63.4478 3.624 65.7358 4.232 67.4318 5.448C69.1278 6.664 70.3758 8.712 71.1758 11.592C72.0078 14.44 72.4238 18.376 72.4238 23.4C72.4238 28.904 71.9278 33.192 70.9358 36.264C69.9758 39.336 68.4558 41.496 66.3758 42.744C64.3278 43.992 61.5278 44.616 57.9758 44.616C55.0958 44.616 52.7918 43.992 51.0638 42.744C49.3678 41.528 48.1038 39.496 47.2718 36.648C46.4718 33.768 46.0718 29.816 46.0718 24.792C46.0718 19.288 46.5678 15.016 47.5598 11.976C48.5518 8.904 50.0718 6.744 52.1198 5.496C54.1998 4.248 57.0158 3.624 60.5678 3.624ZM58.7438 37.848C60.4718 37.848 61.7678 37.48 62.6318 36.744C63.4958 35.976 64.1038 34.616 64.4558 32.664C64.8398 30.68 65.0318 27.72 65.0318 23.784C65.0318 20.168 64.8718 17.416 64.5518 15.528C64.2638 13.64 63.7518 12.312 63.0158 11.544C62.2798 10.776 61.2078 10.392 59.7998 10.392C58.0718 10.392 56.7598 10.776 55.8638 11.544C54.9998 12.28 54.3758 13.64 53.9918 15.624C53.6398 17.576 53.4638 20.504 53.4638 24.408C53.4638 28.024 53.6238 30.792 53.9438 32.712C54.2638 34.6 54.7918 35.928 55.5278 36.696C56.2638 37.464 57.3358 37.848 58.7438 37.848ZM132.324 9.72C132.388 10.328 132.42 11.4 132.42 12.936C132.42 14.504 132.388 15.592 132.324 16.2C131.684 16.328 130.308 16.44 128.196 16.536C128.196 20.056 128.164 23.128 128.1 25.752C127.364 25.88 126.196 25.992 124.596 26.088C123.028 26.152 121.812 26.168 120.948 26.136C120.884 23.384 120.852 19.384 120.852 14.136C120.852 8.824 120.884 4.952 120.948 2.52C121.62 2.36 122.772 2.248 124.404 2.184C126.036 2.088 127.268 2.072 128.1 2.136C128.132 2.808 128.148 4.088 128.148 5.976L128.196 9.864C129.54 9.8 130.452 9.768 130.932 9.768L132.324 9.72ZM115.236 3.624C115.3 5.064 115.332 8.856 115.332 15C115.332 20.76 115.3 23.96 115.236 24.6C113.54 24.792 109.524 25.064 103.188 25.416C96.852 25.736 92.708 25.896 90.756 25.896C90.724 24.648 90.708 21.144 90.708 15.384C90.708 9.624 90.724 6.136 90.756 4.92C91.62 4.76 92.756 4.648 94.164 4.584C95.604 4.52 96.804 4.504 97.764 4.536V9.432C102.02 9.176 105.524 9 108.276 8.904V3.96C109.204 3.832 110.356 3.736 111.732 3.672C113.108 3.608 114.276 3.592 115.236 3.624ZM97.764 19.512C99.3 19.48 101.188 19.4 103.428 19.272C105.7 19.144 107.316 19.032 108.276 18.936V14.712C104.052 14.968 100.548 15.144 97.764 15.24V19.512ZM110.292 28.248C111.316 28.184 112.74 28.152 114.564 28.152C118.276 28.152 121.172 28.472 123.252 29.112C125.364 29.752 126.836 30.696 127.668 31.944C128.5 33.16 128.916 34.76 128.916 36.744C128.916 39.112 128.34 41 127.188 42.408C126.068 43.816 124.164 44.888 121.476 45.624C118.788 46.392 115.06 46.904 110.292 47.16C108.66 47.256 107.172 47.304 105.828 47.304C102.148 47.304 99.284 46.984 97.236 46.344C95.188 45.704 93.748 44.76 92.916 43.512C92.084 42.296 91.668 40.696 91.668 38.712C91.668 36.344 92.228 34.456 93.348 33.048C94.5 31.64 96.42 30.552 99.108 29.784C101.796 29.016 105.524 28.504 110.292 28.248ZM110.292 41.208C113.588 41.048 116.036 40.792 117.636 40.44C119.268 40.12 120.34 39.704 120.852 39.192C121.364 38.68 121.62 37.992 121.62 37.128C121.62 36.424 121.444 35.864 121.092 35.448C120.74 35 120.036 34.664 118.98 34.44C117.924 34.184 116.388 34.056 114.372 34.056C113.188 34.056 111.828 34.104 110.292 34.2C107.028 34.36 104.58 34.616 102.948 34.968C101.316 35.288 100.244 35.72 99.732 36.264C99.22 36.776 98.964 37.464 98.964 38.328C98.964 39.032 99.124 39.592 99.444 40.008C99.796 40.424 100.5 40.744 101.556 40.968C102.612 41.224 104.148 41.352 106.164 41.352C107.348 41.352 108.724 41.304 110.292 41.208ZM161.504 16.392C161.44 15.176 161.408 14.072 161.408 13.08C161.408 12.088 161.44 10.984 161.504 9.768L166.688 9.432C166.688 6.488 166.72 4.152 166.784 2.424C167.456 2.264 168.608 2.152 170.24 2.088C171.872 1.992 173.104 1.976 173.936 2.04C174 5.816 174.032 9.976 174.032 14.52C174.032 18.104 174 21.336 173.936 24.216C173.232 24.344 172.096 24.456 170.528 24.552C168.96 24.616 167.712 24.632 166.784 24.6C166.72 22.424 166.688 19.624 166.688 16.2L161.504 16.392ZM159.392 3.624C159.456 5.064 159.488 8.824 159.488 14.904C159.488 20.568 159.456 23.72 159.392 24.36C157.632 24.552 153.664 24.824 147.488 25.176C141.312 25.496 137.28 25.64 135.392 25.608C135.36 24.36 135.344 20.904 135.344 15.24C135.344 9.544 135.36 6.088 135.392 4.872C136.288 4.744 137.456 4.648 138.896 4.584C140.336 4.488 141.504 4.456 142.4 4.488V9.144L145.376 9C148.48 8.808 150.832 8.696 152.432 8.664V3.96C153.36 3.832 154.512 3.736 155.888 3.672C157.264 3.608 158.432 3.592 159.392 3.624ZM142.4 19.224C143.584 19.224 145.296 19.176 147.536 19.08C149.776 18.952 151.408 18.824 152.432 18.696V14.472C149.264 14.664 145.92 14.824 142.4 14.952V19.224ZM173.936 26.424C174.032 29.208 174.08 32.552 174.08 36.456C174.08 39.816 174.032 42.792 173.936 45.384C172.24 45.608 166.32 45.992 156.176 46.536C146.032 47.08 140.064 47.32 138.272 47.256C138.144 43.8 138.08 40.424 138.08 37.128C138.08 33.544 138.144 30.6 138.272 28.296C138.848 28.168 140 28.072 141.728 28.008C143.456 27.912 144.656 27.88 145.328 27.912V31.56C150.608 31.24 157.792 30.856 166.88 30.408V26.808C169.536 26.552 171.888 26.424 173.936 26.424ZM145.328 40.872C147.44 40.808 150.848 40.648 155.552 40.392C160.288 40.168 164.064 39.96 166.88 39.768V36.408L145.328 37.512V40.872Z" fill="black"/>
</svg>
