<svg width="281" height="87" viewBox="0 0 281 87" fill="none" xmlns="http://www.w3.org/2000/svg">
<path d="M57.9694 1.80009C60.1454 1.80009 61.8254 2.31209 63.0094 3.33609C64.2094 4.36009 64.8094 5.80809 64.8094 7.68009C64.8094 9.58409 64.2094 11.0481 63.0094 12.0721C61.8254 13.0801 60.1454 13.5841 57.9694 13.5841H52.9534V21.2401H50.5534V1.80009H57.9694ZM57.8014 11.4481C60.8574 11.4481 62.3854 10.1921 62.3854 7.68009C62.3854 5.18409 60.8574 3.93609 57.8014 3.93609H52.9534V11.4481H57.8014ZM75.0358 21.6001C73.5318 21.6001 72.1558 21.2641 70.9078 20.5921C69.6598 19.9361 68.6678 18.9841 67.9318 17.7361C67.2118 16.4721 66.8518 14.9841 66.8518 13.2721V9.76809C66.8518 8.05609 67.2118 6.57609 67.9318 5.32809C68.6678 4.06409 69.6518 3.10409 70.8838 2.44809C72.1318 1.77609 73.5158 1.44009 75.0358 1.44009C77.0038 1.44009 78.6518 1.98409 79.9798 3.07209C81.3238 4.14409 82.2358 5.64009 82.7158 7.56009L80.4358 8.20809C79.6518 5.18409 77.8518 3.67209 75.0358 3.67209C73.9478 3.67209 72.9638 3.91209 72.0838 4.39209C71.2198 4.87209 70.5318 5.58409 70.0198 6.52809C69.5078 7.47209 69.2518 8.60809 69.2518 9.93609V13.1041C69.2518 14.4481 69.5078 15.5921 70.0198 16.5361C70.5318 17.4641 71.2198 18.1681 72.0838 18.6481C72.9638 19.1281 73.9478 19.3681 75.0358 19.3681C77.8518 19.3681 79.6518 17.8561 80.4358 14.8321L82.7158 15.4801C82.2518 17.4001 81.3478 18.8961 80.0038 19.9681C78.6598 21.0561 77.0038 21.6001 75.0358 21.6001ZM102.605 0.264087V4.92009H106.061V7.10409H102.605V12.5281H100.205V0.264087H102.605ZM93.7011 1.22409H96.0051V11.5441H85.1811V1.22409H87.4851V4.27209H93.7011V1.22409ZM87.4851 6.38409V9.45609H93.7011V6.38409H87.4851ZM97.8531 13.7041C98.9091 13.7041 99.8371 13.8961 100.637 14.2801C101.437 14.6641 102.053 15.2001 102.485 15.8881C102.917 16.5761 103.133 17.3601 103.133 18.2401C103.133 19.1201 102.917 19.9041 102.485 20.5921C102.053 21.2801 101.437 21.8161 100.637 22.2001C99.8371 22.5841 98.9091 22.7761 97.8531 22.7761H93.1491C92.0931 22.7761 91.1651 22.5841 90.3651 22.2001C89.5651 21.8161 88.9491 21.2801 88.5171 20.5921C88.0851 19.9041 87.8691 19.1201 87.8691 18.2401C87.8691 17.3601 88.0851 16.5761 88.5171 15.8881C88.9491 15.2001 89.5651 14.6641 90.3651 14.2801C91.1651 13.8961 92.0931 13.7041 93.1491 13.7041H97.8531ZM97.4691 20.6161C98.5251 20.6161 99.3331 20.4001 99.8931 19.9681C100.453 19.5361 100.733 18.9521 100.733 18.2161C100.733 17.4961 100.453 16.9201 99.8931 16.4881C99.3331 16.0561 98.5251 15.8401 97.4691 15.8401H93.5331C92.4771 15.8401 91.6691 16.0561 91.1091 16.4881C90.5491 16.9201 90.2691 17.4961 90.2691 18.2161C90.2691 18.9521 90.5491 19.5361 91.1091 19.9681C91.6691 20.4001 92.4771 20.6161 93.5331 20.6161H97.4691ZM119.534 8.56809C118.43 10.0561 116.574 11.3761 113.966 12.5281L112.982 10.5121C114.774 9.68009 116.126 8.79209 117.038 7.84809C117.966 6.90409 118.478 5.84809 118.574 4.68009H113.75V2.59209H118.598V8.72612e-05H120.926V2.59209H125.894V4.68009H120.926C120.878 5.35209 120.758 5.99209 120.566 6.60009L126.638 10.0321L125.534 12.0481L119.534 8.56809ZM131.246 0.264087V4.92009H134.678V7.10409H131.246V12.5281H128.846V0.264087H131.246ZM125.438 16.0081C125.438 16.5521 125.294 17.1281 125.006 17.7361L132.59 20.7361L131.726 22.7761L123.566 19.4881C122.014 20.8481 119.574 21.9441 116.246 22.7761L115.55 20.6881C117.854 20.0961 119.662 19.4001 120.974 18.6001C122.286 17.8001 122.958 16.9361 122.99 16.0081H116.726V13.9201H131.462V16.0081H125.438ZM152.876 22.5361V0.264087H155.252V22.5361H152.876ZM137.66 4.20009V2.01609H148.412V3.98409C148.412 7.10409 147.564 10.0161 145.868 12.7201C144.172 15.4241 141.756 17.8081 138.62 19.8721L137.18 17.9761C140.012 16.1681 142.188 14.0641 143.708 11.6641C145.244 9.26409 146.012 6.86409 146.012 4.46409V4.20009H137.66ZM177.529 9.16809H161.713V4.03209H174.673V2.44809H161.617V0.624086H177.073V5.80809H164.113V7.36809H177.529V9.16809ZM179.857 12.4321H158.929V10.6081H179.857V12.4321ZM177.889 22.6561H161.497V17.3281H174.913V15.7441H161.377V13.9201H177.313V19.1521H163.897V20.7841H177.889V22.6561ZM199.234 10.3441V12.0721H208.498V14.0161H187.57V12.0721H196.858V10.3441H190.354V0.744088H205.714V2.71209H192.754V4.51209H205.714V6.45609H192.754V8.37609H206.17V10.3441H199.234ZM200.65 15.6001C202.41 15.6001 203.77 15.9281 204.73 16.5841C205.69 17.2401 206.17 18.1121 206.17 19.2001C206.17 20.3041 205.69 21.1761 204.73 21.8161C203.77 22.4561 202.41 22.7761 200.65 22.7761H195.418C193.658 22.7761 192.298 22.4561 191.338 21.8161C190.378 21.1761 189.898 20.3041 189.898 19.2001C189.898 18.1121 190.378 17.2401 191.338 16.5841C192.298 15.9281 193.658 15.6001 195.418 15.6001H200.65ZM200.122 20.8081C202.57 20.8081 203.794 20.2641 203.794 19.1761C203.794 18.0881 202.57 17.5441 200.122 17.5441H195.97C193.522 17.5441 192.298 18.0881 192.298 19.1761C192.298 20.2641 193.522 20.8081 195.97 20.8081H200.122ZM227.416 8.64009V0.264087H229.744V22.5361H227.416V10.8241H224.584V22.0801H222.304V0.600087H224.584V8.64009H227.416ZM214.384 0.288086H216.808V3.52809H220.816V5.68809H210.352V3.52809H214.384V0.288086ZM215.632 7.68009C216.48 7.68009 217.224 7.89609 217.864 8.32809C218.52 8.76009 219.024 9.37609 219.376 10.1761C219.744 10.9601 219.928 11.8801 219.928 12.9361V14.2321C219.928 15.2881 219.744 16.2161 219.376 17.0161C219.024 17.8161 218.52 18.4321 217.864 18.8641C217.224 19.2961 216.48 19.5121 215.632 19.5121C214.768 19.5121 214.008 19.2961 213.352 18.8641C212.696 18.4321 212.184 17.8161 211.816 17.0161C211.448 16.2161 211.264 15.2881 211.264 14.2321V12.9361C211.264 11.8801 211.448 10.9601 211.816 10.1761C212.184 9.37609 212.696 8.76009 213.352 8.32809C214.008 7.89609 214.768 7.68009 215.632 7.68009ZM217.72 13.1041C217.72 12.0961 217.528 11.3041 217.144 10.7281C216.76 10.1361 216.248 9.84009 215.608 9.84009C214.968 9.84009 214.448 10.1361 214.048 10.7281C213.664 11.3041 213.472 12.0961 213.472 13.1041V14.0881C213.472 15.0961 213.664 15.8961 214.048 16.4881C214.448 17.0801 214.968 17.3761 215.608 17.3761C216.232 17.3761 216.736 17.0801 217.12 16.4881C217.52 15.8961 217.72 15.0961 217.72 14.0881V13.1041ZM18.8161 39.0161H21.8401V42.4001H18.8161V53.7281H15.0721V31.1921H18.8161V39.0161ZM0.816115 36.1361V32.7281H12.3841V35.1761C12.3841 38.4881 11.5201 41.5281 9.79212 44.2961C8.08012 47.0481 5.57612 49.4721 2.28012 51.5681L0.00011526 48.5921C2.76812 46.8961 4.89612 44.9361 6.38412 42.7121C4.41612 42.8721 2.64012 42.9521 1.05612 42.9521H0.528115L0.336115 39.5921H0.720115C1.76012 39.5921 2.97612 39.5681 4.36812 39.5201C5.76012 39.4561 6.99212 39.3761 8.06412 39.2801C8.40012 38.2561 8.58412 37.2081 8.61612 36.1361H0.816115ZM41.5739 39.0161H44.5979V42.4001H41.5739V53.7281H37.8299V31.1921H41.5739V39.0161ZM23.5739 36.1361V32.7281H35.1419V35.1761C35.1419 38.4881 34.2779 41.5281 32.5499 44.2961C30.8379 47.0481 28.3339 49.4721 25.0379 51.5681L22.7579 48.5921C25.5259 46.8961 27.6539 44.9361 29.1419 42.7121C27.1739 42.8721 25.3979 42.9521 23.8139 42.9521H23.2859L23.0939 39.5921H23.4779C24.5179 39.5921 25.7339 39.5681 27.1259 39.5201C28.5179 39.4561 29.7499 39.3761 30.8219 39.2801C31.1579 38.2561 31.3419 37.2081 31.3739 36.1361H23.5739ZM58.3317 48.8801H67.1157V52.2881H45.8037V48.8801H54.5877V45.1841H54.4197C53.1237 45.1841 51.9637 44.8961 50.9397 44.3201C49.9317 43.7441 49.1397 42.9601 48.5637 41.9681C48.0037 40.9601 47.7237 39.8481 47.7237 38.6321C47.7237 37.4161 48.0037 36.3121 48.5637 35.3201C49.1397 34.3281 49.9317 33.5441 50.9397 32.9681C51.9637 32.3921 53.1237 32.1041 54.4197 32.1041H58.4997C59.7957 32.1041 60.9477 32.3921 61.9557 32.9681C62.9797 33.5441 63.7717 34.3281 64.3317 35.3201C64.9077 36.3121 65.1957 37.4161 65.1957 38.6321C65.1957 39.8481 64.9077 40.9601 64.3317 41.9681C63.7717 42.9601 62.9797 43.7441 61.9557 44.3201C60.9477 44.8961 59.7957 45.1841 58.4997 45.1841H58.3317V48.8801ZM51.4677 38.6561C51.4677 39.6481 51.8037 40.4321 52.4757 41.0081C53.1477 41.5681 54.0357 41.8481 55.1397 41.8481H57.7797C58.8837 41.8481 59.7717 41.5681 60.4437 41.0081C61.1157 40.4321 61.4517 39.6481 61.4517 38.6561C61.4517 37.6801 61.1157 36.9121 60.4437 36.3521C59.7717 35.7761 58.8837 35.4881 57.7797 35.4881H55.1397C54.0357 35.4881 53.1477 35.7761 52.4757 36.3521C51.8037 36.9121 51.4677 37.6801 51.4677 38.6561ZM85.1936 53.7281V31.1921H88.8176V53.7281H85.1936ZM78.5216 39.2321H80.5136V31.5281H84.0176V53.1521H80.5136V42.6401H78.5216V39.2321ZM77.7056 46.5041C78.4416 46.4401 78.9936 46.3841 79.3616 46.3361L79.6976 49.6481C77.0096 50.0321 74.1056 50.2241 70.9856 50.2241H68.4416L68.2496 46.8161H69.8336V36.0161H68.4416V32.6081H79.0016V36.0161H77.7056V46.5041ZM74.4656 36.0161H73.0496V46.7921C73.3536 46.7921 73.8256 46.7761 74.4656 46.7441V36.0161ZM111.119 53.7281H107.375V31.1921H111.119V53.7281ZM98.2794 50.9201C96.3914 50.9201 94.8634 50.2961 93.6954 49.0481C92.5274 47.8001 91.9434 45.8561 91.9434 43.2161V39.7361C91.9434 37.0961 92.5274 35.1521 93.6954 33.9041C94.8634 32.6561 96.3914 32.0321 98.2794 32.0321C100.151 32.0321 101.671 32.6561 102.839 33.9041C104.007 35.1521 104.591 37.0961 104.591 39.7361V43.2161C104.591 45.8561 104.007 47.8001 102.839 49.0481C101.671 50.2961 100.151 50.9201 98.2794 50.9201ZM98.2794 47.5361C99.0474 47.5361 99.6634 47.2081 100.127 46.5521C100.607 45.8801 100.847 44.7681 100.847 43.2161V39.7361C100.847 38.1841 100.607 37.0801 100.127 36.4241C99.6634 35.7521 99.0474 35.4161 98.2794 35.4161C97.5114 35.4161 96.8874 35.7521 96.4074 36.4241C95.9274 37.0801 95.6874 38.1841 95.6874 39.7361V43.2161C95.6874 44.7681 95.9274 45.8801 96.4074 46.5521C96.8874 47.2081 97.5114 47.5361 98.2794 47.5361ZM138.605 39.0161H141.629V42.4001H138.605V53.7281H134.861V31.1921H138.605V39.0161ZM120.821 36.1361V32.7281H131.957V35.1761C131.957 38.3921 131.141 41.3601 129.509 44.0801C127.893 46.7841 125.509 49.2001 122.357 51.3281L120.029 48.3761C122.749 46.6321 124.773 44.6721 126.101 42.4961C127.445 40.3201 128.141 38.2001 128.189 36.1361H120.821ZM159.587 38.5841H157.955V43.1921H154.571V31.4321H157.955V35.3201H159.587V31.1921H163.115V43.4321H159.587V38.5841ZM143.339 32.0321H152.939V42.6161H143.339V32.0321ZM146.627 39.3281H149.675V35.3201H146.627V39.3281ZM157.739 44.2481C158.827 44.2481 159.795 44.4481 160.643 44.8481C161.491 45.2321 162.155 45.7921 162.635 46.5281C163.115 47.2641 163.355 48.1281 163.355 49.1201C163.355 50.0961 163.115 50.9521 162.635 51.6881C162.155 52.4241 161.491 52.9841 160.643 53.3681C159.795 53.7681 158.827 53.9681 157.739 53.9681H152.291C151.219 53.9681 150.259 53.7681 149.411 53.3681C148.563 52.9841 147.899 52.4241 147.419 51.6881C146.939 50.9521 146.699 50.0961 146.699 49.1201C146.699 48.1281 146.939 47.2641 147.419 46.5281C147.899 45.7921 148.555 45.2321 149.387 44.8481C150.235 44.4481 151.203 44.2481 152.291 44.2481H157.739ZM157.259 50.6321C158.011 50.6321 158.587 50.4961 158.987 50.2241C159.387 49.9521 159.587 49.5761 159.587 49.0961C159.587 48.6161 159.387 48.2401 158.987 47.9681C158.587 47.6961 158.011 47.5601 157.259 47.5601H152.795C152.027 47.5601 151.443 47.6961 151.043 47.9681C150.643 48.2401 150.443 48.6161 150.443 49.0961C150.443 49.5761 150.643 49.9521 151.043 50.2241C151.443 50.4961 152.027 50.6321 152.795 50.6321H157.259ZM180.785 32.6561C182.817 32.6561 184.457 33.1841 185.705 34.2401C186.953 35.2801 187.577 36.8081 187.577 38.8241C187.577 40.8561 186.953 42.3921 185.705 43.4321C184.457 44.4721 182.817 44.9921 180.785 44.9921H176.321V52.3841H172.553V32.6561H180.785ZM180.593 41.6801C181.633 41.6801 182.425 41.4321 182.969 40.9361C183.529 40.4401 183.809 39.7361 183.809 38.8241C183.809 37.9121 183.529 37.2081 182.969 36.7121C182.425 36.2161 181.633 35.9681 180.593 35.9681H176.321V41.6801H180.593ZM197.818 52.7441C196.266 52.7441 194.834 52.4001 193.522 51.7121C192.226 51.0401 191.186 50.0641 190.402 48.7841C189.634 47.4881 189.25 45.9601 189.25 44.2001V40.8401C189.25 39.0961 189.634 37.5761 190.402 36.2801C191.186 34.9841 192.226 34.0001 193.522 33.3281C194.834 32.6401 196.266 32.2961 197.818 32.2961C199.93 32.2961 201.706 32.8801 203.146 34.0481C204.602 35.2001 205.57 36.8001 206.05 38.8481L202.474 39.8801C202.138 38.5201 201.594 37.5041 200.842 36.8321C200.09 36.1441 199.082 35.8001 197.818 35.8001C196.938 35.8001 196.13 36.0001 195.394 36.4001C194.674 36.7841 194.098 37.3681 193.666 38.1521C193.234 38.9361 193.018 39.8801 193.018 40.9841V44.0561C193.018 45.1601 193.234 46.1041 193.666 46.8881C194.098 47.6721 194.674 48.2641 195.394 48.6641C196.13 49.0481 196.938 49.2401 197.818 49.2401C199.082 49.2401 200.09 48.9041 200.842 48.2321C201.594 47.5441 202.138 46.5201 202.474 45.1601L206.05 46.1921C205.57 48.2401 204.602 49.8401 203.146 50.9921C201.706 52.1601 199.93 52.7441 197.818 52.7441ZM226.261 31.1921V35.2721H229.285V38.6561H226.261V43.5521H222.517V31.1921H226.261ZM216.037 31.9121H219.613V42.8561H207.901V31.9121H211.477V34.3601H216.037V31.9121ZM211.477 37.5761V39.6161H216.037V37.5761H211.477ZM221.197 44.3681C222.253 44.3681 223.197 44.5601 224.029 44.9441C224.877 45.3281 225.541 45.8881 226.021 46.6241C226.501 47.3441 226.741 48.2001 226.741 49.1921C226.741 50.1681 226.501 51.0161 226.021 51.7361C225.541 52.4561 224.877 53.0081 224.029 53.3921C223.197 53.7761 222.253 53.9681 221.197 53.9681H216.085C215.029 53.9681 214.077 53.7761 213.229 53.3921C212.397 53.0081 211.741 52.4561 211.261 51.7361C210.781 51.0161 210.541 50.1681 210.541 49.1921C210.541 48.2001 210.781 47.3441 211.261 46.6241C211.741 45.8881 212.397 45.3281 213.229 44.9441C214.077 44.5601 215.029 44.3681 216.085 44.3681H221.197ZM220.717 50.6321C221.437 50.6321 221.989 50.5041 222.373 50.2481C222.773 49.9921 222.973 49.6321 222.973 49.1681C222.973 48.6881 222.781 48.3201 222.397 48.0641C222.013 47.8081 221.453 47.6801 220.717 47.6801H216.565C215.829 47.6801 215.261 47.8081 214.861 48.0641C214.477 48.3201 214.285 48.6881 214.285 49.1681C214.285 49.6321 214.485 49.9921 214.885 50.2481C215.285 50.5041 215.845 50.6321 216.565 50.6321H220.717ZM255.019 31.1921V35.2721H258.043V38.6561H255.019V43.5521H251.275V31.1921H255.019ZM244.795 31.9121H248.371V42.8561H236.659V31.9121H240.235V34.3601H244.795V31.9121ZM240.235 37.5761V39.6161H244.795V37.5761H240.235ZM249.955 44.3681C251.011 44.3681 251.955 44.5601 252.787 44.9441C253.635 45.3281 254.299 45.8881 254.779 46.6241C255.259 47.3441 255.499 48.2001 255.499 49.1921C255.499 50.1681 255.259 51.0161 254.779 51.7361C254.299 52.4561 253.635 53.0081 252.787 53.3921C251.955 53.7761 251.011 53.9681 249.955 53.9681H244.843C243.787 53.9681 242.835 53.7761 241.987 53.3921C241.155 53.0081 240.499 52.4561 240.019 51.7361C239.539 51.0161 239.299 50.1681 239.299 49.1921C239.299 48.2001 239.539 47.3441 240.019 46.6241C240.499 45.8881 241.155 45.3281 241.987 44.9441C242.835 44.5601 243.787 44.3681 244.843 44.3681H249.955ZM249.475 50.6321C250.195 50.6321 250.747 50.5041 251.131 50.2481C251.531 49.9921 251.731 49.6321 251.731 49.1681C251.731 48.6881 251.539 48.3201 251.155 48.0641C250.771 47.8081 250.211 47.6801 249.475 47.6801H245.323C244.587 47.6801 244.019 47.8081 243.619 48.0641C243.235 48.3201 243.043 48.6881 243.043 49.1681C243.043 49.6321 243.243 49.9921 243.643 50.2481C244.043 50.5041 244.603 50.6321 245.323 50.6321H249.475ZM261.817 31.5521H277.993V40.6241H261.817V31.5521ZM265.585 37.4801H274.225V34.6721H265.585V37.4801ZM259.249 45.6161V42.2081H280.561V45.6161H271.777V48.7121H268.033V45.6161H259.249ZM261.721 47.2241H265.465V50.3441H278.569V53.7281H261.721V47.2241ZM1.92621 73.5201C1.92621 71.0881 2.37421 68.7921 3.27021 66.6321C4.18221 64.4721 5.50221 62.4881 7.23021 60.6801L8.81421 62.1441C5.74221 65.6161 4.20621 69.4081 4.20621 73.5201C4.20621 77.6321 5.74221 81.4241 8.81421 84.8961L7.23021 86.3601C5.50221 84.5521 4.18221 82.5681 3.27021 80.4081C2.37421 78.2481 1.92621 75.9521 1.92621 73.5201ZM29.3687 78.9441H26.9927V71.9841H23.6807V70.0881H26.9927V67.6641H23.6807V65.7681H26.9927V62.2641H29.3687V78.9441ZM24.5447 74.7201C22.9767 74.9761 21.2647 75.1761 19.4087 75.3201C17.5687 75.4481 15.8007 75.5121 14.1047 75.5121H10.8407L10.7207 73.4001H13.2407V65.5521H10.9847V63.4401H23.5607V65.5521H21.0407V73.0401C21.8727 72.9761 22.9607 72.8481 24.3047 72.6561L24.5447 74.7201ZM18.7367 65.5521H15.5447V73.3761C16.5527 73.3441 17.6167 73.2961 18.7367 73.2321V65.5521ZM17.0327 77.7921V82.3521H30.3047V84.5361H14.6567V77.7921H17.0327ZM52.1265 84.5361H49.7265V62.2641H52.1265V84.5361ZM40.3425 75.5841C39.2065 75.5841 38.1825 75.3681 37.2705 74.9361C36.3745 74.4881 35.6625 73.8241 35.1345 72.9441C34.6065 72.0641 34.3425 70.9761 34.3425 69.6801V69.2481C34.3425 67.9521 34.6065 66.8641 35.1345 65.9841C35.6625 65.0881 36.3745 64.4241 37.2705 63.9921C38.1825 63.5441 39.2065 63.3201 40.3425 63.3201C41.4785 63.3201 42.4945 63.5441 43.3905 63.9921C44.3025 64.4241 45.0145 65.0881 45.5265 65.9841C46.0545 66.8641 46.3185 67.9521 46.3185 69.2481V69.6801C46.3185 70.9761 46.0545 72.0641 45.5265 72.9441C45.0145 73.8241 44.3025 74.4881 43.3905 74.9361C42.4945 75.3681 41.4785 75.5841 40.3425 75.5841ZM40.3425 73.4001C41.3985 73.4001 42.2625 73.0801 42.9345 72.4401C43.6065 71.8001 43.9425 70.8721 43.9425 69.6561V69.2481C43.9425 68.0321 43.6065 67.1041 42.9345 66.4641C42.2625 65.8241 41.3985 65.5041 40.3425 65.5041C39.2705 65.5041 38.3985 65.8241 37.7265 66.4641C37.0705 67.1041 36.7425 68.0321 36.7425 69.2481V69.6561C36.7425 70.8721 37.0705 71.8001 37.7265 72.4401C38.3985 73.0801 39.2705 73.4001 40.3425 73.4001ZM33.3825 81.0801L33.2625 78.8961H37.2945C38.6545 78.8961 40.3185 78.8321 42.2865 78.7041C44.2545 78.5761 46.1105 78.4081 47.8545 78.2001L48.1185 80.3121C46.4705 80.5521 44.6385 80.7361 42.6225 80.8641C40.6225 81.0081 38.7745 81.0801 37.0785 81.0801H33.3825ZM72.4843 84.5361V62.2641H74.8843V84.5361H72.4843ZM64.0123 66.4641C64.0123 68.3681 63.7883 70.1601 63.3403 71.8401L69.9403 79.7361L68.1403 81.2721L62.4523 74.4081C61.3803 76.8881 59.7163 79.2561 57.4603 81.5121L55.7803 79.9041C57.8123 77.8561 59.3003 75.7681 60.2443 73.6401C61.2043 71.4961 61.6843 69.1041 61.6843 66.4641V63.5601H64.0123V66.4641ZM97.6421 73.1361H95.2661V68.0241H90.4421V65.8881H95.2661V62.2641H97.6421V73.1361ZM85.2341 69.2481C84.1461 70.7361 82.4021 72.1041 80.0021 73.3521L78.8021 71.4081C80.7701 70.3841 82.2101 69.2801 83.1221 68.0961C84.0501 66.9121 84.5141 65.5921 84.5141 64.1361V62.9121H86.8421V64.1361C86.8421 65.2881 86.6581 66.3281 86.2901 67.2561L92.4581 71.0721L91.2581 73.0161L85.2341 69.2481ZM85.3061 80.5041V82.6161H98.4581V84.6561H82.9061V78.5361H95.2661V76.5201H82.8101V74.5281H97.6421V80.5041H85.3061ZM125.035 70.6401H128.491V72.8241H125.035V84.5361H122.635V62.2641H125.035V70.6401ZM107.899 66.2001V64.0161H118.771V65.9841C118.771 69.1841 117.907 72.1441 116.179 74.8641C114.451 77.5681 112.011 79.9601 108.859 82.0401L107.395 80.1441C109.011 79.1041 110.427 77.9681 111.643 76.7361C112.859 75.4881 113.851 74.1761 114.619 72.8001C112.235 73.0241 110.035 73.1361 108.019 73.1361H107.563L107.443 70.9761H107.851C108.971 70.9601 110.283 70.9201 111.787 70.8561C113.291 70.7761 114.571 70.6881 115.627 70.5921C116.123 69.2481 116.371 67.8721 116.371 66.4641V66.2001H107.899ZM147.793 70.6401H151.249V72.8241H147.793V84.5361H145.393V62.2641H147.793V70.6401ZM130.657 66.2001V64.0161H141.529V65.9841C141.529 69.1841 140.665 72.1441 138.937 74.8641C137.209 77.5681 134.769 79.9601 131.617 82.0401L130.153 80.1441C131.769 79.1041 133.185 77.9681 134.401 76.7361C135.617 75.4881 136.609 74.1761 137.377 72.8001C134.993 73.0241 132.793 73.1361 130.777 73.1361H130.321L130.201 70.9761H130.609C131.729 70.9601 133.041 70.9201 134.545 70.8561C136.049 70.7761 137.329 70.6881 138.385 70.5921C138.881 69.2481 139.129 67.8721 139.129 66.4641V66.2001H130.657ZM164.382 80.6721H173.646V82.8561H152.718V80.6721H162.006V75.8001H161.454C160.142 75.8001 158.99 75.5281 157.998 74.9841C157.006 74.4401 156.238 73.6961 155.694 72.7521C155.15 71.8081 154.878 70.7521 154.878 69.5841C154.878 68.4321 155.15 67.3921 155.694 66.4641C156.238 65.5201 157.006 64.7761 157.998 64.2321C158.99 63.6881 160.142 63.4161 161.454 63.4161H164.934C166.246 63.4161 167.398 63.6881 168.39 64.2321C169.382 64.7761 170.15 65.5201 170.694 66.4641C171.238 67.3921 171.51 68.4321 171.51 69.5841C171.51 70.7521 171.238 71.8081 170.694 72.7521C170.15 73.6961 169.382 74.4401 168.39 74.9841C167.398 75.5281 166.246 75.8001 164.934 75.8001H164.382V80.6721ZM157.254 69.6081C157.254 70.8081 157.67 71.7841 158.502 72.5361C159.334 73.2881 160.462 73.6641 161.886 73.6641H164.502C165.926 73.6641 167.054 73.2881 167.886 72.5361C168.718 71.7841 169.134 70.8081 169.134 69.6081C169.134 68.4081 168.718 67.4401 167.886 66.7041C167.054 65.9521 165.926 65.5761 164.502 65.5761H161.886C160.462 65.5761 159.334 65.9521 158.502 66.7041C157.67 67.4401 157.254 68.4081 157.254 69.6081ZM192.564 84.5361V62.2641H194.892V84.5361H192.564ZM185.244 70.8561H187.908V62.6001H190.188V84.0801H187.908V73.0401H185.244V70.8561ZM184.116 78.4161C184.708 78.3681 185.492 78.2801 186.468 78.1521L186.684 80.2881C185.388 80.4961 183.972 80.6561 182.436 80.7681C180.9 80.8801 179.42 80.9361 177.996 80.9361H175.308L175.188 78.7281H177.132V66.1041H175.356V63.8961H185.868V66.1041H184.116V78.4161ZM181.98 66.1041H179.268V78.7041C179.796 78.7041 180.7 78.6721 181.98 78.6081V66.1041ZM217.314 84.5361H214.914V62.2641H217.314V84.5361ZM205.002 81.6321C203.242 81.6321 201.81 81.0241 200.706 79.8081C199.618 78.5761 199.074 76.6961 199.074 74.1681V70.7841C199.074 68.2561 199.618 66.3841 200.706 65.1681C201.81 63.9361 203.242 63.3201 205.002 63.3201C206.746 63.3201 208.162 63.9361 209.25 65.1681C210.338 66.3841 210.882 68.2561 210.882 70.7841V74.1681C210.882 76.6961 210.338 78.5761 209.25 79.8081C208.162 81.0241 206.746 81.6321 205.002 81.6321ZM205.002 79.4481C206.058 79.4481 206.906 79.0241 207.546 78.1761C208.186 77.3121 208.506 75.9681 208.506 74.1441V70.8081C208.506 68.9681 208.186 67.6241 207.546 66.7761C206.906 65.9281 206.058 65.5041 205.002 65.5041C203.93 65.5041 203.074 65.9281 202.434 66.7761C201.794 67.6241 201.474 68.9681 201.474 70.8081V74.1441C201.474 75.9681 201.794 77.3121 202.434 78.1761C203.09 79.0241 203.946 79.4481 205.002 79.4481ZM245.955 78.9441H243.579V69.2961H238.755V67.1601H243.579V62.2641H245.955V78.9441ZM233.571 70.6641C232.483 72.4721 230.779 74.1441 228.459 75.6801L227.115 73.8321C229.067 72.5201 230.499 71.1361 231.411 69.6801C232.339 68.2241 232.803 66.6001 232.803 64.8081V63.1041H235.155V64.8081C235.155 66.1681 234.955 67.4241 234.555 68.5761L240.771 73.5441L239.403 75.3441L233.571 70.6641ZM233.619 77.5521V82.3521H246.891V84.5361H231.243V77.5521H233.619ZM266.792 67.4001V62.2641H269.072V75.2241H266.792V69.5361H264.008V75.2241H261.8V62.5041H264.008V67.4001H266.792ZM260.312 74.0241C259.32 74.2161 258.304 74.3601 257.264 74.4561C256.224 74.5361 255.008 74.5761 253.616 74.5761H250.256V63.3201H259.064V65.4081H252.584V67.8321H258.848V69.8961H252.584V72.4881H254.048C256.032 72.4881 258.032 72.3281 260.048 72.0081L260.312 74.0241ZM266.672 78.8241H253.976V76.6161H269.072V84.7761H266.672V78.8241ZM278.918 73.5201C278.918 75.9521 278.462 78.2481 277.55 80.4081C276.654 82.5681 275.342 84.5521 273.614 86.3601L272.03 84.8961C275.102 81.4241 276.638 77.6321 276.638 73.5201C276.638 69.4081 275.102 65.6161 272.03 62.1441L273.614 60.6801C275.342 62.4881 276.654 64.4721 277.55 66.6321C278.462 68.7921 278.918 71.0881 278.918 73.5201Z" fill="black"/>
</svg>
