<svg width="326" height="54" viewBox="0 0 326 54" fill="none" xmlns="http://www.w3.org/2000/svg">
<path d="M17.136 20.7839L15.624 22.2959L13.176 19.8479C12.472 20.3279 11.696 20.6959 10.848 20.9519C10 21.2079 9.12003 21.3359 8.20803 21.3359C6.68803 21.3359 5.30403 20.9999 4.05603 20.3279C2.80803 19.6719 1.81603 18.7199 1.08003 17.4719C0.360027 16.2079 2.74181e-05 14.7199 2.74181e-05 13.0079V9.47993C2.74181e-05 7.78393 0.360027 6.31193 1.08003 5.06393C1.81603 3.79993 2.80803 2.83993 4.05603 2.18393C5.30403 1.51193 6.68803 1.17593 8.20803 1.17593C9.71203 1.17593 11.088 1.51193 12.336 2.18393C13.584 2.83993 14.576 3.79993 15.312 5.06393C16.048 6.31193 16.416 7.78393 16.416 9.47993V13.0079C16.416 14.0799 16.264 15.0719 15.96 15.9839C15.672 16.8799 15.256 17.6719 14.712 18.3599L17.136 20.7839ZM8.20803 19.1039C9.45603 19.1039 10.552 18.7919 11.496 18.1679L8.40003 15.0719L9.88803 13.5599L12.984 16.6559C13.656 15.6319 13.992 14.3599 13.992 12.8399V9.67193C13.992 8.34393 13.736 7.20793 13.224 6.26393C12.712 5.31993 12.016 4.60793 11.136 4.12793C10.256 3.64793 9.28003 3.40793 8.20803 3.40793C7.12003 3.40793 6.13603 3.64793 5.25603 4.12793C4.37603 4.60793 3.68003 5.31993 3.16803 6.26393C2.65603 7.19193 2.40003 8.32793 2.40003 9.67193V12.8399C2.40003 14.1839 2.65603 15.3279 3.16803 16.2719C3.68003 17.1999 4.37603 17.9039 5.25603 18.3839C6.13603 18.8639 7.12003 19.1039 8.20803 19.1039ZM35.0001 20.9759H32.2881L28.0881 12.8639H27.7041H22.6641V20.9759H20.2641V1.53593H27.7041C29.8801 1.53593 31.5601 2.02393 32.7441 2.99993C33.9281 3.97593 34.5201 5.37593 34.5201 7.19993C34.5201 8.60793 34.1681 9.76793 33.4641 10.6799C32.7601 11.5759 31.7441 12.1999 30.4161 12.5519L35.0001 20.9759ZM22.6641 3.67193V10.7279H27.5121C29.0321 10.7279 30.1761 10.4319 30.9441 9.83993C31.7281 9.24793 32.1201 8.36793 32.1201 7.19993C32.1201 6.03193 31.7281 5.15193 30.9441 4.55993C30.1761 3.96793 29.0321 3.67193 27.5121 3.67193H22.6641ZM52.7033 8.13593C51.1353 10.2799 48.5193 12.1999 44.8553 13.8959L43.7513 11.8319C46.6313 10.4559 48.7353 9.03993 50.0633 7.58393C51.3913 6.11193 52.0553 4.53593 52.0553 2.85593V1.15193H54.4553V2.85593C54.4553 3.99193 54.2473 5.07193 53.8313 6.09593L62.5193 11.9039L61.2233 13.8959L52.7033 8.13593ZM42.6713 20.5919V18.4079H63.5993V20.5919H42.6713ZM82.6131 7.72793H79.8051V15.9839H77.5971V0.215927H79.8051V5.59193H82.6131V-7.34329e-05H84.8691V16.6799H82.6131V7.72793ZM75.3891 2.66393C75.3891 5.30393 74.6771 7.56793 73.2531 9.45593C71.8451 11.3439 69.7411 12.9519 66.9411 14.2799L65.8611 12.5279C68.5331 11.2799 70.5091 9.72793 71.7891 7.87193C69.6771 8.06393 67.8531 8.15193 66.3171 8.13593H65.9331L65.8371 6.19193H66.2211C67.0851 6.19193 68.1651 6.16793 69.4611 6.11993C70.7571 6.05593 71.8691 5.98393 72.7971 5.90393C73.1171 5.02393 73.2771 4.12793 73.2771 3.21593H66.2931V1.17593H75.3891V2.66393ZM72.1731 15.2879V20.0879H85.8051V22.2719H69.7971V15.2879H72.1731ZM106.019 8.37593H109.475V10.5599H106.019V22.2719H103.619V-7.34329e-05H106.019V8.37593ZM93.5389 0.0239263H95.9629V3.28793H101.267V5.42393H88.2349V3.28793H93.5389V0.0239263ZM94.7869 7.41593C95.8109 7.41593 96.7389 7.63193 97.5709 8.06393C98.4029 8.49593 99.0589 9.11193 99.5389 9.91193C100.019 10.7119 100.259 11.6319 100.259 12.6719V13.9679C100.259 15.0079 100.019 15.9279 99.5389 16.7279C99.0589 17.5279 98.4029 18.1439 97.5709 18.5759C96.7389 19.0239 95.8109 19.2479 94.7869 19.2479C93.7629 19.2479 92.8269 19.0239 91.9789 18.5759C91.1469 18.1439 90.4829 17.5279 89.9869 16.7279C89.5069 15.9279 89.2669 15.0079 89.2669 13.9679V12.6719C89.2669 11.6319 89.5069 10.7119 89.9869 9.91193C90.4829 9.11193 91.1469 8.49593 91.9789 8.06393C92.8109 7.63193 93.7469 7.41593 94.7869 7.41593ZM97.8589 12.7679C97.8589 11.7919 97.5629 11.0159 96.9709 10.4399C96.3949 9.86393 95.6669 9.57593 94.7869 9.57593C93.8909 9.57593 93.1469 9.86393 92.5549 10.4399C91.9629 11.0159 91.6669 11.7919 91.6669 12.7679V13.8719C91.6669 14.8639 91.9629 15.6559 92.5549 16.2479C93.1469 16.8239 93.8909 17.1119 94.7869 17.1119C95.6669 17.1119 96.3949 16.8239 96.9709 16.2479C97.5629 15.6559 97.8589 14.8639 97.8589 13.8719V12.7679ZM127.049 3.91193H113.153V1.72793H129.425V3.67193C129.425 5.25593 129.321 7.03193 129.113 8.99993C128.905 10.9679 128.625 12.9199 128.273 14.8559L125.921 14.4719C126.257 12.6639 126.529 10.8159 126.737 8.92793C126.945 7.03993 127.049 5.51193 127.049 4.34393V3.91193ZM120.977 9.47993V18.4079H131.873V20.6159H110.945V18.4079H118.601V9.47993H120.977ZM136.199 25.1519H134.231L134.759 18.2159H137.183L136.199 25.1519ZM163.488 8.37593H166.944V10.5599H163.488V22.2719H161.088V-7.34329e-05H163.488V8.37593ZM146.352 3.93593V1.75193H157.224V3.71993C157.224 6.91993 156.36 9.87993 154.632 12.5999C152.904 15.3039 150.464 17.6959 147.312 19.7759L145.848 17.8799C147.464 16.8399 148.88 15.7039 150.096 14.4719C151.312 13.2239 152.304 11.9119 153.072 10.5359C150.688 10.7599 148.488 10.8719 146.472 10.8719H146.016L145.896 8.71193H146.304C147.424 8.69593 148.736 8.65593 150.24 8.59193C151.744 8.51193 153.024 8.42393 154.08 8.32793C154.576 6.98393 154.824 5.60793 154.824 4.19993V3.93593H146.352ZM186.245 8.37593H189.701V10.5599H186.245V22.2719H183.845V-7.34329e-05H186.245V8.37593ZM169.109 3.93593V1.75193H179.981V3.71993C179.981 6.91993 179.117 9.87993 177.389 12.5999C175.661 15.3039 173.221 17.6959 170.069 19.7759L168.605 17.8799C170.221 16.8399 171.637 15.7039 172.853 14.4719C174.069 13.2239 175.061 11.9119 175.829 10.5359C173.445 10.7599 171.245 10.8719 169.229 10.8719H168.773L168.653 8.71193H169.061C170.181 8.69593 171.493 8.65593 172.997 8.59193C174.501 8.51193 175.781 8.42393 176.837 8.32793C177.333 6.98393 177.581 5.60793 177.581 4.19993V3.93593H169.109ZM202.835 18.4079H212.099V20.5919H191.171V18.4079H200.459V13.5359H199.907C198.595 13.5359 197.443 13.2639 196.451 12.7199C195.459 12.1759 194.691 11.4319 194.147 10.4879C193.603 9.54393 193.331 8.48793 193.331 7.31993C193.331 6.16793 193.603 5.12793 194.147 4.19993C194.691 3.25593 195.459 2.51193 196.451 1.96793C197.443 1.42393 198.595 1.15193 199.907 1.15193H203.387C204.699 1.15193 205.851 1.42393 206.843 1.96793C207.835 2.51193 208.603 3.25593 209.147 4.19993C209.691 5.12793 209.963 6.16793 209.963 7.31993C209.963 8.48793 209.691 9.54393 209.147 10.4879C208.603 11.4319 207.835 12.1759 206.843 12.7199C205.851 13.2639 204.699 13.5359 203.387 13.5359H202.835V18.4079ZM195.707 7.34393C195.707 8.54393 196.123 9.51993 196.955 10.2719C197.787 11.0239 198.915 11.3999 200.339 11.3999H202.955C204.379 11.3999 205.507 11.0239 206.339 10.2719C207.171 9.51993 207.587 8.54393 207.587 7.34393C207.587 6.14393 207.171 5.17593 206.339 4.43993C205.507 3.68793 204.379 3.31193 202.955 3.31193H200.339C198.915 3.31193 197.787 3.68793 196.955 4.43993C196.123 5.17593 195.707 6.14393 195.707 7.34393ZM231.017 22.2719V-7.34329e-05H233.345V22.2719H231.017ZM223.697 8.59193H226.361V0.335927H228.641V21.8159H226.361V10.7759H223.697V8.59193ZM222.569 16.1519C223.161 16.1039 223.945 16.0159 224.921 15.8879L225.137 18.0239C223.841 18.2319 222.425 18.3919 220.889 18.5039C219.353 18.6159 217.873 18.6719 216.449 18.6719H213.761L213.641 16.4639H215.585V3.83993H213.809V1.63193H224.321V3.83993H222.569V16.1519ZM220.433 3.83993H217.721V16.4399C218.249 16.4399 219.153 16.4079 220.433 16.3439V3.83993ZM255.767 22.2719H253.367V-7.34329e-05H255.767V22.2719ZM243.455 19.3679C241.695 19.3679 240.263 18.7599 239.159 17.5439C238.071 16.3119 237.527 14.4319 237.527 11.9039V8.51993C237.527 5.99193 238.071 4.11993 239.159 2.90393C240.263 1.67193 241.695 1.05593 243.455 1.05593C245.199 1.05593 246.615 1.67193 247.703 2.90393C248.791 4.11993 249.335 5.99193 249.335 8.51993V11.9039C249.335 14.4319 248.791 16.3119 247.703 17.5439C246.615 18.7599 245.199 19.3679 243.455 19.3679ZM243.455 17.1839C244.511 17.1839 245.359 16.7599 245.999 15.9119C246.639 15.0479 246.959 13.7039 246.959 11.8799V8.54393C246.959 6.70393 246.639 5.35993 245.999 4.51193C245.359 3.66393 244.511 3.23993 243.455 3.23993C242.383 3.23993 241.527 3.66393 240.887 4.51193C240.247 5.35993 239.927 6.70393 239.927 8.54393V11.8799C239.927 13.7039 240.247 15.0479 240.887 15.9119C241.543 16.7599 242.399 17.1839 243.455 17.1839ZM276.149 8.59193V-7.34329e-05H278.525V22.2719H276.149V10.7759H271.565V18.6719H260.525V1.63193H271.565V8.59193H276.149ZM262.925 16.4639H269.189V3.83993H262.925V16.4639ZM301.283 22.2719H298.907V-7.34329e-05H301.283V22.2719ZM283.643 18.6479V1.63193H286.067V16.4639H287.915C289.195 16.4639 290.587 16.3999 292.091 16.2719C293.595 16.1439 295.059 15.9679 296.483 15.7439L296.771 17.8559C295.379 18.0959 293.875 18.2879 292.259 18.4319C290.659 18.5759 289.075 18.6479 287.507 18.6479H283.643ZM316.624 14.2319V18.4079H325.888V20.6159H304.96V18.4079H314.248V14.2319H307.528V6.79193H320.944V3.64793H307.408V1.48793H323.344V8.90393H309.928V12.1199H323.8V14.2319H316.624ZM74.4943 36.3999C73.8383 37.9519 72.6783 39.2239 71.0143 40.2159C69.3503 41.2079 67.1743 42.0159 64.4863 42.6399L63.2383 39.3039C65.5423 38.8079 67.3583 38.1919 68.6863 37.4559C70.0303 36.7199 70.8783 35.9199 71.2303 35.0559H63.9583V31.7679H75.0943V33.1359V33.4719H78.5743V30.9279H82.3183V41.8719H78.5743V40.7439H74.5903V37.8159H78.5743V36.3999H74.4943ZM70.3663 49.5039V50.7279H82.9183V53.5839H66.6223V46.7919H78.5743V45.6879H66.5023V42.9279H82.3183V49.5039H70.3663ZM101.908 53.4639V30.9279H105.532V53.4639H101.908ZM94.1802 38.5119H96.9882V31.2639H100.492V52.8879H96.9882V41.8959H94.1802V38.5119ZM92.3082 36.4959C92.3082 37.9519 92.2042 39.3119 91.9962 40.5759L96.4602 48.2559L93.4602 50.2959L90.6042 45.5199C89.9162 47.2319 88.9802 48.8959 87.7962 50.5119L84.8922 48.3039C86.2362 46.4159 87.2202 44.5199 87.8442 42.6159C88.4682 40.6959 88.7802 38.6559 88.7802 36.4959V35.8719H85.7802V32.4639H95.7162V35.8719H92.3082V36.4959ZM126.562 38.7519H129.586V42.1359H126.562V53.4639H122.818V30.9279H126.562V38.7519ZM112.738 30.9519H116.53V33.7599H121.306V37.0959H107.962V33.7599H112.738V30.9519ZM114.658 38.4879C115.73 38.4879 116.706 38.7199 117.586 39.1839C118.466 39.6319 119.154 40.2639 119.65 41.0799C120.162 41.8959 120.418 42.8399 120.418 43.9119V45.2319C120.418 46.3039 120.162 47.2479 119.65 48.0639C119.154 48.8799 118.466 49.5119 117.586 49.9599C116.706 50.4239 115.73 50.6559 114.658 50.6559C113.586 50.6559 112.61 50.4239 111.73 49.9599C110.85 49.5119 110.154 48.8799 109.642 48.0639C109.13 47.2479 108.874 46.3039 108.874 45.2319V43.9119C108.874 42.8399 109.13 41.8959 109.642 41.0799C110.154 40.2639 110.85 39.6319 111.73 39.1839C112.61 38.7199 113.586 38.4879 114.658 38.4879ZM116.674 44.0559C116.674 43.3519 116.482 42.8079 116.098 42.4239C115.73 42.0239 115.25 41.8239 114.658 41.8239C114.066 41.8239 113.578 42.0239 113.194 42.4239C112.81 42.8079 112.618 43.3519 112.618 44.0559V45.0879C112.618 45.7919 112.81 46.3439 113.194 46.7439C113.578 47.1439 114.066 47.3439 114.658 47.3439C115.25 47.3439 115.73 47.1439 116.098 46.7439C116.482 46.3439 116.674 45.7919 116.674 45.0879V44.0559ZM146.848 41.5599H143.368V43.7439H131.656V31.8879H143.368V33.5919H146.848V30.9279H150.616V47.3919H146.848V41.5599ZM135.28 40.4799H139.744V35.1519H135.28V40.4799ZM146.848 38.6319V36.5199H143.368V38.6319H146.848ZM138.64 45.9759V50.0799H151.312V53.4639H134.896V45.9759H138.64ZM165.814 40.3839C164.63 41.6479 162.878 42.7599 160.558 43.7199L158.878 40.5039C160.414 39.8479 161.59 39.1599 162.406 38.4399C163.238 37.7039 163.766 36.9119 163.99 36.0639H159.718V32.8239H164.134V30.7119H167.83V32.8239H172.366V36.0639H167.758C167.71 36.4959 167.63 36.9039 167.518 37.2879L173.182 39.9999L171.382 43.2639L165.814 40.3839ZM178.078 35.2239H181.078V38.6319H178.078V43.5279H174.31V30.9279H178.078V35.2239ZM178.078 53.4639H162.814V44.5599H178.078V53.4639ZM174.31 47.8239H166.582V50.1519H174.31V47.8239ZM198.363 30.9279H202.107V53.4639H198.363V45.8799H195.027C194.643 47.5119 193.931 48.7199 192.891 49.5039C191.851 50.2719 190.603 50.6559 189.147 50.6559C187.291 50.6559 185.787 50.0319 184.635 48.7839C183.499 47.5359 182.931 45.5919 182.931 42.9519V39.4719C182.931 36.8319 183.499 34.8879 184.635 33.6399C185.787 32.3919 187.291 31.7679 189.147 31.7679C190.427 31.7679 191.547 32.0719 192.507 32.6799C193.483 33.2879 194.211 34.2159 194.691 35.4639H198.363V30.9279ZM191.595 39.4719C191.595 37.9199 191.363 36.8159 190.899 36.1599C190.451 35.4879 189.867 35.1519 189.147 35.1519C188.411 35.1519 187.811 35.4879 187.347 36.1599C186.899 36.8159 186.675 37.9199 186.675 39.4719V42.9519C186.675 44.5039 186.899 45.6159 187.347 46.2879C187.811 46.9439 188.411 47.2719 189.147 47.2719C189.867 47.2719 190.451 46.9439 190.899 46.2879C191.363 45.6159 191.595 44.5039 191.595 42.9519V39.4719ZM195.339 42.4959H198.363V38.8479H195.315C195.331 38.9759 195.339 39.1839 195.339 39.4719V42.4959ZM229.833 30.9279V37.0959H232.617V40.5039H229.833V48.0879H226.065V30.9279H229.833ZM225.105 45.3519C223.457 45.5759 221.649 45.7519 219.681 45.8799C217.713 45.9919 215.881 46.0479 214.185 46.0479H210.873L210.705 42.8799H214.569C215.129 42.8799 215.561 42.8719 215.865 42.8559V41.2719C214.473 41.0319 213.369 40.5119 212.553 39.7119C211.753 38.8959 211.353 37.8239 211.353 36.4959V36.2559C211.353 34.6399 211.929 33.4079 213.081 32.5599C214.233 31.7119 215.745 31.2879 217.617 31.2879C219.489 31.2879 221.001 31.7119 222.153 32.5599C223.305 33.4079 223.881 34.6399 223.881 36.2559V36.4959C223.881 37.7759 223.497 38.8239 222.729 39.6399C221.961 40.4399 220.921 40.9679 219.609 41.2239V42.7119C221.721 42.5679 223.433 42.4079 224.745 42.2319L225.105 45.3519ZM214.977 36.4479C214.977 37.0719 215.217 37.5439 215.697 37.8639C216.193 38.1679 216.833 38.3199 217.617 38.3199C218.401 38.3199 219.033 38.1679 219.513 37.8639C219.993 37.5439 220.233 37.0719 220.233 36.4479V36.2559C220.233 35.6479 219.993 35.1839 219.513 34.8639C219.033 34.5439 218.401 34.3839 217.617 34.3839C216.833 34.3839 216.193 34.5439 215.697 34.8639C215.217 35.1839 214.977 35.6479 214.977 36.2559V36.4479ZM214.353 47.1519H218.097V50.0799H230.769V53.4639H214.353V47.1519ZM236.175 37.0479H249.039V35.5119H236.055V32.1999H252.783V40.2639H239.919V41.8959H253.263V45.1599H236.175V37.0479ZM250.047 46.3359V48.6159H255.135V52.0239H233.823V48.6159H238.935V46.3359H242.559V48.6159H246.423V46.3359H250.047ZM261.525 45.7839H258.069L257.685 31.7919H261.909L261.525 45.7839ZM259.797 52.4799C259.173 52.4799 258.637 52.2559 258.189 51.8079C257.757 51.3759 257.541 50.8479 257.541 50.2239C257.541 49.5999 257.757 49.0719 258.189 48.6399C258.637 48.1919 259.173 47.9679 259.797 47.9679C260.421 47.9679 260.949 48.1919 261.381 48.6399C261.829 49.0719 262.053 49.5999 262.053 50.2239C262.053 50.8479 261.829 51.3759 261.381 51.8079C260.949 52.2559 260.421 52.4799 259.797 52.4799Z" fill="black"/>
</svg>
