<svg width="258" height="54" viewBox="0 0 258 54" fill="none" xmlns="http://www.w3.org/2000/svg">
<path d="M16.0936 13.0799C14.7816 13.0799 13.6296 12.8239 12.6376 12.3119C11.6456 11.7839 10.8776 11.0639 10.3336 10.1519C9.78956 9.23993 9.51756 8.21593 9.51756 7.07993C9.51756 5.95993 9.78956 4.95193 10.3336 4.05593C10.8776 3.15993 11.6456 2.45593 12.6376 1.94393C13.6296 1.41593 14.7816 1.15193 16.0936 1.15193H19.5736C20.8856 1.15193 22.0376 1.41593 23.0296 1.94393C24.0216 2.45593 24.7896 3.15993 25.3336 4.05593C25.8776 4.95193 26.1496 5.95993 26.1496 7.07993C26.1496 8.21593 25.8776 9.23993 25.3336 10.1519C24.7896 11.0639 24.0216 11.7839 23.0296 12.3119C22.0376 12.8239 20.8856 13.0799 19.5736 13.0799H16.0936ZM16.5016 3.28793C15.0776 3.28793 13.9576 3.63993 13.1416 4.34393C12.3256 5.04793 11.9176 5.96793 11.9176 7.10393C11.9176 8.25593 12.3256 9.18393 13.1416 9.88793C13.9576 10.5919 15.0776 10.9439 16.5016 10.9439H19.1416C20.5656 10.9439 21.6936 10.5919 22.5256 9.88793C23.3576 9.18393 23.7736 8.25593 23.7736 7.10393C23.7736 5.96793 23.3576 5.04793 22.5256 4.34393C21.6936 3.63993 20.5656 3.28793 19.1416 3.28793H16.5016ZM22.9576 14.3519V18.4079H28.2856V20.5919H7.35756V18.4079H12.7096V14.3519H15.0616V18.4079H20.6296V14.3519H22.9576ZM51.0434 8.80793V10.9199H30.1154V8.80793H44.9954C45.1874 7.75193 45.3394 6.67993 45.4514 5.59193C45.5634 4.48793 45.6274 3.58393 45.6434 2.87993H32.6834V0.695926H48.0194V2.11193C48.0194 4.20793 47.8114 6.43993 47.3954 8.80793H51.0434ZM48.4994 22.2959H32.6834V13.6079H48.4994V22.2959ZM46.0994 15.6719H35.0834V20.1839H46.0994V15.6719ZM69.9612 22.2719V-7.34329e-05H72.2892V22.2719H69.9612ZM61.5852 8.13593H65.1372V0.335927H67.4172V21.8159H65.1372V10.3199H61.5852V8.13593ZM59.2812 5.13593C59.2812 6.71993 59.1212 8.28793 58.8012 9.83993L63.8412 17.6639L61.9452 18.9839L57.9612 12.7919C57.2092 14.9039 56.0332 17.0479 54.4332 19.2239L52.6092 17.8079C54.1132 15.8079 55.2332 13.7999 55.9692 11.7839C56.7052 9.76793 57.0732 7.55193 57.0732 5.13593V3.93593H53.4012V1.75193H63.0972V3.93593H59.2812V5.13593ZM93.463 8.37593H96.919V10.5599H93.463V22.2719H91.063V-7.34329e-05H93.463V8.37593ZM80.383 16.4639C82.975 16.4639 85.775 16.2319 88.783 15.7679L89.071 17.8799C86.047 18.3919 83.015 18.6479 79.975 18.6479H76.159V1.63193H78.583V16.4639H80.383ZM120.976 5.13593V-7.34329e-05H123.352V12.5039H120.976V7.27193H116.392V11.2799H105.352V1.05593H116.392V5.13593H120.976ZM107.68 9.16793H114.064V3.19193H107.68V9.16793ZM120.976 16.0799H108.4V13.8959H123.352V22.5119H120.976V16.0799ZM143.733 -7.34329e-05H146.109V22.2719H143.733V11.0159H137.541C136.709 12.6479 135.613 14.1919 134.253 15.6479C132.893 17.0879 131.301 18.4079 129.477 19.6079L128.037 17.7119C130.869 15.9039 133.045 13.7999 134.565 11.3999C136.101 8.99993 136.869 6.59993 136.869 4.19993V3.93593H128.517V1.75193H139.269V3.71993C139.269 5.47993 138.989 7.18393 138.429 8.83193H143.733V-7.34329e-05ZM168.867 22.2719H166.491V-7.34329e-05H168.867V22.2719ZM150.987 19.1039V9.19193H159.291V3.79193H150.987V1.63193H161.691V11.3039H153.387V16.9439H155.619C156.883 16.9439 158.259 16.8879 159.747 16.7759C161.251 16.6479 162.691 16.4719 164.067 16.2479L164.355 18.3359C163.059 18.5759 161.603 18.7599 159.987 18.8879C158.371 19.0319 156.771 19.1039 155.187 19.1039H150.987ZM190.092 4.96793C189.468 6.43993 188.332 7.69593 186.684 8.73593C185.036 9.77593 182.916 10.6399 180.324 11.3279L179.508 9.23993C182.132 8.56793 184.204 7.70393 185.724 6.64793C187.244 5.57593 188.084 4.42393 188.244 3.19193H179.988V1.05593H190.644V2.18393C190.644 2.39193 190.628 2.67193 190.596 3.02393H195.132V-7.34329e-05H197.532V10.8719H195.132V9.04793H190.092V7.10393H195.132V4.96793H190.092ZM185.196 18.2399V20.3519H198.348V22.3919H182.796V16.2719H195.132V14.2559H182.676V12.2639H197.532V18.2399H185.196ZM218.274 22.2719V-7.34329e-05H220.602V22.2719H218.274ZM209.898 8.13593H213.45V0.335927H215.73V21.8159H213.45V10.3199H209.898V8.13593ZM207.594 5.13593C207.594 6.71993 207.434 8.28793 207.114 9.83993L212.154 17.6639L210.258 18.9839L206.274 12.7919C205.522 14.9039 204.346 17.0479 202.746 19.2239L200.922 17.8079C202.426 15.8079 203.546 13.7999 204.282 11.7839C205.018 9.76793 205.386 7.55193 205.386 5.13593V3.93593H201.714V1.75193H211.41V3.93593H207.594V5.13593ZM246.506 22.2719V-7.34329e-05H248.906V22.2719H246.506ZM238.034 4.19993C238.034 6.10393 237.81 7.89593 237.362 9.57593L243.962 17.4719L242.162 19.0079L236.474 12.1439C235.402 14.6239 233.738 16.9919 231.482 19.2479L229.802 17.6399C231.834 15.5919 233.322 13.5039 234.266 11.3759C235.226 9.23193 235.706 6.83993 235.706 4.19993V1.29593H238.034V4.19993ZM10.5841 35.9679C9.96006 37.4399 8.82406 38.6959 7.17606 39.7359C5.52806 40.7759 3.40806 41.6399 0.816057 42.3279L5.67436e-05 40.2399C2.62406 39.5679 4.69606 38.7039 6.21606 37.6479C7.73606 36.5759 8.57606 35.4239 8.73606 34.1919H0.480057V32.0559H11.1361V33.1839C11.1361 33.3919 11.1201 33.6719 11.0881 34.0239H15.6241V30.9999H18.0241V41.8719H15.6241V40.0479H10.5841V38.1039H15.6241V35.9679H10.5841ZM5.68806 49.2399V51.3519H18.8401V53.3919H3.28806V47.2719H15.6241V45.2559H3.16806V43.2639H18.0241V49.2399H5.68806ZM38.7659 53.2719V30.9999H41.0939V53.2719H38.7659ZM30.3899 39.1359H33.9419V31.3359H36.2219V52.8159H33.9419V41.3199H30.3899V39.1359ZM28.0859 36.1359C28.0859 37.7199 27.9259 39.2879 27.6059 40.8399L32.6459 48.6639L30.7499 49.9839L26.7659 43.7919C26.0139 45.9039 24.8379 48.0479 23.2379 50.2239L21.4139 48.8079C22.9179 46.8079 24.0379 44.7999 24.7739 42.7839C25.5099 40.7679 25.8779 38.5519 25.8779 36.1359V34.9359H22.2059V32.7519H31.9019V34.9359H28.0859V36.1359ZM54.3717 37.5519C52.8197 39.3439 50.2757 40.9039 46.7397 42.2319L45.7797 40.1439C48.5477 39.0719 50.5797 37.9199 51.8757 36.6879C53.1717 35.4559 53.8197 34.1359 53.8197 32.7279V31.3599H56.2197V32.7279C56.2197 33.7359 56.0197 34.6879 55.6197 35.5839L64.0197 40.2159L62.8677 42.2319L54.3717 37.5519ZM44.4357 44.7279H65.3637V46.8879H56.0997V53.5119H53.7237V46.8879H44.4357V44.7279ZM85.0255 30.9999V36.5919H88.4815V38.7519H85.0255V47.6799H82.6255V30.9999H85.0255ZM80.6335 43.0239C79.2735 43.2639 77.8015 43.4479 76.2175 43.5759C74.6495 43.7039 73.0975 43.7679 71.5615 43.7679H67.7215V32.1759H78.5455V34.2879H70.0735V41.6319H71.9935C73.2415 41.6319 74.6015 41.5759 76.0735 41.4639C77.5615 41.3359 78.9855 41.1679 80.3455 40.9599L80.6335 43.0239ZM70.7695 46.2879H73.1455V51.0879H86.1775V53.2719H70.7695V46.2879ZM113.666 39.3759H117.122V41.5599H113.666V53.2719H111.266V30.9999H113.666V39.3759ZM96.5301 34.9359V32.7519H107.402V34.7199C107.402 37.9199 106.538 40.8799 104.81 43.5999C103.082 46.3039 100.642 48.6959 97.4901 50.7759L96.0261 48.8799C97.6421 47.8399 99.0581 46.7039 100.274 45.4719C101.49 44.2239 102.482 42.9119 103.25 41.5359C100.866 41.7599 98.6661 41.8719 96.6501 41.8719H96.1941L96.0741 39.7119H96.4821C97.6021 39.6959 98.9141 39.6559 100.418 39.5919C101.922 39.5119 103.202 39.4239 104.258 39.3279C104.754 37.9839 105.002 36.6079 105.002 35.1999V34.9359H96.5301ZM136.424 39.3759H139.88V41.5599H136.424V53.2719H134.024V30.9999H136.424V39.3759ZM119.288 34.9359V32.7519H130.16V34.7199C130.16 37.9199 129.296 40.8799 127.568 43.5999C125.84 46.3039 123.4 48.6959 120.248 50.7759L118.784 48.8799C120.4 47.8399 121.816 46.7039 123.032 45.4719C124.248 44.2239 125.24 42.9119 126.008 41.5359C123.624 41.7599 121.424 41.8719 119.408 41.8719H118.952L118.832 39.7119H119.24C120.36 39.6959 121.672 39.6559 123.176 39.5919C124.68 39.5119 125.96 39.4239 127.016 39.3279C127.512 37.9839 127.76 36.6079 127.76 35.1999V34.9359H119.288ZM153.014 49.4079H162.278V51.5919H141.35V49.4079H150.638V44.5359H150.086C148.774 44.5359 147.622 44.2639 146.63 43.7199C145.638 43.1759 144.87 42.4319 144.326 41.4879C143.782 40.5439 143.51 39.4879 143.51 38.3199C143.51 37.1679 143.782 36.1279 144.326 35.1999C144.87 34.2559 145.638 33.5119 146.63 32.9679C147.622 32.4239 148.774 32.1519 150.086 32.1519H153.566C154.878 32.1519 156.03 32.4239 157.022 32.9679C158.014 33.5119 158.782 34.2559 159.326 35.1999C159.87 36.1279 160.142 37.1679 160.142 38.3199C160.142 39.4879 159.87 40.5439 159.326 41.4879C158.782 42.4319 158.014 43.1759 157.022 43.7199C156.03 44.2639 154.878 44.5359 153.566 44.5359H153.014V49.4079ZM145.886 38.3439C145.886 39.5439 146.302 40.5199 147.134 41.2719C147.966 42.0239 149.094 42.3999 150.518 42.3999H153.134C154.558 42.3999 155.686 42.0239 156.518 41.2719C157.35 40.5199 157.766 39.5439 157.766 38.3439C157.766 37.1439 157.35 36.1759 156.518 35.4399C155.686 34.6879 154.558 34.3119 153.134 34.3119H150.518C149.094 34.3119 147.966 34.6879 147.134 35.4399C146.302 36.1759 145.886 37.1439 145.886 38.3439ZM181.196 53.2719V30.9999H183.524V53.2719H181.196ZM173.876 39.5919H176.54V31.3359H178.82V52.8159H176.54V41.7759H173.876V39.5919ZM172.748 47.1519C173.34 47.1039 174.124 47.0159 175.1 46.8879L175.316 49.0239C174.02 49.2319 172.604 49.3919 171.068 49.5039C169.532 49.6159 168.052 49.6719 166.628 49.6719H163.94L163.82 47.4639H165.764V34.8399H163.988V32.6319H174.5V34.8399H172.748V47.1519ZM170.612 34.8399H167.9V47.4399C168.428 47.4399 169.332 47.4079 170.612 47.3439V34.8399ZM205.945 53.2719H203.545V30.9999H205.945V53.2719ZM193.633 50.3679C191.873 50.3679 190.441 49.7599 189.337 48.5439C188.249 47.3119 187.705 45.4319 187.705 42.9039V39.5199C187.705 36.9919 188.249 35.1199 189.337 33.9039C190.441 32.6719 191.873 32.0559 193.633 32.0559C195.377 32.0559 196.793 32.6719 197.881 33.9039C198.969 35.1199 199.513 36.9919 199.513 39.5199V42.9039C199.513 45.4319 198.969 47.3119 197.881 48.5439C196.793 49.7599 195.377 50.3679 193.633 50.3679ZM193.633 48.1839C194.689 48.1839 195.537 47.7599 196.177 46.9119C196.817 46.0479 197.137 44.7039 197.137 42.8799V39.5439C197.137 37.7039 196.817 36.3599 196.177 35.5119C195.537 34.6639 194.689 34.2399 193.633 34.2399C192.561 34.2399 191.705 34.6639 191.065 35.5119C190.425 36.3599 190.105 37.7039 190.105 39.5439V42.8799C190.105 44.7039 190.425 46.0479 191.065 46.9119C191.721 47.7599 192.577 48.1839 193.633 48.1839ZM234.586 47.6799H232.21V38.0319H227.386V35.8959H232.21V30.9999H234.586V47.6799ZM222.202 39.3999C221.114 41.2079 219.41 42.8799 217.09 44.4159L215.746 42.5679C217.698 41.2559 219.13 39.8719 220.042 38.4159C220.97 36.9599 221.434 35.3359 221.434 33.5439V31.8399H223.786V33.5439C223.786 34.9039 223.586 36.1599 223.186 37.3119L229.402 42.2799L228.034 44.0799L222.202 39.3999ZM222.25 46.2879V51.0879H235.522V53.2719H219.874V46.2879H222.25ZM255.424 36.1359V30.9999H257.704V43.9599H255.424V38.2719H252.64V43.9599H250.432V31.2399H252.64V36.1359H255.424ZM248.944 42.7599C247.952 42.9519 246.936 43.0959 245.896 43.1919C244.856 43.2719 243.64 43.3119 242.248 43.3119H238.888V32.0559H247.696V34.1439H241.216V36.5679H247.48V38.6319H241.216V41.2239H242.68C244.664 41.2239 246.664 41.0639 248.68 40.7439L248.944 42.7599ZM255.304 47.5599H242.608V45.3519H257.704V53.5119H255.304V47.5599Z" fill="black"/>
</svg>
