<?xml version="1.0" encoding="UTF-8"?>
<svg id="Layer_2" data-name="Layer 2" xmlns="http://www.w3.org/2000/svg" viewBox="0 0 658.18 420.19">
  <g id="Layer_1-2" data-name="Layer 1">
    <g>
      <g>
        <g>
          <g>
            <path d="M123.06,112.09l48.66-3.19c-2.09,14.04-4.28,27.9-6.56,41.6-2.29,13.69-4.63,27.37-7.05,41.04l-16.25,1.07c1.11-6.01,2.17-12.02,3.18-18.03,1.01-6,2.04-12.21,3.08-18.61l-26.53,1.74v-13.51l28.68-1.88c.52-3.05,1-6.12,1.42-9.2.42-3.08.9-6.28,1.42-9.59l-30.05,1.97v-13.41ZM206.27,151.08l-11.06.73v37.3l-15.86,1.04v-81.84l15.86-1.04v31.03l11.06-.73v13.51Z" fill="#ff71c8"/>
            <path d="M211.16,106.31l48.66-3.19c-2.09,14.04-4.28,27.9-6.56,41.6-2.29,13.69-4.63,27.37-7.05,41.04l-16.25,1.07c1.11-6.01,2.17-12.02,3.18-18.03,1.01-6,2.04-12.21,3.08-18.61l-26.53,1.74v-13.51l28.68-1.88c.52-3.05.99-6.12,1.42-9.2.42-3.08.9-6.28,1.42-9.59l-30.05,1.97v-13.41ZM294.38,145.3l-11.06.73v37.3l-15.86,1.04v-81.84l15.86-1.04v31.03l11.06-.73v13.51Z" fill="#ff71c8"/>
            <path d="M328.25,166.87v-15.47l-1.57.1c-.52.03-1.04.04-1.57,0-3.26.15-6.28-.35-9.06-1.51-2.77-1.16-5.19-2.84-7.24-5.06s-3.67-4.9-4.85-8.05-1.76-6.69-1.76-10.6.6-7.54,1.81-10.89c1.21-3.34,2.84-6.26,4.89-8.74s4.47-4.47,7.25-5.96c2.77-1.49,5.76-2.34,8.96-2.55,2.81-.25,5.11-.45,6.9-.6,1.79-.15,3.49-.28,5.09-.38s3.29-.2,5.09-.28c1.79-.08,4.09-.19,6.9-.31,3.13-.14,6.1.37,8.91,1.52,2.81,1.15,5.25,2.82,7.34,5,2.09,2.18,3.74,4.85,4.94,8,1.21,3.15,1.81,6.68,1.81,10.6s-.6,7.53-1.81,10.84c-1.21,3.31-2.86,6.21-4.94,8.69-2.09,2.49-4.52,4.49-7.29,6.01-2.77,1.52-5.73,2.42-8.86,2.69-.59.1-1.13.17-1.62.2l-1.52.1v15.47l30.54-2v13.51l-79,5.18v-13.51l30.64-2.01ZM317.77,125.27c0,1.89.28,3.59.83,5.09.55,1.5,1.3,2.79,2.25,3.87.95,1.08,2.06,1.92,3.33,2.52s2.59.89,3.96.87c1.89,0,3.56-.04,4.99-.13l4.11-.27c1.3-.09,2.64-.19,4.01-.31,1.37-.12,3-.28,4.89-.47,1.37-.09,2.68-.52,3.92-1.29,1.24-.77,2.33-1.75,3.28-2.96.95-1.2,1.7-2.61,2.25-4.21.55-1.6.83-3.35.83-5.24s-.28-3.52-.83-5.09c-.55-1.56-1.32-2.88-2.3-3.96-.98-1.08-2.09-1.9-3.33-2.47-1.24-.57-2.54-.81-3.92-.72-1.76.05-3.33.1-4.7.16-1.37.06-2.71.13-4.01.21s-2.69.19-4.16.32c-1.47.13-3.15.29-5.04.48-1.37.16-2.69.6-3.96,1.34-1.27.74-2.38,1.71-3.33,2.91-.95,1.2-1.7,2.61-2.25,4.21-.56,1.6-.83,3.32-.83,5.15Z" fill="#ff71c8"/>
            <path d="M441.03,172.99l-14,.92v-33.87l-9.01.59-.98,19.45,6.27-.41v13.51l-42.39,2.78v-13.51l3.43-.22,2.54-49.8,13.8-.91-2.55,49.8,5.19-.34,2.64-49.81,13.61-.89-.78,15.23,8.22-.54v-32.89l14-.92v81.84ZM381.6,108.65v-13.51l41.31-2.71v13.51l-41.31,2.71ZM459.14,171.8l-14,.92v-81.84l14-.92v81.84Z" fill="#ff71c8"/>
            <path d="M521.6,102.31c-.59,9.11-1.24,17.72-1.96,25.83-.72,8.11-1.66,16.05-2.84,23.83-.52,3.23-1.52,5.92-2.99,8.08-1.47,2.15-3.23,3.88-5.29,5.19s-4.31,2.27-6.75,2.89c-2.45.62-4.91,1.01-7.39,1.17-3.26.21-6.31.14-9.15-.23-2.84-.37-5.29-1.16-7.34-2.36-2.06-1.2-3.64-2.84-4.75-4.93-1.11-2.08-1.53-4.73-1.27-7.94.72-7.81,1.39-15.57,2.01-23.28.62-7.71,1.48-15.87,2.59-24.5.46-3.62,1.43-6.62,2.94-9,1.5-2.38,3.33-4.31,5.48-5.79,2.15-1.48,4.54-2.55,7.15-3.21,2.61-.66,5.25-1.08,7.93-1.25s5.25-.07,7.93.31c2.68.38,5.07,1.17,7.2,2.37,2.12,1.2,3.8,2.83,5.04,4.91,1.24,2.07,1.73,4.72,1.47,7.93ZM501.62,148.47c.39-3.09.78-6.14,1.17-9.16.39-3.02.77-6.11,1.13-9.26.36-3.15.7-6.46,1.03-9.94.33-3.47.65-7.18.98-11.11.26-3.4-.28-5.73-1.62-6.98-1.34-1.25-2.92-1.81-4.75-1.69-.92.06-1.78.25-2.59.56-.82.31-1.58.84-2.3,1.57-.72.73-1.34,1.72-1.86,2.96-.52,1.24-.92,2.81-1.17,4.72-.52,3.81-.96,7.39-1.32,10.74-.36,3.35-.7,6.61-1.03,9.79-.33,3.18-.62,6.31-.88,9.39-.26,3.08-.52,6.23-.78,9.43-.13,1.64.02,2.91.44,3.83.42.92.98,1.58,1.66,1.99.69.41,1.43.64,2.25.68.82.04,1.58.04,2.3,0s1.47-.16,2.25-.34,1.52-.54,2.2-1.07c.69-.53,1.29-1.27,1.81-2.22.52-.95.88-2.24,1.08-3.88ZM546.95,166.04l-15.86,1.04v-81.84l15.86-1.04v81.84Z" fill="#ff71c8"/>
          </g>
          <g>
            <path d="M127.4,205.55l2.65-14.38c1.08-5.86,2.14-11.86,3.15-17.84.25-1.47.5-2.94.74-4.44l-24.36,1.6v-37.51l1.47-.1v-32.01l56.29-3.69v-.1l39.86-2.61v31.03l11.06-.73v37.51l-11.06.73v37.3l-79.8,5.23Z" fill="#231f20"/>
            <path d="M215.51,199.77l2.65-14.38c1.08-5.86,2.14-11.86,3.15-17.84.25-1.47.5-2.94.74-4.44l-24.36,1.6v-37.51l1.47-.1v-32.01l56.29-3.69v-.1l39.86-2.61v31.03l11.06-.73v37.51l-11.06.73v37.3l-79.8,5.23Z" fill="#231f20"/>
            <path d="M285.61,195.18v-37.51l17.47-1.15c-1.16-.94-2.26-1.97-3.29-3.08-3.03-3.26-5.41-7.2-7.09-11.7-1.65-4.43-2.49-9.36-2.49-14.66s.86-10.41,2.56-15.1c1.71-4.73,4.1-8.98,7.12-12.62,3.14-3.8,6.9-6.88,11.17-9.17,4.33-2.32,9.01-3.67,13.92-4.01,2.77-.25,5.05-.44,6.83-.59,1.88-.16,3.64-.29,5.31-.4s3.43-.21,5.31-.3c1.82-.09,4.13-.19,6.96-.31,4.8-.21,9.45.58,13.79,2.36,4.22,1.74,7.95,4.28,11.09,7.55,3.1,3.23,5.54,7.16,7.27,11.68,1.71,4.46,2.57,9.42,2.57,14.75s-.86,10.41-2.57,15.09c-1.72,4.72-4.15,8.97-7.21,12.61-1.03,1.22-2.12,2.37-3.26,3.45l17.55-1.15v37.51l-103,6.75ZM329.91,125.58c1.21,0,2.3-.04,3.23-.1l4.11-.27c1.21-.08,2.45-.18,3.71-.29.99-.09,2.11-.19,3.36-.32.05-.19.11-.54.11-1.08,0-.37-.03-.69-.1-.97-1.2.04-2.29.08-3.27.12-1.26.05-2.5.12-3.71.2s-2.52.18-3.9.3c-1.07.09-2.26.21-3.57.33-.07.26-.11.6-.11.98,0,.72.1,1.01.11,1.04,0,.02.02.04.02.06Z" fill="#231f20"/>
            <polygon points="415.03 186.69 415.03 185.71 368.92 188.74 368.92 151.23 372.94 150.96 374.47 121.12 369.6 121.43 369.6 83.93 415.03 80.95 415.03 80.85 471.14 77.17 471.14 183.01 415.03 186.69" fill="#231f20"/>
            <path d="M519.09,179.87v-8.21c-1.42,1.35-2.96,2.55-4.61,3.6-3.21,2.05-6.75,3.56-10.51,4.51-3.17.8-6.4,1.31-9.59,1.52-4.01.26-7.87.16-11.45-.3-4.35-.57-8.24-1.84-11.59-3.8-3.82-2.24-6.81-5.34-8.88-9.22-2.15-4.02-3.01-8.85-2.56-14.33v-.13c.71-7.65,1.39-15.44,2.01-23.15.63-7.88,1.53-16.31,2.66-25.08.68-5.41,2.3-10.19,4.81-14.17,2.45-3.9,5.54-7.14,9.17-9.63,3.42-2.35,7.21-4.06,11.27-5.08,3.32-.84,6.74-1.38,10.14-1.6s6.89-.09,10.36.4c3.13.45,6.07,1.28,8.77,2.5v-3.66l39.86-2.61v105.84l-39.86,2.61Z" fill="#231f20"/>
          </g>
          <g>
            <path d="M173.35,196.54v-59.35c-.75,4.68-1.51,9.32-2.28,13.92-2.27,13.6-4.65,27.43-7.06,41.1l-.88,5-28.5,1.87,1.33-7.19c1.09-5.89,2.15-11.92,3.17-17.93.63-3.76,1.27-7.6,1.92-11.52l-25.45,1.67v-25.51l29.58-1.94c.2-1.32.39-2.64.58-3.97.12-.89.25-1.79.38-2.69l-29.07,1.91v-25.41l56.29-3.69v-.1l27.86-1.83v31.03l11.06-.73v25.51l-11.06.73v37.3l-27.86,1.83Z" fill="#fff"/>
            <path d="M261.46,190.76v-59.35c-.75,4.68-1.51,9.33-2.28,13.92-2.28,13.64-4.65,27.46-7.06,41.1l-.88,5-28.5,1.87,1.33-7.19c1.09-5.89,2.15-11.92,3.17-17.93.63-3.76,1.27-7.6,1.92-11.52l-25.45,1.67v-25.51l29.58-1.94c.2-1.32.39-2.65.58-3.97.12-.89.25-1.79.38-2.69l-29.07,1.91v-25.41l56.29-3.69v-.1l27.86-1.83v31.03l11.06-.73v25.51l-11.06.73v37.3l-27.86,1.83Z" fill="#fff"/>
            <path d="M291.61,188.78v-25.51l30.64-2.01v-3.75c-3.1-.15-6.05-.8-8.8-1.94-3.49-1.45-6.57-3.6-9.15-6.38-2.54-2.73-4.54-6.06-5.97-9.88-1.41-3.78-2.12-8.03-2.12-12.63s.74-8.99,2.19-13c1.46-4.03,3.48-7.62,6.01-10.68,2.59-3.13,5.69-5.68,9.21-7.56,3.55-1.9,7.39-3,11.44-3.28,2.79-.25,5.08-.45,6.86-.6,1.83-.15,3.57-.28,5.2-.39s3.36-.2,5.2-.29c1.8-.09,4.11-.19,6.93-.31,3.96-.18,7.78.48,11.35,1.94,3.51,1.44,6.61,3.55,9.22,6.27,2.59,2.7,4.64,6.01,6.11,9.84,1.45,3.8,2.19,8.06,2.19,12.68s-.74,8.98-2.19,12.96c-1.46,4.01-3.51,7.59-6.08,10.65-2.61,3.11-5.7,5.65-9.17,7.55-2.72,1.49-5.6,2.52-8.6,3.07v3.76l30.54-2v25.51l-91,5.97ZM337.35,116.86c-1.27.08-2.61.19-4.03.31-1.44.13-3.1.28-4.97.47-.44.05-.92.22-1.44.51-.54.31-1.02.73-1.44,1.28-.49.62-.9,1.4-1.21,2.31-.33.94-.49,1.99-.49,3.12s.16,2.22.47,3.06c.32.86.73,1.58,1.23,2.15.46.52.96.91,1.56,1.19.48.23.93.33,1.4.32h.14c1.73,0,3.27-.03,4.58-.12l4.11-.27c1.26-.08,2.54-.18,3.86-.3,1.36-.12,2.97-.27,4.84-.46l.21-.02c.35-.02.66-.13,1.01-.35.58-.36,1.09-.82,1.56-1.42.49-.63.9-1.4,1.22-2.32.32-.94.49-2.02.49-3.22s-.16-2.19-.5-3.14c-.3-.85-.7-1.56-1.19-2.09-.49-.54-1-.92-1.57-1.19-.37-.17-.72-.24-1.12-.21h-.22c-1.74.06-3.28.11-4.63.17-1.31.05-2.61.12-3.86.21Z" fill="#fff"/>
            <polygon points="421.03 180.3 421.03 179.32 374.92 182.34 374.92 156.83 378.64 156.59 380.78 114.7 375.6 115.04 375.6 89.53 421.03 86.55 421.03 86.46 465.14 83.56 465.14 177.41 421.03 180.3" fill="#fff"/>
            <path d="M525.09,173.47v-39.72c-.65,6.35-1.44,12.63-2.36,18.73-.68,4.21-2.04,7.8-4.04,10.73-1.97,2.88-4.39,5.25-7.19,7.04-2.63,1.68-5.53,2.92-8.63,3.7-2.81.71-5.66,1.16-8.49,1.34-3.63.24-7.09.15-10.3-.27-3.59-.47-6.77-1.5-9.46-3.08-2.93-1.72-5.23-4.1-6.81-7.07-1.63-3.05-2.27-6.79-1.92-11.14.71-7.74,1.38-15.55,2.01-23.28.63-7.78,1.51-16.12,2.62-24.79.57-4.51,1.87-8.41,3.87-11.59,1.97-3.13,4.44-5.73,7.33-7.71,2.78-1.91,5.88-3.3,9.21-4.15,2.96-.75,6-1.23,9.03-1.43s6.08-.08,9.15.36c3.37.48,6.46,1.5,9.18,3.04,2.82,1.6,5.11,3.77,6.81,6.48v-11.03l27.86-1.83v93.84l-27.86,1.83ZM493.58,150.01c.24,0,.48,0,.7-.02.3-.02.63-.06.98-.13.02-.04.09-.15.09-.15,0,0,.19-.44.32-1.56.4-3.14.79-6.2,1.18-9.23.38-2.96.76-6.04,1.11-9.17.35-3.05.69-6.35,1.02-9.82.32-3.45.65-7.13.97-11.04.11-1.46-.01-2.21-.09-2.52-.1-.06-.18-.05-.29-.05-.25.02-.47.06-.67.12-.02.02-.05.04-.08.08,0,0-.21.23-.5.91-.17.41-.5,1.35-.74,3.13-.51,3.74-.95,7.29-1.3,10.56-.36,3.34-.7,6.59-1.03,9.77-.32,3.15-.62,6.27-.87,9.28-.26,3.08-.52,6.21-.78,9.41-.01.16-.02.31-.02.43Z" fill="#fff"/>
          </g>
          <g>
            <path d="M123.06,112.09l48.66-3.19c-2.09,14.04-4.28,27.9-6.56,41.6-2.29,13.69-4.63,27.37-7.05,41.04l-16.25,1.07c1.11-6.01,2.17-12.02,3.18-18.03,1.01-6,2.04-12.21,3.08-18.61l-26.53,1.74v-13.51l28.68-1.88c.52-3.05,1-6.12,1.42-9.2.42-3.08.9-6.28,1.42-9.59l-30.05,1.97v-13.41ZM206.27,151.08l-11.06.73v37.3l-15.86,1.04v-81.84l15.86-1.04v31.03l11.06-.73v13.51Z" fill="#231f20"/>
            <path d="M211.16,106.31l48.66-3.19c-2.09,14.04-4.28,27.9-6.56,41.6-2.29,13.69-4.63,27.37-7.05,41.04l-16.25,1.07c1.11-6.01,2.17-12.02,3.18-18.03,1.01-6,2.04-12.21,3.08-18.61l-26.53,1.74v-13.51l28.68-1.88c.52-3.05.99-6.12,1.42-9.2.42-3.08.9-6.28,1.42-9.59l-30.05,1.97v-13.41ZM294.38,145.3l-11.06.73v37.3l-15.86,1.04v-81.84l15.86-1.04v31.03l11.06-.73v13.51Z" fill="#231f20"/>
            <path d="M328.25,166.87v-15.47l-1.57.1c-.52.03-1.04.04-1.57,0-3.26.15-6.28-.35-9.06-1.51-2.77-1.16-5.19-2.84-7.24-5.06s-3.67-4.9-4.85-8.05-1.76-6.69-1.76-10.6.6-7.54,1.81-10.89c1.21-3.34,2.84-6.26,4.89-8.74s4.47-4.47,7.25-5.96c2.77-1.49,5.76-2.34,8.96-2.55,2.81-.25,5.11-.45,6.9-.6,1.79-.15,3.49-.28,5.09-.38s3.29-.2,5.09-.28c1.79-.08,4.09-.19,6.9-.31,3.13-.14,6.1.37,8.91,1.52,2.81,1.15,5.25,2.82,7.34,5,2.09,2.18,3.74,4.85,4.94,8,1.21,3.15,1.81,6.68,1.81,10.6s-.6,7.53-1.81,10.84c-1.21,3.31-2.86,6.21-4.94,8.69-2.09,2.49-4.52,4.49-7.29,6.01-2.77,1.52-5.73,2.42-8.86,2.69-.59.1-1.13.17-1.62.2l-1.52.1v15.47l30.54-2v13.51l-79,5.18v-13.51l30.64-2.01ZM317.77,125.27c0,1.89.28,3.59.83,5.09.55,1.5,1.3,2.79,2.25,3.87.95,1.08,2.06,1.92,3.33,2.52s2.59.89,3.96.87c1.89,0,3.56-.04,4.99-.13l4.11-.27c1.3-.09,2.64-.19,4.01-.31,1.37-.12,3-.28,4.89-.47,1.37-.09,2.68-.52,3.92-1.29,1.24-.77,2.33-1.75,3.28-2.96.95-1.2,1.7-2.61,2.25-4.21.55-1.6.83-3.35.83-5.24s-.28-3.52-.83-5.09c-.55-1.56-1.32-2.88-2.3-3.96-.98-1.08-2.09-1.9-3.33-2.47-1.24-.57-2.54-.81-3.92-.72-1.76.05-3.33.1-4.7.16-1.37.06-2.71.13-4.01.21s-2.69.19-4.16.32c-1.47.13-3.15.29-5.04.48-1.37.16-2.69.6-3.96,1.34-1.27.74-2.38,1.71-3.33,2.91-.95,1.2-1.7,2.61-2.25,4.21-.56,1.6-.83,3.32-.83,5.15Z" fill="#231f20"/>
            <path d="M441.03,172.99l-14,.92v-33.87l-9.01.59-.98,19.45,6.27-.41v13.51l-42.39,2.78v-13.51l3.43-.22,2.54-49.8,13.8-.91-2.55,49.8,5.19-.34,2.64-49.81,13.61-.89-.78,15.23,8.22-.54v-32.89l14-.92v81.84ZM381.6,108.65v-13.51l41.31-2.71v13.51l-41.31,2.71ZM459.14,171.8l-14,.92v-81.84l14-.92v81.84Z" fill="#231f20"/>
            <path d="M521.6,102.31c-.59,9.11-1.24,17.72-1.96,25.83-.72,8.11-1.66,16.05-2.84,23.83-.52,3.23-1.52,5.92-2.99,8.08-1.47,2.15-3.23,3.88-5.29,5.19s-4.31,2.27-6.75,2.89c-2.45.62-4.91,1.01-7.39,1.17-3.26.21-6.31.14-9.15-.23-2.84-.37-5.29-1.16-7.34-2.36-2.06-1.2-3.64-2.84-4.75-4.93-1.11-2.08-1.53-4.73-1.27-7.94.72-7.81,1.39-15.57,2.01-23.28.62-7.71,1.48-15.87,2.59-24.5.46-3.62,1.43-6.62,2.94-9,1.5-2.38,3.33-4.31,5.48-5.79,2.15-1.48,4.54-2.55,7.15-3.21,2.61-.66,5.25-1.08,7.93-1.25s5.25-.07,7.93.31c2.68.38,5.07,1.17,7.2,2.37,2.12,1.2,3.8,2.83,5.04,4.91,1.24,2.07,1.73,4.72,1.47,7.93ZM501.62,148.47c.39-3.09.78-6.14,1.17-9.16.39-3.02.77-6.11,1.13-9.26.36-3.15.7-6.46,1.03-9.94.33-3.47.65-7.18.98-11.11.26-3.4-.28-5.73-1.62-6.98-1.34-1.25-2.92-1.81-4.75-1.69-.92.06-1.78.25-2.59.56-.82.31-1.58.84-2.3,1.57-.72.73-1.34,1.72-1.86,2.96-.52,1.24-.92,2.81-1.17,4.72-.52,3.81-.96,7.39-1.32,10.74-.36,3.35-.7,6.61-1.03,9.79-.33,3.18-.62,6.31-.88,9.39-.26,3.08-.52,6.23-.78,9.43-.13,1.64.02,2.91.44,3.83.42.92.98,1.58,1.66,1.99.69.41,1.43.64,2.25.68.82.04,1.58.04,2.3,0s1.47-.16,2.25-.34,1.52-.54,2.2-1.07c.69-.53,1.29-1.27,1.81-2.22.52-.95.88-2.24,1.08-3.88ZM546.95,166.04l-15.86,1.04v-81.84l15.86-1.04v81.84Z" fill="#231f20"/>
          </g>
        </g>
        <g>
          <g>
            <g>
              <path d="M104.59,281.87l-15.86,1.04v-12.04l-13.12.86,2.94,9.89-14.39.94-6.56-21.5-1.66-5.86-1.86,5.8-9.2,23.12-17.52,1.15,11.94-29.66-10.87.71v-12.92l16.74-1.1,1.66-8.24,20.46-1.34-1.47,8.22,12.63-.83v12.92l-8.22.54,1.17,4.04,17.33-1.14v-23.89l15.86-1.04v50.32ZM69.06,300.26l-16.06,18.58-23.59,1.55,28.39-31.92,29.37-1.93,19.58,28.77-18.8,1.23-11.75-16.75-7.15.47Z" fill="#ff71c8"/>
              <path d="M219.13,262.42l-15.86,1.04v-5.68l-17.03,1.12-.98,5.55-17.03,1.12,4.6-24.87-28.88,1.89v-13.51l47.97-3.15-.78,4.55,12.14-.8v-4.6l15.86-1.04v38.38ZM220.01,295.84v12.04l-70.88,4.65v-27.12l53.06-3.48v-3.33l-53.06,3.48v-12.04l69.9-4.58v26.73l-52.96,3.47v3.72l53.94-3.54ZM188.1,247.71l15.17-.99v-5.97l-14.1.92-1.08,6.04Z" fill="#ff71c8"/>
              <path d="M263.77,234.72l2.06,17.58,9.59-.63v-31.23l14.88-.98v81.74l-14.88.98v-35.63l-7.93.52,3.92,34.4-13.9.91-4.01-34-1.17-15.59-1.76,15.58-5.97,34.85-15.27,1,13.02-68.11-11.65.76v-13.41l41.71-2.73v13.41l-8.62.56ZM309.69,299.95l-14.88.98v-81.74l14.88-.98v81.74Z" fill="#ff71c8"/>
              <path d="M326.04,284l16.35-1.07v16.94l-16.35,1.07v-16.94ZM343.27,214.14l-2.35,61.34-12.63.83-2.15-61.05,17.13-1.12Z" fill="#ff71c8"/>
            </g>
            <g>
              <polygon points="81.55 328.96 71.72 314.94 58.28 330.49 1.57 334.21 34.86 296.78 9.41 298.45 21.35 268.79 16.43 269.11 16.43 232.19 35.38 230.94 37.04 222.71 81.66 219.78 81.43 221.07 116.59 218.77 116.59 293.09 107.01 293.71 128.89 325.86 81.55 328.96" fill="#231f20"/>
              <polygon points="137.14 325.32 137.14 258.83 157.66 257.48 158.37 253.63 131.95 255.37 131.95 217.86 191.27 213.97 191.27 213.87 231.13 211.26 231.13 273.63 231.04 273.64 231.04 283.12 232.01 283.06 232.01 319.1 137.14 325.32" fill="#231f20"/>
              <polygon points="263.42 314.98 263.42 314 214.77 317.19 227.79 249.08 218.68 249.68 218.68 212.27 263.42 209.34 263.42 209.24 321.69 205.42 321.69 311.16 263.42 314.98" fill="#231f20"/>
              <polygon points="314.04 313.72 314.04 272.78 316.12 272.65 313.7 204.08 355.74 201.33 353.1 270.22 354.38 270.14 354.38 311.07 314.04 313.72" fill="#231f20"/>
            </g>
            <g>
              <path d="M84.75,322.75l-11.75-16.75-1.31.09-16.06,18.58-40.15,2.63,33.29-37.43-30.4,1.99,11.94-29.66-7.89.52v-24.92l17.85-1.17,1.66-8.24,32.54-2.13-1.47,8.22,9.73-.64v-6.85l27.86-1.83v62.32l-14.65.96,21.87,32.14-33.07,2.17ZM49,289.62l6.21-6.98,2.53-.17-2.56-8.39-6.18,15.53Z" fill="#fff"/>
              <polygon points="143.14 318.92 143.14 264.44 162.64 263.16 165.6 247.16 137.95 248.97 137.95 223.46 197.27 219.57 197.27 219.48 225.13 217.65 225.13 268.03 225.04 268.03 225.04 289.51 226.01 289.45 226.01 313.49 143.14 318.92" fill="#fff"/>
              <polygon points="269.42 308.59 269.42 307.61 252.17 308.74 251.15 300.08 249.64 308.91 222.04 310.72 235.06 242.61 224.68 243.29 224.68 217.88 269.42 214.94 269.42 214.84 315.69 211.81 315.69 305.56 269.42 308.59" fill="#fff"/>
              <polygon points="320.04 307.33 320.04 278.39 322.34 278.24 319.92 209.67 349.5 207.73 346.86 276.63 348.38 276.53 348.38 305.47 320.04 307.33" fill="#fff"/>
            </g>
            <g>
              <path d="M104.59,281.87l-15.86,1.04v-12.04l-13.12.86,2.94,9.89-14.39.94-6.56-21.5-1.66-5.86-1.86,5.8-9.2,23.12-17.52,1.15,11.94-29.66-10.87.71v-12.92l16.74-1.1,1.66-8.24,20.46-1.34-1.47,8.22,12.63-.83v12.92l-8.22.54,1.17,4.04,17.33-1.14v-23.89l15.86-1.04v50.32ZM69.06,300.26l-16.06,18.58-23.59,1.55,28.39-31.92,29.37-1.93,19.58,28.77-18.8,1.23-11.75-16.75-7.15.47Z" fill="#ff71c8"/>
              <path d="M219.13,262.42l-15.86,1.04v-5.68l-17.03,1.12-.98,5.55-17.03,1.12,4.6-24.87-28.88,1.89v-13.51l47.97-3.15-.78,4.55,12.14-.8v-4.6l15.86-1.04v38.38ZM220.01,295.84v12.04l-70.88,4.65v-27.12l53.06-3.48v-3.33l-53.06,3.48v-12.04l69.9-4.58v26.73l-52.96,3.47v3.72l53.94-3.54ZM188.1,247.71l15.17-.99v-5.97l-14.1.92-1.08,6.04Z" fill="#ff71c8"/>
              <path d="M263.77,234.72l2.06,17.58,9.59-.63v-31.23l14.88-.98v81.74l-14.88.98v-35.63l-7.93.52,3.92,34.4-13.9.91-4.01-34-1.17-15.59-1.76,15.58-5.97,34.85-15.27,1,13.02-68.11-11.65.76v-13.41l41.71-2.73v13.41l-8.62.56ZM309.69,299.95l-14.88.98v-81.74l14.88-.98v81.74Z" fill="#ff71c8"/>
              <path d="M326.04,284l16.35-1.07v16.94l-16.35,1.07v-16.94ZM343.27,214.14l-2.35,61.34-12.63.83-2.15-61.05,17.13-1.12Z" fill="#ff71c8"/>
            </g>
          </g>
          <g>
            <g>
              <path d="M435.91,226.28c-.59,9.11-1.24,17.72-1.96,25.83-.72,8.11-1.66,16.05-2.84,23.83-.52,3.23-1.5,5.92-2.94,8.07-1.44,2.15-3.15,3.88-5.14,5.18-1.99,1.31-4.19,2.27-6.61,2.88-2.42.61-4.86,1-7.34,1.17-3.26.21-6.3.13-9.1-.24-2.81-.37-5.22-1.16-7.24-2.36-2.02-1.21-3.56-2.85-4.6-4.94-1.04-2.08-1.44-4.73-1.17-7.95.72-7.81,1.39-15.57,2.01-23.28.62-7.71,1.48-15.87,2.59-24.5.46-3.62,1.42-6.62,2.89-9,1.47-2.38,3.25-4.31,5.34-5.78,2.09-1.47,4.42-2.54,7-3.2,2.58-.66,5.2-1.08,7.88-1.25s5.24-.07,7.88.32c2.64.38,4.99,1.17,7.05,2.38,2.06,1.2,3.69,2.84,4.89,4.92,1.21,2.07,1.68,4.72,1.42,7.93ZM415.94,272.44c.39-3.09.78-6.14,1.17-9.16.39-3.02.77-6.11,1.13-9.26.36-3.15.7-6.46,1.03-9.94.33-3.47.65-7.18.98-11.11.26-3.4-.21-5.73-1.42-6.99-1.21-1.26-2.73-1.83-4.55-1.71-.92.06-1.76.25-2.54.56-.78.31-1.5.83-2.15,1.56-.65.73-1.22,1.71-1.71,2.95-.49,1.24-.87,2.81-1.13,4.72-.52,3.81-.96,7.39-1.32,10.74-.36,3.35-.7,6.61-1.03,9.79-.33,3.18-.62,6.31-.88,9.39-.26,3.08-.52,6.23-.78,9.43-.13,1.64,0,2.92.39,3.83s.91,1.58,1.57,2c.65.41,1.35.64,2.1.69.75.05,1.48.05,2.2,0s1.45-.16,2.2-.34c.75-.18,1.44-.53,2.06-1.06.62-.53,1.17-1.27,1.66-2.21.49-.94.83-2.24,1.03-3.88ZM471.06,265.48l-10.96.72v23.89l-15.86,1.04v-81.84l15.86-1.04v17.92l10.96-.72v13.51l-10.96.72v13.02l10.96-.72v13.51Z" fill="#ff71c8"/>
              <path d="M478.69,249.81c0-3.65.7-6.75,2.11-9.29,1.4-2.54,3.26-4.63,5.58-6.29,2.32-1.65,4.96-2.9,7.93-3.75,2.97-.85,6.05-1.38,9.25-1.59,2.81-.25,4.89-.43,6.27-.56,1.37-.12,2.61-.22,3.72-.29s2.37-.14,3.77-.2c1.4-.06,3.51-.15,6.31-.27,3.13-.14,6.2.02,9.2.47,3,.46,5.68,1.34,8.03,2.66,2.35,1.31,4.23,3.15,5.63,5.5,1.4,2.36,2.1,5.36,2.1,9.02s-.7,6.75-2.1,9.29c-1.4,2.54-3.28,4.64-5.63,6.29-2.35,1.66-5.01,2.91-7.98,3.75-2.97.85-6.02,1.41-9.15,1.68-.13,0-.26.03-.39.08-.13.04-.26.07-.39.07v6.95l30.54-2v13.12l-79,5.18v-13.12l30.64-2.01v-6.95c-.26.02-.51.02-.73,0-.23-.02-.51-.02-.83,0-3.26.15-6.4,0-9.4-.46-3-.46-5.65-1.36-7.93-2.71-2.29-1.35-4.11-3.21-5.48-5.56-1.37-2.36-2.06-5.36-2.06-9.02ZM477.81,227.84v-12.53l24.96-1.64,3.92-9.95,22.71-1.49-3.92,9.95,23.59-1.55v12.53l-71.27,4.67ZM494.26,248.79c0,2.29.86,3.81,2.59,4.58,1.73.77,4,1.13,6.8,1.07,1.89,0,3.65-.04,5.29-.15l4.8-.31c1.57-.1,3.13-.22,4.7-.36,1.57-.13,3.29-.3,5.19-.49,2.74-.24,4.98-.88,6.71-1.91,1.73-1.03,2.59-2.68,2.59-4.97s-.88-3.82-2.64-4.62c-1.76-.8-4.01-1.11-6.75-.93-3.46.16-6.69.33-9.69.49-3,.16-6.4.44-10.18.81-2.81.32-5.08.95-6.8,1.91-1.73.96-2.59,2.59-2.59,4.87Z" fill="#ff71c8"/>
              <path d="M577.37,242.16c-.72.05-1.37.19-1.96.42-.59.23-1.14.61-1.66,1.14-.52.52-1.03,1.23-1.52,2.11-.49.88-1.03,2.03-1.62,3.43l-11.85-4.51c.59-2.19,1.42-4.24,2.5-6.14,1.08-1.9,2.36-3.58,3.87-5.05,1.5-1.47,3.23-2.66,5.19-3.57s4.08-1.44,6.36-1.59,4.47.25,6.36,1.2c1.89.95,3.69,2.01,5.38,3.17,1.7,1.16,3.36,2.21,4.99,3.15,1.63.94,3.36,1.35,5.19,1.23s3.46-.81,4.7-2.07c1.24-1.26,2.32-3.06,3.23-5.4l11.26,5.33c-.72,2.2-1.71,4.22-2.99,6.07s-2.77,3.45-4.5,4.8c-1.73,1.35-3.62,2.43-5.68,3.21s-4.26,1.19-6.61,1.22c-1.96,0-3.92-.31-5.87-.94-1.96-.62-3.75-1.5-5.38-2.63-.85-.53-1.63-1.08-2.35-1.66-.72-.57-1.44-1.08-2.15-1.52-.72-.44-1.47-.8-2.25-1.08-.78-.27-1.66-.38-2.64-.32Z" fill="#ff71c8"/>
              <path d="M628.48,264.17l16.35-1.07v16.94l-16.35,1.07v-16.94ZM645.71,194.31l-2.35,61.34-12.63.83-2.15-61.05,17.13-1.12Z" fill="#ff71c8"/>
            </g>
            <g>
              <path d="M432.23,303.91v-7.12c-.98.84-2.02,1.62-3.1,2.33-3.18,2.09-6.7,3.63-10.47,4.59-3.15.8-6.37,1.31-9.58,1.52-4.02.26-7.87.16-11.43-.31-4.34-.57-8.22-1.87-11.54-3.85-3.84-2.28-6.79-5.46-8.78-9.44-1.99-3.96-2.77-8.7-2.33-14.08v-.13c.71-7.65,1.39-15.44,2.01-23.15.63-7.88,1.53-16.31,2.66-25.08.68-5.37,2.26-10.11,4.69-14.06,2.4-3.89,5.42-7.14,8.96-9.64,3.38-2.39,7.16-4.12,11.24-5.16,3.3-.84,6.71-1.38,10.12-1.61s6.9-.09,10.34.41c2.55.37,4.97,1,7.22,1.9v-2.97l39.86-2.61v17.92l10.96-.72v64.04l-10.96.72v23.89l-39.86,2.61Z" fill="#231f20"/>
              <path d="M462.48,302.42v-37.12l7.48-.49c-2.17-3.98-3.27-8.76-3.27-14.22,0-3.62.49-7,1.46-10.12l-2.35.15v-36.53l28.87-1.89,3.92-9.95,48.6-3.19-3.92,9.95,17.8-1.17v36.53l-1.95.13c.97,2.99,1.46,6.31,1.46,9.93,0,5.45-1.11,10.37-3.31,14.65l8.21-.54v37.12l-103,6.75Z" fill="#231f20"/>
              <path d="M544.49,252.45l2.71-10.1c.87-3.23,2.12-6.31,3.73-9.15,1.68-2.97,3.74-5.65,6.12-7.97,2.56-2.5,5.52-4.55,8.82-6.09,3.37-1.57,7.01-2.49,10.82-2.74,4.44-.29,8.58.51,12.3,2.38,2.32,1.17,4.56,2.49,6.65,3.92.27.19.55.37.82.55l3.95-10.12,31.98,15.14-3.2,9.78c-1.1,3.37-2.66,6.54-4.64,9.4-2.03,2.94-4.47,5.54-7.24,7.71-2.74,2.15-5.79,3.87-9.04,5.11-2.88,1.1-5.93,1.77-9.07,1.97-.61.04-1.22.06-1.84.07h-.12c-3.15,0-6.3-.5-9.38-1.48-2.8-.89-5.43-2.14-7.82-3.73l-3.19,7.65-32.36-12.32Z" fill="#231f20"/>
              <polygon points="616.48 293.89 616.48 252.95 618.56 252.82 616.14 184.25 658.18 181.5 655.54 250.39 656.82 250.31 656.82 291.24 616.48 293.89" fill="#231f20"/>
            </g>
            <g>
              <path d="M438.23,297.52v-29.58c-.37,2.87-.76,5.71-1.19,8.51-.68,4.19-2,7.75-3.95,10.67-1.93,2.88-4.28,5.25-7.01,7.04-2.58,1.69-5.45,2.95-8.54,3.74-2.78.71-5.62,1.16-8.46,1.34-3.63.24-7.09.15-10.27-.27-3.57-.47-6.73-1.52-9.39-3.11-2.93-1.74-5.18-4.16-6.69-7.19-1.51-3.02-2.1-6.73-1.75-11.02.71-7.74,1.38-15.55,2.01-23.28.63-7.78,1.51-16.12,2.62-24.79.57-4.49,1.84-8.37,3.79-11.53,1.93-3.13,4.34-5.73,7.15-7.71,2.73-1.93,5.8-3.34,9.12-4.18,2.94-.75,5.96-1.23,9-1.43s6.07-.07,9.11.36c3.36.49,6.42,1.53,9.09,3.09,2.1,1.23,3.89,2.8,5.36,4.68v-9.18l27.86-1.83v17.92l10.96-.72v25.51l-10.96.72v1.02l10.96-.72v25.51l-10.96.72v23.89l-27.86,1.83ZM408.99,273.93c.2-.01.41-.04.62-.07l.02-.03s.21-.46.36-1.71c.4-3.14.79-6.2,1.18-9.23.38-2.96.76-6.04,1.11-9.17.35-3.1.69-6.4,1.02-9.82.32-3.45.65-7.13.97-11.04.11-1.39.02-2.19-.05-2.58-.13.01-.24.03-.35.05-.09.14-.25.41-.44.9-.21.52-.5,1.52-.74,3.25-.51,3.74-.95,7.29-1.3,10.56-.36,3.34-.7,6.59-1.03,9.77-.32,3.15-.62,6.27-.87,9.28-.26,3.08-.52,6.21-.78,9.41-.01.17-.02.32-.03.45.1,0,.21,0,.31-.02Z" fill="#fff"/>
              <path d="M468.48,296.03v-25.12l14.98-.98c-.18-.1-.36-.2-.53-.31-3.08-1.82-5.58-4.35-7.42-7.52-1.87-3.22-2.82-7.22-2.82-11.9s.98-8.85,2.9-12.33c.81-1.46,1.73-2.82,2.78-4.07l-6.56.43v-24.53l26.92-1.76,3.92-9.95,35.65-2.34-3.92,9.95,20.7-1.36v24.53l-6.18.41c1.05,1.11,1.99,2.35,2.79,3.7,1.93,3.24,2.9,7.25,2.9,11.95s-.98,8.84-2.9,12.33c-1.89,3.41-4.45,6.27-7.61,8.5-.16.11-.32.22-.48.33l15.88-1.04v25.12l-91,5.97ZM501.73,248.34c.6.06,1.33.1,2.21.08h.14c1.73,0,3.37-.04,4.87-.14l4.8-.31c1.52-.1,3.05-.22,4.57-.35,1.54-.13,3.24-.29,5.1-.48,1.04-.09,1.86-.24,2.5-.41-.62-.07-1.4-.1-2.38-.03h-.11c-3.44.17-6.66.33-9.65.49-.57.03-1.17.07-1.77.11-2.45.16-5.19.39-8.14.69-.84.09-1.54.22-2.13.35Z" fill="#fff"/>
              <path d="M599.2,256.26c-.5.03-1,.05-1.5.06-2.61,0-5.18-.41-7.69-1.21-2.43-.77-4.71-1.88-6.76-3.29-.99-.62-1.91-1.28-2.75-1.95-.54-.43-1.09-.82-1.61-1.14-.38-.23-.77-.42-1.18-.57,0,0-.03,0-.08,0-.06.09-.12.2-.2.33-.25.45-.68,1.3-1.3,2.78l-2.4,5.75-22.1-8.41,1.35-5.05c.73-2.7,1.77-5.28,3.12-7.64,1.38-2.43,3.06-4.62,4.99-6.51,2.02-1.98,4.38-3.61,7-4.83,2.66-1.24,5.55-1.97,8.59-2.17,3.39-.22,6.53.38,9.33,1.79,2.1,1.06,4.13,2.25,6.02,3.54,1.57,1.08,3.13,2.06,4.62,2.92.66.38,1.28.54,1.96.49.45-.03.54-.12.57-.16.34-.34,1.02-1.21,1.79-3.18l2.5-6.41,21.62,10.24-1.6,4.89c-.91,2.78-2.19,5.39-3.81,7.74-1.65,2.39-3.62,4.5-5.87,6.25-2.23,1.75-4.71,3.15-7.36,4.16-2.29.88-4.73,1.41-7.25,1.57Z" fill="#fff"/>
              <polygon points="622.48 287.5 622.48 258.56 624.78 258.41 622.36 189.84 651.94 187.9 649.3 256.8 650.82 256.7 650.82 285.64 622.48 287.5" fill="#fff"/>
            </g>
            <g>
              <path d="M435.91,226.28c-.59,9.11-1.24,17.72-1.96,25.83-.72,8.11-1.66,16.05-2.84,23.83-.52,3.23-1.5,5.92-2.94,8.07-1.44,2.15-3.15,3.88-5.14,5.18-1.99,1.31-4.19,2.27-6.61,2.88-2.42.61-4.86,1-7.34,1.17-3.26.21-6.3.13-9.1-.24-2.81-.37-5.22-1.16-7.24-2.36-2.02-1.21-3.56-2.85-4.6-4.94-1.04-2.08-1.44-4.73-1.17-7.95.72-7.81,1.39-15.57,2.01-23.28.62-7.71,1.48-15.87,2.59-24.5.46-3.62,1.42-6.62,2.89-9,1.47-2.38,3.25-4.31,5.34-5.78,2.09-1.47,4.42-2.54,7-3.2,2.58-.66,5.2-1.08,7.88-1.25s5.24-.07,7.88.32c2.64.38,4.99,1.17,7.05,2.38,2.06,1.2,3.69,2.84,4.89,4.92,1.21,2.07,1.68,4.72,1.42,7.93ZM415.94,272.44c.39-3.09.78-6.14,1.17-9.16.39-3.02.77-6.11,1.13-9.26.36-3.15.7-6.46,1.03-9.94.33-3.47.65-7.18.98-11.11.26-3.4-.21-5.73-1.42-6.99-1.21-1.26-2.73-1.83-4.55-1.71-.92.06-1.76.25-2.54.56-.78.31-1.5.83-2.15,1.56-.65.73-1.22,1.71-1.71,2.95-.49,1.24-.87,2.81-1.13,4.72-.52,3.81-.96,7.39-1.32,10.74-.36,3.35-.7,6.61-1.03,9.79-.33,3.18-.62,6.31-.88,9.39-.26,3.08-.52,6.23-.78,9.43-.13,1.64,0,2.92.39,3.83s.91,1.58,1.57,2c.65.41,1.35.64,2.1.69.75.05,1.48.05,2.2,0s1.45-.16,2.2-.34c.75-.18,1.44-.53,2.06-1.06.62-.53,1.17-1.27,1.66-2.21.49-.94.83-2.24,1.03-3.88ZM471.06,265.48l-10.96.72v23.89l-15.86,1.04v-81.84l15.86-1.04v17.92l10.96-.72v13.51l-10.96.72v13.02l10.96-.72v13.51Z" fill="#ff71c8"/>
              <path d="M478.69,249.81c0-3.65.7-6.75,2.11-9.29,1.4-2.54,3.26-4.63,5.58-6.29,2.32-1.65,4.96-2.9,7.93-3.75,2.97-.85,6.05-1.38,9.25-1.59,2.81-.25,4.89-.43,6.27-.56,1.37-.12,2.61-.22,3.72-.29s2.37-.14,3.77-.2c1.4-.06,3.51-.15,6.31-.27,3.13-.14,6.2.02,9.2.47,3,.46,5.68,1.34,8.03,2.66,2.35,1.31,4.23,3.15,5.63,5.5,1.4,2.36,2.1,5.36,2.1,9.02s-.7,6.75-2.1,9.29c-1.4,2.54-3.28,4.64-5.63,6.29-2.35,1.66-5.01,2.91-7.98,3.75-2.97.85-6.02,1.41-9.15,1.68-.13,0-.26.03-.39.08-.13.04-.26.07-.39.07v6.95l30.54-2v13.12l-79,5.18v-13.12l30.64-2.01v-6.95c-.26.02-.51.02-.73,0-.23-.02-.51-.02-.83,0-3.26.15-6.4,0-9.4-.46-3-.46-5.65-1.36-7.93-2.71-2.29-1.35-4.11-3.21-5.48-5.56-1.37-2.36-2.06-5.36-2.06-9.02ZM477.81,227.84v-12.53l24.96-1.64,3.92-9.95,22.71-1.49-3.92,9.95,23.59-1.55v12.53l-71.27,4.67ZM494.26,248.79c0,2.29.86,3.81,2.59,4.58,1.73.77,4,1.13,6.8,1.07,1.89,0,3.65-.04,5.29-.15l4.8-.31c1.57-.1,3.13-.22,4.7-.36,1.57-.13,3.29-.3,5.19-.49,2.74-.24,4.98-.88,6.71-1.91,1.73-1.03,2.59-2.68,2.59-4.97s-.88-3.82-2.64-4.62c-1.76-.8-4.01-1.11-6.75-.93-3.46.16-6.69.33-9.69.49-3,.16-6.4.44-10.18.81-2.81.32-5.08.95-6.8,1.91-1.73.96-2.59,2.59-2.59,4.87Z" fill="#ff71c8"/>
              <path d="M577.37,242.16c-.72.05-1.37.19-1.96.42-.59.23-1.14.61-1.66,1.14-.52.52-1.03,1.23-1.52,2.11-.49.88-1.03,2.03-1.62,3.43l-11.85-4.51c.59-2.19,1.42-4.24,2.5-6.14,1.08-1.9,2.36-3.58,3.87-5.05,1.5-1.47,3.23-2.66,5.19-3.57s4.08-1.44,6.36-1.59,4.47.25,6.36,1.2c1.89.95,3.69,2.01,5.38,3.17,1.7,1.16,3.36,2.21,4.99,3.15,1.63.94,3.36,1.35,5.19,1.23s3.46-.81,4.7-2.07c1.24-1.26,2.32-3.06,3.23-5.4l11.26,5.33c-.72,2.2-1.71,4.22-2.99,6.07s-2.77,3.45-4.5,4.8c-1.73,1.35-3.62,2.43-5.68,3.21s-4.26,1.19-6.61,1.22c-1.96,0-3.92-.31-5.87-.94-1.96-.62-3.75-1.5-5.38-2.63-.85-.53-1.63-1.08-2.35-1.66-.72-.57-1.44-1.08-2.15-1.52-.72-.44-1.47-.8-2.25-1.08-.78-.27-1.66-.38-2.64-.32Z" fill="#ff71c8"/>
              <path d="M628.48,264.17l16.35-1.07v16.94l-16.35,1.07v-16.94ZM645.71,194.31l-2.35,61.34-12.63.83-2.15-61.05,17.13-1.12Z" fill="#ff71c8"/>
            </g>
          </g>
        </g>
      </g>
      <path d="M98.01,327.7l-3.69,6.02-29.22,45.53-1.86-26.02-10.49,15.82c-1.37,1.41-2.18,3.28-3.26,4.89-.99,1.48-2.23,2.83-3.16,4.61,2.22,3.59,4.32,7.2,6.7,10.54.63.88,1.2,2.1,1.8,3.08l4.41,7.12c.83,1.34,1.42,2.92,2.62,3.97.18.32.28.83.51,1.38l-1.97-.21c-4.81-.5-9.63-2.31-14.44-3.31-3.44-.71-6.81-2-10.32-2.4-.57-.07-1.59-.91-2.23-.44-1.36,1-1.86,2.85-2.7,4.13l-11.75,17.79.48-20.15c.03-1.32.28-2.74.08-4.18-2.33-.79-4.75-1.02-7.03-1.55l-12.47-2.9,20.79-16.72c.49-3.51.44-6.91.61-10.32l.47-9.39c.04-.86,1.1-2.1.14-2.85l-.05-.49c.44.91.71-4.2.2-3.49.05-.18.03-.38.11-.56.31-.18.48-.52.42-.81-.07-.37-.05-.86-.42-.94l-.06-.51c.17.04.36-.14.35-.41-.01-.6.31-.9.8-.9.33.88,1.08,1.54,1.65,2.39l5.25,7.9c1.9,2.86,3.69,6.09,5.76,8.87,3.8-2.5,6.82-5.68,10.22-8.18,5.23-3.85,10.2-8.13,15.32-12.11l9.92-7.7-.37,9.02c-.07,1.69-.6,3.42-.46,5.15.1,1.33-.56,2.85-.27,4.31.96-.07,1.24-1.36,1.83-1.76,2.04-1.42,3.54-3.48,5.31-5.2,5.74-5.57,11.58-11.12,16.98-17,.81-.89,2.13-1.47,2.92-2.42.28-.03.51.15.61.4Z" fill="#231f20"/>
      <path d="M534.33,76.67l4.71-5.25,36.98-39.49-2.88,25.93,13.18-13.66c1.61-1.14,2.74-2.83,4.09-4.21,1.24-1.27,2.71-2.38,3.95-3.97-1.53-3.93-2.95-7.86-4.69-11.57-.46-.98-.79-2.29-1.21-3.35l-3.05-7.8c-.58-1.47-.87-3.12-1.86-4.38-.12-.35-.12-.87-.25-1.45l1.9.56c4.63,1.36,9.05,4.01,13.6,5.87,3.25,1.32,6.34,3.19,9.72,4.22.55.17,1.4,1.18,2.11.84,1.51-.74,2.34-2.46,3.4-3.57l14.78-15.37-4.12,19.73c-.27,1.29-.78,2.65-.83,4.1,2.15,1.2,4.49,1.86,6.64,2.8l11.74,5.11-23.47,12.69c-1.12,3.37-1.69,6.72-2.47,10.04l-2.16,9.15c-.2.84-1.46,1.86-.65,2.78l-.04.49c-.27-.97-1.46,4-.83,3.4-.08.17-.1.37-.21.54-.34.12-.56.42-.56.72,0,.37-.1.85.25,1l-.04.51c-.16-.07-.38.07-.42.34-.09.59-.47.82-.95.74-.17-.92-.79-1.71-1.19-2.65l-3.73-8.72c-1.35-3.16-2.53-6.65-4.06-9.77-4.19,1.77-7.74,4.35-11.53,6.19-5.84,2.84-11.5,6.15-17.26,9.14l-11.15,5.78,2-8.8c.37-1.65,1.2-3.25,1.39-4.98.14-1.33,1.07-2.7,1.05-4.19-.95-.11-1.47,1.11-2.11,1.4-2.26,1.02-4.12,2.78-6.16,4.15-6.65,4.44-13.4,8.84-19.77,13.65-.96.72-2.36,1.06-3.31,1.86-.28-.02-.47-.24-.53-.5Z" fill="#231f20"/>
    </g>
  </g>
</svg>