<?xml version="1.0" encoding="UTF-8"?>
<svg id="Layer_2" data-name="Layer 2" xmlns="http://www.w3.org/2000/svg" viewBox="0 0 91.13 30.05">
  <g id="Layer_1-2" data-name="Layer 1">
    <g>
      <path d="M4.29,8.61c0,1.7,1.28,2.34,5.02,3.84,6.75,2.69,7.36,4,7.36,8.22v3.01c0,4.42-3.68,6.37-8.42,6.37S0,28.09,0,23.68v-3.49h4.13v3.1c0,2.05,1.76,3.26,4.19,3.26s4.22-1.22,4.22-3.26v-1.82c0-3.17-.61-3.65-5.28-5.5C.96,13.47.16,11.9.16,8.77v-2.4C.16,1.95,3.65,0,8.35,0s8.19,1.95,8.19,6.37v2.78h-4.13v-2.4c0-2.05-1.66-3.26-4.06-3.26s-4.06,1.12-4.06,3.17v1.95Z"/>
      <path d="M18.43.64h16.89v3.58h-6.34v25.18h-4.22V4.22h-6.33V.64Z"/>
      <path d="M37.92,29.41V.64h14.53v3.58h-10.37v8.7h10.05v3.49h-10.05v9.41h10.69v3.58h-14.85Z"/>
      <path d="M71.9,13.31c0,4.1-1.98,6.01-6.02,6.01h-6.18v10.08h-4.16V.64h10.33c4.03,0,6.02,1.82,6.02,5.92v6.75ZM59.71,15.84h4.74c2.37,0,3.33-.99,3.33-3.23v-5.25c0-2.24-.96-3.23-3.33-3.23h-4.74v11.71Z"/>
      <path d="M91.13,29.5h-4.16V6.34h-3.62v-3.1c2.18,0,3.81-1.09,3.81-2.69h3.97v28.96Z"/>
    </g>
  </g>
</svg>