<svg width="102" height="33" viewBox="0 0 102 33" fill="none" xmlns="http://www.w3.org/2000/svg">
<mask id="path-1-outside-1_6016_66" maskUnits="userSpaceOnUse" x="-0.420654" y="-0.359985" width="103" height="33" fill="black">
<rect fill="white" x="-0.420654" y="-0.359985" width="103" height="33"/>
<path d="M5.28797 7.72001V9.67201C5.28797 11.368 6.56797 12.008 10.312 13.512C17.064 16.2 17.672 17.512 17.672 21.736V24.744C17.672 29.16 13.992 31.112 9.25597 31.112C4.55197 31.112 0.999971 29.16 0.999971 24.744V21.256H5.12797V24.36C5.12797 26.408 6.88797 27.624 9.31997 27.624C11.848 27.624 13.544 26.408 13.544 24.36V22.536C13.544 19.368 12.936 18.888 8.26397 17.032C1.95997 14.536 1.15997 12.968 1.15997 9.83201V7.43201C1.15997 3.01601 4.64797 1.06401 9.35197 1.06401C14.024 1.06401 17.544 3.01601 17.544 7.43201V10.216H13.416V7.81601C13.416 5.76801 11.752 4.55201 9.35197 4.55201C6.88797 4.55201 5.28797 5.67201 5.28797 7.72001ZM19.418 5.28801V1.70401H36.314V5.28801H29.978V30.472H25.754V5.28801H19.418ZM53.7425 30.472H38.8945V1.70401H53.4225V5.28801H43.0545V13.992H53.1025V17.48H43.0545V26.888H53.7425V30.472ZM72.8715 7.62401V14.376C72.8715 18.472 70.8875 20.392 66.8555 20.392H60.6795V30.472H56.5195V1.70401H66.8555C70.8875 1.70401 72.8715 3.52801 72.8715 7.62401ZM60.6795 5.19201V16.904H65.4155C67.7835 16.904 68.7435 15.912 68.7435 13.672V8.42401C68.7435 6.18401 67.7835 5.19201 65.4155 5.19201H60.6795ZM92.4962 16.68L90.7682 16.552V13.384L92.6242 13.256C94.4482 13.128 96.4642 12.104 96.4642 10.216V7.46401C96.4642 5.54401 95.0242 4.23201 92.8802 4.23201C90.5762 4.23201 89.1682 5.54401 89.1682 7.46401V9.38401H85.1042V7.59201C85.1042 3.36801 88.4002 1.00001 92.8802 1.00001C97.2002 1.00001 100.528 3.36801 100.528 7.59201V9.99201C100.528 12.712 98.6402 14.344 96.6242 14.92C98.9602 15.56 100.816 16.936 100.816 20.168V24.616C100.816 28.84 97.3602 31.208 92.8482 31.208C88.3042 31.208 84.7842 28.84 84.7842 24.616V21.32H88.9442V24.648C88.9442 26.568 90.4802 27.88 92.8482 27.88C95.1842 27.88 96.6562 26.568 96.6562 24.648V19.944C96.6562 17.768 94.8962 16.776 92.4962 16.68Z"/>
</mask>
<path d="M5.28797 7.72001V9.67201C5.28797 11.368 6.56797 12.008 10.312 13.512C17.064 16.2 17.672 17.512 17.672 21.736V24.744C17.672 29.16 13.992 31.112 9.25597 31.112C4.55197 31.112 0.999971 29.16 0.999971 24.744V21.256H5.12797V24.36C5.12797 26.408 6.88797 27.624 9.31997 27.624C11.848 27.624 13.544 26.408 13.544 24.36V22.536C13.544 19.368 12.936 18.888 8.26397 17.032C1.95997 14.536 1.15997 12.968 1.15997 9.83201V7.43201C1.15997 3.01601 4.64797 1.06401 9.35197 1.06401C14.024 1.06401 17.544 3.01601 17.544 7.43201V10.216H13.416V7.81601C13.416 5.76801 11.752 4.55201 9.35197 4.55201C6.88797 4.55201 5.28797 5.67201 5.28797 7.72001ZM19.418 5.28801V1.70401H36.314V5.28801H29.978V30.472H25.754V5.28801H19.418ZM53.7425 30.472H38.8945V1.70401H53.4225V5.28801H43.0545V13.992H53.1025V17.48H43.0545V26.888H53.7425V30.472ZM72.8715 7.62401V14.376C72.8715 18.472 70.8875 20.392 66.8555 20.392H60.6795V30.472H56.5195V1.70401H66.8555C70.8875 1.70401 72.8715 3.52801 72.8715 7.62401ZM60.6795 5.19201V16.904H65.4155C67.7835 16.904 68.7435 15.912 68.7435 13.672V8.42401C68.7435 6.18401 67.7835 5.19201 65.4155 5.19201H60.6795ZM92.4962 16.68L90.7682 16.552V13.384L92.6242 13.256C94.4482 13.128 96.4642 12.104 96.4642 10.216V7.46401C96.4642 5.54401 95.0242 4.23201 92.8802 4.23201C90.5762 4.23201 89.1682 5.54401 89.1682 7.46401V9.38401H85.1042V7.59201C85.1042 3.36801 88.4002 1.00001 92.8802 1.00001C97.2002 1.00001 100.528 3.36801 100.528 7.59201V9.99201C100.528 12.712 98.6402 14.344 96.6242 14.92C98.9602 15.56 100.816 16.936 100.816 20.168V24.616C100.816 28.84 97.3602 31.208 92.8482 31.208C88.3042 31.208 84.7842 28.84 84.7842 24.616V21.32H88.9442V24.648C88.9442 26.568 90.4802 27.88 92.8482 27.88C95.1842 27.88 96.6562 26.568 96.6562 24.648V19.944C96.6562 17.768 94.8962 16.776 92.4962 16.68Z" fill="white"/>
<path d="M10.312 13.512L9.93921 14.4399L9.9421 14.4411L10.312 13.512ZM0.999971 21.256V20.256H-2.92063e-05V21.256H0.999971ZM5.12797 21.256H6.12797V20.256H5.12797V21.256ZM8.26397 17.032L8.63317 16.1027L8.6321 16.1022L8.26397 17.032ZM17.544 10.216V11.216H18.544V10.216H17.544ZM13.416 10.216H12.416V11.216H13.416V10.216ZM5.28797 7.72001H4.28797V9.67201H5.28797H6.28797V7.72001H5.28797ZM5.28797 9.67201H4.28797C4.28797 10.2287 4.3949 10.7612 4.67187 11.2608C4.94439 11.7525 5.34304 12.1425 5.81669 12.4791C6.72187 13.1224 8.10312 13.7024 9.93921 14.4399L10.312 13.512L10.6847 12.5841C8.77682 11.8177 7.64608 11.3256 6.97525 10.8489C6.6609 10.6255 6.50555 10.4436 6.42108 10.2912C6.34104 10.1468 6.28797 9.96333 6.28797 9.67201H5.28797ZM10.312 13.512L9.9421 14.4411C13.3415 15.7944 14.9447 16.7176 15.7566 17.6892C16.5015 18.5807 16.672 19.6278 16.672 21.736H17.672H18.672C18.672 19.6202 18.5384 17.8993 17.2913 16.4068C16.1112 14.9945 14.0345 13.9176 10.6818 12.5829L10.312 13.512ZM17.672 21.736H16.672V24.744H17.672H18.672V21.736H17.672ZM17.672 24.744H16.672C16.672 26.6284 15.9094 27.9098 14.6733 28.7601C13.3875 29.6445 11.5084 30.112 9.25597 30.112V31.112V32.112C11.7395 32.112 14.0684 31.6035 15.8067 30.4079C17.5945 29.1782 18.672 27.2756 18.672 24.744H17.672ZM9.25597 31.112V30.112C7.02048 30.112 5.18648 29.6449 3.93996 28.7666C2.74243 27.9228 1.99997 26.6425 1.99997 24.744H0.999971H-2.92063e-05C-2.92063e-05 27.2615 1.03351 29.1653 2.78798 30.4015C4.49346 31.6032 6.78746 32.112 9.25597 32.112V31.112ZM0.999971 24.744H1.99997V21.256H0.999971H-2.92063e-05V24.744H0.999971ZM0.999971 21.256V22.256H5.12797V21.256V20.256H0.999971V21.256ZM5.12797 21.256H4.12797V24.36H5.12797H6.12797V21.256H5.12797ZM5.12797 24.36H4.12797C4.12797 25.7053 4.72138 26.8144 5.7106 27.559C6.67236 28.2829 7.95011 28.624 9.31997 28.624V27.624V26.624C8.25783 26.624 7.43958 26.3571 6.91334 25.961C6.41456 25.5856 6.12797 25.0627 6.12797 24.36H5.12797ZM9.31997 27.624V28.624C10.7305 28.624 12.0203 28.2863 12.9834 27.5574C13.9765 26.8059 14.544 25.693 14.544 24.36H13.544H12.544C12.544 25.075 12.2634 25.5942 11.7765 25.9626C11.2596 26.3538 10.4375 26.624 9.31997 26.624V27.624ZM13.544 24.36H14.544V22.536H13.544H12.544V24.36H13.544ZM13.544 22.536H14.544C14.544 20.9317 14.4079 19.6468 13.3688 18.5906C12.8873 18.1013 12.2595 17.7097 11.5057 17.3343C10.7495 16.9578 9.79919 16.5659 8.63317 16.1027L8.26397 17.032L7.89478 17.9614C9.06475 18.4262 9.94248 18.7902 10.6143 19.1247C11.2884 19.4604 11.6887 19.7347 11.9432 19.9934C12.376 20.4333 12.544 20.9723 12.544 22.536H13.544ZM8.26397 17.032L8.6321 16.1022C5.48719 14.857 3.90908 13.9103 3.09073 13.0025C2.34914 12.1798 2.15997 11.3082 2.15997 9.83201H1.15997H0.159971C0.159971 11.4918 0.370804 12.9722 1.60522 14.3416C2.76286 15.6258 4.73676 16.711 7.89584 17.9618L8.26397 17.032ZM1.15997 9.83201H2.15997V7.43201H1.15997H0.159971V9.83201H1.15997ZM1.15997 7.43201H2.15997C2.15997 5.52649 2.89216 4.24704 4.07215 3.4065C5.30093 2.53121 7.11636 2.06401 9.35197 2.06401V1.06401V0.0640144C6.88358 0.0640144 4.60301 0.572823 2.91179 1.77753C1.17178 3.01698 0.159971 4.92153 0.159971 7.43201H1.15997ZM9.35197 1.06401V2.06401C11.5703 2.06401 13.387 2.53072 14.6208 3.40725C15.8064 4.24945 16.544 5.52978 16.544 7.43201H17.544H18.544C18.544 4.91825 17.5215 3.01458 15.7791 1.77678C14.085 0.573313 11.8056 0.0640144 9.35197 0.0640144V1.06401ZM17.544 7.43201H16.544V10.216H17.544H18.544V7.43201H17.544ZM17.544 10.216V9.21601H13.416V10.216V11.216H17.544V10.216ZM13.416 10.216H14.416V7.81601H13.416H12.416V10.216H13.416ZM13.416 7.81601H14.416C14.416 6.4917 13.8641 5.38232 12.9 4.62832C11.9622 3.8948 10.7089 3.55201 9.35197 3.55201V4.55201V5.55201C10.395 5.55201 11.1738 5.81722 11.6679 6.2037C12.1359 6.56971 12.416 7.09233 12.416 7.81601H13.416ZM9.35197 4.55201V3.55201C7.98534 3.55201 6.73049 3.86051 5.79237 4.57072C4.81811 5.3083 4.28797 6.40423 4.28797 7.72001H5.28797H6.28797C6.28797 6.98779 6.55783 6.49972 6.99957 6.1653C7.47745 5.80352 8.25461 5.55201 9.35197 5.55201V4.55201ZM19.418 5.28801H18.418V6.28801H19.418V5.28801ZM19.418 1.70401V0.704014H18.418V1.70401H19.418ZM36.314 1.70401H37.314V0.704014H36.314V1.70401ZM36.314 5.28801V6.28801H37.314V5.28801H36.314ZM29.978 5.28801V4.28801H28.978V5.28801H29.978ZM29.978 30.472V31.472H30.978V30.472H29.978ZM25.754 30.472H24.754V31.472H25.754V30.472ZM25.754 5.28801H26.754V4.28801H25.754V5.28801ZM19.418 5.28801H20.418V1.70401H19.418H18.418V5.28801H19.418ZM19.418 1.70401V2.70401H36.314V1.70401V0.704014H19.418V1.70401ZM36.314 1.70401H35.314V5.28801H36.314H37.314V1.70401H36.314ZM36.314 5.28801V4.28801H29.978V5.28801V6.28801H36.314V5.28801ZM29.978 5.28801H28.978V30.472H29.978H30.978V5.28801H29.978ZM29.978 30.472V29.472H25.754V30.472V31.472H29.978V30.472ZM25.754 30.472H26.754V5.28801H25.754H24.754V30.472H25.754ZM25.754 5.28801V4.28801H19.418V5.28801V6.28801H25.754V5.28801ZM53.7425 30.472V31.472H54.7425V30.472H53.7425ZM38.8945 30.472H37.8945V31.472H38.8945V30.472ZM38.8945 1.70401V0.704014H37.8945V1.70401H38.8945ZM53.4225 1.70401H54.4225V0.704014H53.4225V1.70401ZM53.4225 5.28801V6.28801H54.4225V5.28801H53.4225ZM43.0545 5.28801V4.28801H42.0545V5.28801H43.0545ZM43.0545 13.992H42.0545V14.992H43.0545V13.992ZM53.1025 13.992H54.1025V12.992H53.1025V13.992ZM53.1025 17.48V18.48H54.1025V17.48H53.1025ZM43.0545 17.48V16.48H42.0545V17.48H43.0545ZM43.0545 26.888H42.0545V27.888H43.0545V26.888ZM53.7425 26.888H54.7425V25.888H53.7425V26.888ZM53.7425 30.472V29.472H38.8945V30.472V31.472H53.7425V30.472ZM38.8945 30.472H39.8945V1.70401H38.8945H37.8945V30.472H38.8945ZM38.8945 1.70401V2.70401H53.4225V1.70401V0.704014H38.8945V1.70401ZM53.4225 1.70401H52.4225V5.28801H53.4225H54.4225V1.70401H53.4225ZM53.4225 5.28801V4.28801H43.0545V5.28801V6.28801H53.4225V5.28801ZM43.0545 5.28801H42.0545V13.992H43.0545H44.0545V5.28801H43.0545ZM43.0545 13.992V14.992H53.1025V13.992V12.992H43.0545V13.992ZM53.1025 13.992H52.1025V17.48H53.1025H54.1025V13.992H53.1025ZM53.1025 17.48V16.48H43.0545V17.48V18.48H53.1025V17.48ZM43.0545 17.48H42.0545V26.888H43.0545H44.0545V17.48H43.0545ZM43.0545 26.888V27.888H53.7425V26.888V25.888H43.0545V26.888ZM53.7425 26.888H52.7425V30.472H53.7425H54.7425V26.888H53.7425ZM60.6795 20.392V19.392H59.6795V20.392H60.6795ZM60.6795 30.472V31.472H61.6795V30.472H60.6795ZM56.5195 30.472H55.5195V31.472H56.5195V30.472ZM56.5195 1.70401V0.704014H55.5195V1.70401H56.5195ZM60.6795 5.19201V4.19201H59.6795V5.19201H60.6795ZM60.6795 16.904H59.6795V17.904H60.6795V16.904ZM72.8715 7.62401H71.8715V14.376H72.8715H73.8715V7.62401H72.8715ZM72.8715 14.376H71.8715C71.8715 16.278 71.4107 17.4765 70.6712 18.2101C69.9302 18.9452 68.7295 19.392 66.8555 19.392V20.392V21.392C69.0134 21.392 70.8208 20.8788 72.0797 19.63C73.3402 18.3796 73.8715 16.57 73.8715 14.376H72.8715ZM66.8555 20.392V19.392H60.6795V20.392V21.392H66.8555V20.392ZM60.6795 20.392H59.6795V30.472H60.6795H61.6795V20.392H60.6795ZM60.6795 30.472V29.472H56.5195V30.472V31.472H60.6795V30.472ZM56.5195 30.472H57.5195V1.70401H56.5195H55.5195V30.472H56.5195ZM56.5195 1.70401V2.70401H66.8555V1.70401V0.704014H56.5195V1.70401ZM66.8555 1.70401V2.70401C68.7418 2.70401 69.9426 3.13276 70.68 3.84652C71.4108 4.554 71.8715 5.7218 71.8715 7.62401H72.8715H73.8715C73.8715 5.43023 73.3401 3.63803 72.071 2.4095C70.8083 1.18727 69.0012 0.704014 66.8555 0.704014V1.70401ZM60.6795 5.19201H59.6795V16.904H60.6795H61.6795V5.19201H60.6795ZM60.6795 16.904V17.904H65.4155V16.904V15.904H60.6795V16.904ZM65.4155 16.904V17.904C66.7094 17.904 67.86 17.6376 68.6692 16.8404C69.4824 16.0394 69.7435 14.9077 69.7435 13.672H68.7435H67.7435C67.7435 14.6763 67.5246 15.1606 67.2657 15.4156C67.0029 15.6744 66.4896 15.904 65.4155 15.904V16.904ZM68.7435 13.672H69.7435V8.42401H68.7435H67.7435V13.672H68.7435ZM68.7435 8.42401H69.7435C69.7435 7.18832 69.4824 6.05661 68.6692 5.25561C67.86 4.45844 66.7094 4.19201 65.4155 4.19201V5.19201V6.19201C66.4896 6.19201 67.0029 6.42158 67.2657 6.68042C67.5246 6.93541 67.7435 7.4197 67.7435 8.42401H68.7435ZM65.4155 5.19201V4.19201H60.6795V5.19201V6.19201H65.4155V5.19201ZM92.4962 16.68L92.4223 17.6773L92.4393 17.6785L92.4563 17.6792L92.4962 16.68ZM90.7682 16.552H89.7682V17.4807L90.6944 17.5493L90.7682 16.552ZM90.7682 13.384L90.6994 12.3864L89.7682 12.4506V13.384H90.7682ZM92.6242 13.256L92.693 14.2536L92.6942 14.2536L92.6242 13.256ZM89.1682 9.38401V10.384H90.1682V9.38401H89.1682ZM85.1042 9.38401H84.1042V10.384H85.1042V9.38401ZM96.6242 14.92L96.3495 13.9585L92.9135 14.9402L96.36 15.8845L96.6242 14.92ZM84.7842 21.32V20.32H83.7842V21.32H84.7842ZM88.9442 21.32H89.9442V20.32H88.9442V21.32ZM92.4962 16.68L92.5701 15.6827L90.8421 15.5547L90.7682 16.552L90.6944 17.5493L92.4223 17.6773L92.4962 16.68ZM90.7682 16.552H91.7682V13.384H90.7682H89.7682V16.552H90.7682ZM90.7682 13.384L90.837 14.3816L92.693 14.2536L92.6242 13.256L92.5554 12.2584L90.6994 12.3864L90.7682 13.384ZM92.6242 13.256L92.6942 14.2536C93.747 14.1797 94.8896 13.8482 95.7984 13.2176C96.7252 12.5744 97.4642 11.569 97.4642 10.216H96.4642H95.4642C95.4642 10.751 95.1953 11.2016 94.6581 11.5745C94.1028 11.9598 93.3254 12.2043 92.5542 12.2585L92.6242 13.256ZM96.4642 10.216H97.4642V7.46401H96.4642H95.4642V10.216H96.4642ZM96.4642 7.46401H97.4642C97.4642 6.2402 96.9982 5.15622 96.147 4.38637C95.3041 3.62401 94.1548 3.23201 92.8802 3.23201V4.23201V5.23201C93.7496 5.23201 94.3923 5.49602 94.8054 5.86966C95.2103 6.23581 95.4642 6.76783 95.4642 7.46401H96.4642ZM92.8802 4.23201V3.23201C91.5424 3.23201 90.3591 3.6145 89.4964 4.38009C88.6228 5.15545 88.1682 6.2457 88.1682 7.46401H89.1682H90.1682C90.1682 6.76233 90.4176 6.23658 90.824 5.87594C91.2414 5.50553 91.9141 5.23201 92.8802 5.23201V4.23201ZM89.1682 7.46401H88.1682V9.38401H89.1682H90.1682V7.46401H89.1682ZM89.1682 9.38401V8.38401H85.1042V9.38401V10.384H89.1682V9.38401ZM85.1042 9.38401H86.1042V7.59201H85.1042H84.1042V9.38401H85.1042ZM85.1042 7.59201H86.1042C86.1042 5.76629 86.8037 4.40993 87.9413 3.48936C89.1033 2.54901 90.8054 2.00001 92.8802 2.00001V1.00001V1.33514e-05C90.475 1.33514e-05 88.2891 0.635015 86.6832 1.93466C85.0527 3.25409 84.1042 5.19374 84.1042 7.59201H85.1042ZM92.8802 1.00001V2.00001C94.8676 2.00001 96.5386 2.54522 97.6918 3.48668C98.8224 4.40956 99.5282 5.76877 99.5282 7.59201H100.528H101.528C101.528 5.19125 100.57 3.25446 98.9566 1.93735C97.3659 0.638805 95.2128 1.33514e-05 92.8802 1.33514e-05V1.00001ZM100.528 7.59201H99.5282V9.99201H100.528H101.528V7.59201H100.528ZM100.528 9.99201H99.5282C99.5282 12.1435 98.0661 13.468 96.3495 13.9585L96.6242 14.92L96.8989 15.8815C99.2143 15.22 101.528 13.2805 101.528 9.99201H100.528ZM96.6242 14.92L96.36 15.8845C97.4292 16.1774 98.2772 16.6104 98.8577 17.2463C99.4184 17.8604 99.8162 18.7583 99.8162 20.168H100.816H101.816C101.816 18.3458 101.286 16.9396 100.335 15.8977C99.4033 14.8776 98.1553 14.3026 96.8885 13.9556L96.6242 14.92ZM100.816 20.168H99.8162V24.616H100.816H101.816V20.168H100.816ZM100.816 24.616H99.8162C99.8162 26.4246 99.0905 27.781 97.9071 28.7092C96.6976 29.6578 94.9412 30.208 92.8482 30.208V31.208V32.208C95.2673 32.208 97.4948 31.5743 99.1414 30.2829C100.814 28.971 101.816 27.0314 101.816 24.616H100.816ZM92.8482 31.208V30.208C90.7376 30.208 88.9546 29.6569 87.724 28.705C86.5202 27.7739 85.7842 26.4177 85.7842 24.616H84.7842H83.7842C83.7842 27.0384 84.8082 28.9781 86.5004 30.287C88.1658 31.5752 90.4148 32.208 92.8482 32.208V31.208ZM84.7842 24.616H85.7842V21.32H84.7842H83.7842V24.616H84.7842ZM84.7842 21.32V22.32H88.9442V21.32V20.32H84.7842V21.32ZM88.9442 21.32H87.9442V24.648H88.9442H89.9442V21.32H88.9442ZM88.9442 24.648H87.9442C87.9442 25.8957 88.4531 26.988 89.3671 27.7515C90.2658 28.5021 91.4859 28.88 92.8482 28.88V27.88V26.88C91.8425 26.88 91.1107 26.6019 90.6493 26.2165C90.2033 25.844 89.9442 25.3203 89.9442 24.648H88.9442ZM92.8482 27.88V28.88C94.1982 28.88 95.3998 28.4999 96.2805 27.742C97.1747 26.9725 97.6562 25.8811 97.6562 24.648H96.6562H95.6562C95.6562 25.3349 95.4018 25.8596 94.9759 26.2261C94.5366 26.6041 93.8342 26.88 92.8482 26.88V27.88ZM96.6562 24.648H97.6562V19.944H96.6562H95.6562V24.648H96.6562ZM96.6562 19.944H97.6562C97.6562 18.5426 97.0681 17.4448 96.06 16.7201C95.1008 16.0305 93.8418 15.733 92.5362 15.6808L92.4962 16.68L92.4563 17.6792C93.5507 17.723 94.3716 17.9695 94.8925 18.344C95.3644 18.6832 95.6562 19.1694 95.6562 19.944H96.6562Z" fill="url(#paint0_linear_6016_66)" fill-opacity="0.3" mask="url(#path-1-outside-1_6016_66)"/>
<defs>
<linearGradient id="paint0_linear_6016_66" x1="93.6895" y1="23.39" x2="22.5345" y2="-17.3035" gradientUnits="userSpaceOnUse">
<stop stop-color="#6D6D6D"/>
<stop offset="1" stop-color="#E9E9E9"/>
</linearGradient>
</defs>
</svg>
