<?xml version="1.0" encoding="UTF-8"?>
<svg id="Layer_2" data-name="Layer 2" xmlns="http://www.w3.org/2000/svg" viewBox="0 0 99.84 30.21">
  <g id="Layer_1-2" data-name="Layer 1">
    <g>
      <path d="M4.29,8.67c0,1.7,1.28,2.34,5.02,3.84,6.75,2.69,7.36,4,7.36,8.22v3.01c0,4.42-3.68,6.37-8.42,6.37S0,28.16,0,23.74v-3.49h4.13v3.1c0,2.05,1.76,3.26,4.19,3.26s4.22-1.22,4.22-3.26v-1.82c0-3.17-.61-3.65-5.28-5.5C.96,13.54.16,11.97.16,8.83v-2.4C.16,2.02,3.65.06,8.35.06s8.19,1.95,8.19,6.37v2.78h-4.13v-2.4c0-2.05-1.66-3.26-4.06-3.26s-4.06,1.12-4.06,3.17v1.95Z"/>
      <path d="M18.43.7h16.89v3.58h-6.34v25.18h-4.22V4.29h-6.33V.7Z"/>
      <path d="M37.92,29.47V.7h14.53v3.58h-10.37v8.7h10.05v3.49h-10.05v9.41h10.69v3.58h-14.85Z"/>
      <path d="M71.9,13.38c0,4.1-1.98,6.01-6.02,6.01h-6.18v10.08h-4.16V.7h10.33c4.03,0,6.02,1.82,6.02,5.92v6.75ZM59.71,15.9h4.74c2.37,0,3.33-.99,3.33-3.23v-5.25c0-2.24-.96-3.23-3.33-3.23h-4.74v11.71Z"/>
      <path d="M89.79,15.55v-3.17l1.86-.13c1.82-.13,3.84-1.15,3.84-3.04v-2.75c0-1.92-1.44-3.23-3.58-3.23-2.3,0-3.71,1.31-3.71,3.23v1.92h-4.06v-1.79c0-4.22,3.3-6.59,7.78-6.59s7.65,2.37,7.65,6.59v2.4c0,2.72-1.89,4.35-3.9,4.93,2.34.64,4.19,2.02,4.19,5.25v4.45c0,4.22-3.46,6.59-7.97,6.59s-8.06-2.37-8.06-6.59v-3.29h4.16v3.33c0,1.92,1.54,3.23,3.9,3.23s3.81-1.31,3.81-3.23v-4.7c0-2.18-1.76-3.17-4.16-3.26l-1.73-.13Z"/>
    </g>
  </g>
</svg>