<svg width="94" height="33" viewBox="0 0 94 33" fill="none" xmlns="http://www.w3.org/2000/svg">
<mask id="path-1-outside-1_6016_21" maskUnits="userSpaceOnUse" x="-0.655029" y="-0.42395" width="94" height="33" fill="black">
<rect fill="white" x="-0.655029" y="-0.42395" width="94" height="33"/>
<path d="M5.28797 7.65605V9.60805C5.28797 11.304 6.56797 11.944 10.312 13.448C17.064 16.136 17.672 17.448 17.672 21.672V24.68C17.672 29.0961 13.992 31.048 9.25597 31.048C4.55197 31.048 0.999971 29.0961 0.999971 24.68V21.192H5.12797V24.296C5.12797 26.344 6.88797 27.56 9.31997 27.56C11.848 27.56 13.544 26.344 13.544 24.296V22.472C13.544 19.304 12.936 18.824 8.26397 16.968C1.95997 14.472 1.15997 12.904 1.15997 9.76805V7.36805C1.15997 2.95205 4.64797 1.00005 9.35197 1.00005C14.024 1.00005 17.544 2.95205 17.544 7.36805V10.152H13.416V7.75205C13.416 5.70405 11.752 4.48805 9.35197 4.48805C6.88797 4.48805 5.28797 5.60805 5.28797 7.65605ZM19.418 5.22405V1.64005H36.314V5.22405H29.978V30.4081H25.754V5.22405H19.418ZM53.7425 30.4081H38.8945V1.64005H53.4225V5.22405H43.0545V13.928H53.1025V17.416H43.0545V26.824H53.7425V30.4081ZM72.8715 7.56005V14.312C72.8715 18.408 70.8875 20.328 66.8555 20.328H60.6795V30.4081H56.5195V1.64005H66.8555C70.8875 1.64005 72.8715 3.46405 72.8715 7.56005ZM60.6795 5.12805V16.84H65.4155C67.7835 16.84 68.7435 15.848 68.7435 13.608V8.36005C68.7435 6.12005 67.7835 5.12805 65.4155 5.12805H60.6795ZM92.1122 1.54405V30.5041H87.9522V7.33605H84.3362V4.23205C86.5122 4.23205 88.1442 3.14405 88.1442 1.54405H92.1122Z"/>
</mask>
<path d="M5.28797 7.65605V9.60805C5.28797 11.304 6.56797 11.944 10.312 13.448C17.064 16.136 17.672 17.448 17.672 21.672V24.68C17.672 29.0961 13.992 31.048 9.25597 31.048C4.55197 31.048 0.999971 29.0961 0.999971 24.68V21.192H5.12797V24.296C5.12797 26.344 6.88797 27.56 9.31997 27.56C11.848 27.56 13.544 26.344 13.544 24.296V22.472C13.544 19.304 12.936 18.824 8.26397 16.968C1.95997 14.472 1.15997 12.904 1.15997 9.76805V7.36805C1.15997 2.95205 4.64797 1.00005 9.35197 1.00005C14.024 1.00005 17.544 2.95205 17.544 7.36805V10.152H13.416V7.75205C13.416 5.70405 11.752 4.48805 9.35197 4.48805C6.88797 4.48805 5.28797 5.60805 5.28797 7.65605ZM19.418 5.22405V1.64005H36.314V5.22405H29.978V30.4081H25.754V5.22405H19.418ZM53.7425 30.4081H38.8945V1.64005H53.4225V5.22405H43.0545V13.928H53.1025V17.416H43.0545V26.824H53.7425V30.4081ZM72.8715 7.56005V14.312C72.8715 18.408 70.8875 20.328 66.8555 20.328H60.6795V30.4081H56.5195V1.64005H66.8555C70.8875 1.64005 72.8715 3.46405 72.8715 7.56005ZM60.6795 5.12805V16.84H65.4155C67.7835 16.84 68.7435 15.848 68.7435 13.608V8.36005C68.7435 6.12005 67.7835 5.12805 65.4155 5.12805H60.6795ZM92.1122 1.54405V30.5041H87.9522V7.33605H84.3362V4.23205C86.5122 4.23205 88.1442 3.14405 88.1442 1.54405H92.1122Z" fill="white"/>
<path d="M10.312 13.448L9.93921 14.376L9.9421 14.3771L10.312 13.448ZM0.999971 21.192V20.192H-2.92063e-05V21.192H0.999971ZM5.12797 21.192H6.12797V20.192H5.12797V21.192ZM8.26397 16.968L8.63317 16.0387L8.6321 16.0383L8.26397 16.968ZM17.544 10.152V11.152H18.544V10.152H17.544ZM13.416 10.152H12.416V11.152H13.416V10.152ZM5.28797 7.65605H4.28797V9.60805H5.28797H6.28797V7.65605H5.28797ZM5.28797 9.60805H4.28797C4.28797 10.1647 4.3949 10.6973 4.67187 11.1969C4.94439 11.6885 5.34304 12.0786 5.81669 12.4152C6.72187 13.0584 8.10312 13.6384 9.93921 14.376L10.312 13.448L10.6847 12.5201C8.77682 11.7537 7.64608 11.2616 6.97525 10.7849C6.6609 10.5615 6.50555 10.3796 6.42108 10.2272C6.34104 10.0828 6.28797 9.89936 6.28797 9.60805H5.28797ZM10.312 13.448L9.9421 14.3771C13.3415 15.7304 14.9447 16.6536 15.7566 17.6252C16.5015 18.5168 16.672 19.5639 16.672 21.6721H17.672H18.672C18.672 19.5562 18.5384 17.8353 17.2913 16.3429C16.1112 14.9305 14.0345 13.8537 10.6818 12.519L10.312 13.448ZM17.672 21.6721H16.672V24.68H17.672H18.672V21.6721H17.672ZM17.672 24.68H16.672C16.672 26.5645 15.9094 27.8459 14.6733 28.6961C13.3875 29.5805 11.5084 30.048 9.25597 30.048V31.048V32.048C11.7395 32.048 14.0684 31.5396 15.8067 30.344C17.5945 29.1142 18.672 27.2116 18.672 24.68H17.672ZM9.25597 31.048V30.048C7.02048 30.048 5.18648 29.5809 3.93996 28.7026C2.74243 27.8588 1.99997 26.5786 1.99997 24.68H0.999971H-2.92063e-05C-2.92063e-05 27.1975 1.03351 29.1013 2.78798 30.3375C4.49346 31.5392 6.78746 32.048 9.25597 32.048V31.048ZM0.999971 24.68H1.99997V21.192H0.999971H-2.92063e-05V24.68H0.999971ZM0.999971 21.192V22.192H5.12797V21.192V20.192H0.999971V21.192ZM5.12797 21.192H4.12797V24.296H5.12797H6.12797V21.192H5.12797ZM5.12797 24.296H4.12797C4.12797 25.6414 4.72138 26.7504 5.7106 27.495C6.67236 28.2189 7.95011 28.5601 9.31997 28.5601V27.56V26.56C8.25783 26.56 7.43958 26.2932 6.91334 25.8971C6.41456 25.5217 6.12797 24.9987 6.12797 24.296H5.12797ZM9.31997 27.56V28.5601C10.7305 28.5601 12.0203 28.2223 12.9834 27.4935C13.9765 26.7419 14.544 25.6291 14.544 24.296H13.544H12.544C12.544 25.011 12.2634 25.5302 11.7765 25.8986C11.2596 26.2898 10.4375 26.56 9.31997 26.56V27.56ZM13.544 24.296H14.544V22.472H13.544H12.544V24.296H13.544ZM13.544 22.472H14.544C14.544 20.8677 14.4079 19.5828 13.3688 18.5267C12.8873 18.0374 12.2595 17.6457 11.5057 17.2704C10.7495 16.8939 9.79919 16.5019 8.63317 16.0387L8.26397 16.968L7.89478 17.8974C9.06475 18.3622 9.94248 18.7262 10.6143 19.0607C11.2884 19.3964 11.6887 19.6707 11.9432 19.9294C12.376 20.3693 12.544 20.9083 12.544 22.472H13.544ZM8.26397 16.968L8.6321 16.0383C5.48719 14.7931 3.90908 13.8463 3.09073 12.9385C2.34914 12.1158 2.15997 11.2443 2.15997 9.76805H1.15997H0.159971C0.159971 11.4278 0.370804 12.9083 1.60522 14.2776C2.76286 15.5618 4.73676 16.647 7.89584 17.8978L8.26397 16.968ZM1.15997 9.76805H2.15997V7.36805H1.15997H0.159971V9.76805H1.15997ZM1.15997 7.36805H2.15997C2.15997 5.46253 2.89216 4.18308 4.07215 3.34254C5.30093 2.46724 7.11636 2.00005 9.35197 2.00005V1.00005V4.95911e-05C6.88358 4.95911e-05 4.60301 0.508858 2.91179 1.71356C1.17178 2.95302 0.159971 4.85757 0.159971 7.36805H1.15997ZM9.35197 1.00005V2.00005C11.5703 2.00005 13.387 2.46675 14.6208 3.34328C15.8064 4.18548 16.544 5.46581 16.544 7.36805H17.544H18.544C18.544 4.85429 17.5215 2.95062 15.7791 1.71281C14.085 0.509348 11.8056 4.95911e-05 9.35197 4.95911e-05V1.00005ZM17.544 7.36805H16.544V10.152H17.544H18.544V7.36805H17.544ZM17.544 10.152V9.15205H13.416V10.152V11.152H17.544V10.152ZM13.416 10.152H14.416V7.75205H13.416H12.416V10.152H13.416ZM13.416 7.75205H14.416C14.416 6.42773 13.8641 5.31836 12.9 4.56436C11.9622 3.83084 10.7089 3.48805 9.35197 3.48805V4.48805V5.48805C10.395 5.48805 11.1738 5.75326 11.6679 6.13974C12.1359 6.50574 12.416 7.02836 12.416 7.75205H13.416ZM9.35197 4.48805V3.48805C7.98534 3.48805 6.73049 3.79654 5.79237 4.50676C4.81811 5.24434 4.28797 6.34027 4.28797 7.65605H5.28797H6.28797C6.28797 6.92383 6.55783 6.43576 6.99957 6.10134C7.47745 5.73955 8.25461 5.48805 9.35197 5.48805V4.48805ZM19.418 5.22405H18.418V6.22405H19.418V5.22405ZM19.418 1.64005V0.640049H18.418V1.64005H19.418ZM36.314 1.64005H37.314V0.640049H36.314V1.64005ZM36.314 5.22405V6.22405H37.314V5.22405H36.314ZM29.978 5.22405V4.22405H28.978V5.22405H29.978ZM29.978 30.4081V31.4081H30.978V30.4081H29.978ZM25.754 30.4081H24.754V31.4081H25.754V30.4081ZM25.754 5.22405H26.754V4.22405H25.754V5.22405ZM19.418 5.22405H20.418V1.64005H19.418H18.418V5.22405H19.418ZM19.418 1.64005V2.64005H36.314V1.64005V0.640049H19.418V1.64005ZM36.314 1.64005H35.314V5.22405H36.314H37.314V1.64005H36.314ZM36.314 5.22405V4.22405H29.978V5.22405V6.22405H36.314V5.22405ZM29.978 5.22405H28.978V30.4081H29.978H30.978V5.22405H29.978ZM29.978 30.4081V29.4081H25.754V30.4081V31.4081H29.978V30.4081ZM25.754 30.4081H26.754V5.22405H25.754H24.754V30.4081H25.754ZM25.754 5.22405V4.22405H19.418V5.22405V6.22405H25.754V5.22405ZM53.7425 30.4081V31.4081H54.7425V30.4081H53.7425ZM38.8945 30.4081H37.8945V31.4081H38.8945V30.4081ZM38.8945 1.64005V0.640049H37.8945V1.64005H38.8945ZM53.4225 1.64005H54.4225V0.640049H53.4225V1.64005ZM53.4225 5.22405V6.22405H54.4225V5.22405H53.4225ZM43.0545 5.22405V4.22405H42.0545V5.22405H43.0545ZM43.0545 13.928H42.0545V14.928H43.0545V13.928ZM53.1025 13.928H54.1025V12.928H53.1025V13.928ZM53.1025 17.416V18.416H54.1025V17.416H53.1025ZM43.0545 17.416V16.416H42.0545V17.416H43.0545ZM43.0545 26.824H42.0545V27.8241H43.0545V26.824ZM53.7425 26.824H54.7425V25.824H53.7425V26.824ZM53.7425 30.4081V29.4081H38.8945V30.4081V31.4081H53.7425V30.4081ZM38.8945 30.4081H39.8945V1.64005H38.8945H37.8945V30.4081H38.8945ZM38.8945 1.64005V2.64005H53.4225V1.64005V0.640049H38.8945V1.64005ZM53.4225 1.64005H52.4225V5.22405H53.4225H54.4225V1.64005H53.4225ZM53.4225 5.22405V4.22405H43.0545V5.22405V6.22405H53.4225V5.22405ZM43.0545 5.22405H42.0545V13.928H43.0545H44.0545V5.22405H43.0545ZM43.0545 13.928V14.928H53.1025V13.928V12.928H43.0545V13.928ZM53.1025 13.928H52.1025V17.416H53.1025H54.1025V13.928H53.1025ZM53.1025 17.416V16.416H43.0545V17.416V18.416H53.1025V17.416ZM43.0545 17.416H42.0545V26.824H43.0545H44.0545V17.416H43.0545ZM43.0545 26.824V27.8241H53.7425V26.824V25.824H43.0545V26.824ZM53.7425 26.824H52.7425V30.4081H53.7425H54.7425V26.824H53.7425ZM60.6795 20.328V19.328H59.6795V20.328H60.6795ZM60.6795 30.4081V31.4081H61.6795V30.4081H60.6795ZM56.5195 30.4081H55.5195V31.4081H56.5195V30.4081ZM56.5195 1.64005V0.640049H55.5195V1.64005H56.5195ZM60.6795 5.12805V4.12805H59.6795V5.12805H60.6795ZM60.6795 16.84H59.6795V17.84H60.6795V16.84ZM72.8715 7.56005H71.8715V14.312H72.8715H73.8715V7.56005H72.8715ZM72.8715 14.312H71.8715C71.8715 16.214 71.4107 17.4125 70.6712 18.1461C69.9302 18.8812 68.7295 19.328 66.8555 19.328V20.328V21.328C69.0134 21.328 70.8208 20.8149 72.0797 19.566C73.3402 18.3156 73.8715 16.5061 73.8715 14.312H72.8715ZM66.8555 20.328V19.328H60.6795V20.328V21.328H66.8555V20.328ZM60.6795 20.328H59.6795V30.4081H60.6795H61.6795V20.328H60.6795ZM60.6795 30.4081V29.4081H56.5195V30.4081V31.4081H60.6795V30.4081ZM56.5195 30.4081H57.5195V1.64005H56.5195H55.5195V30.4081H56.5195ZM56.5195 1.64005V2.64005H66.8555V1.64005V0.640049H56.5195V1.64005ZM66.8555 1.64005V2.64005C68.7418 2.64005 69.9426 3.06879 70.68 3.78256C71.4108 4.49004 71.8715 5.65783 71.8715 7.56005H72.8715H73.8715C73.8715 5.36627 73.3401 3.57406 72.071 2.34554C70.8083 1.1233 69.0012 0.640049 66.8555 0.640049V1.64005ZM60.6795 5.12805H59.6795V16.84H60.6795H61.6795V5.12805H60.6795ZM60.6795 16.84V17.84H65.4155V16.84V15.84H60.6795V16.84ZM65.4155 16.84V17.84C66.7094 17.84 67.86 17.5736 68.6692 16.7765C69.4824 15.9754 69.7435 14.8437 69.7435 13.608H68.7435H67.7435C67.7435 14.6124 67.5246 15.0966 67.2657 15.3516C67.0029 15.6105 66.4896 15.84 65.4155 15.84V16.84ZM68.7435 13.608H69.7435V8.36005H68.7435H67.7435V13.608H68.7435ZM68.7435 8.36005H69.7435C69.7435 7.12436 69.4824 5.99265 68.6692 5.19164C67.86 4.39448 66.7094 4.12805 65.4155 4.12805V5.12805V6.12805C66.4896 6.12805 67.0029 6.35762 67.2657 6.61645C67.5246 6.87145 67.7435 7.35574 67.7435 8.36005H68.7435ZM65.4155 5.12805V4.12805H60.6795V5.12805V6.12805H65.4155V5.12805ZM92.1122 1.54405H93.1122V0.544048H92.1122V1.54405ZM92.1122 30.5041V31.5041H93.1122V30.5041H92.1122ZM87.9522 30.5041H86.9522V31.5041H87.9522V30.5041ZM87.9522 7.33605H88.9522V6.33605H87.9522V7.33605ZM84.3362 7.33605H83.3362V8.33605H84.3362V7.33605ZM84.3362 4.23205V3.23205H83.3362V4.23205H84.3362ZM88.1442 1.54405V0.544048H87.1442V1.54405H88.1442ZM92.1122 1.54405H91.1122V30.5041H92.1122H93.1122V1.54405H92.1122ZM92.1122 30.5041V29.5041H87.9522V30.5041V31.5041H92.1122V30.5041ZM87.9522 30.5041H88.9522V7.33605H87.9522H86.9522V30.5041H87.9522ZM87.9522 7.33605V6.33605H84.3362V7.33605V8.33605H87.9522V7.33605ZM84.3362 7.33605H85.3362V4.23205H84.3362H83.3362V7.33605H84.3362ZM84.3362 4.23205V5.23205C85.5788 5.23205 86.7427 4.92299 87.6264 4.30954C88.5277 3.68396 89.1442 2.7261 89.1442 1.54405H88.1442H87.1442C87.1442 1.962 86.9447 2.34813 86.486 2.66655C86.0098 2.99711 85.2696 3.23205 84.3362 3.23205V4.23205ZM88.1442 1.54405V2.54405H92.1122V1.54405V0.544048H88.1442V1.54405Z" fill="url(#paint0_linear_6016_21)" fill-opacity="0.3" mask="url(#path-1-outside-1_6016_21)"/>
<defs>
<linearGradient id="paint0_linear_6016_21" x1="87.0593" y1="23.3261" x2="18.5221" y2="-13.2065" gradientUnits="userSpaceOnUse">
<stop stop-color="#6D6D6D"/>
<stop offset="1" stop-color="#E9E9E9"/>
</linearGradient>
</defs>
</svg>
