<svg width="102" height="33" viewBox="0 0 102 33" fill="none" xmlns="http://www.w3.org/2000/svg">
<mask id="path-1-outside-1_6016_53" maskUnits="userSpaceOnUse" x="-0.561279" y="-0.359985" width="102" height="33" fill="black">
<rect fill="white" x="-0.561279" y="-0.359985" width="102" height="33"/>
<path d="M5.28797 7.72001V9.67201C5.28797 11.368 6.56797 12.008 10.312 13.512C17.064 16.2 17.672 17.512 17.672 21.736V24.744C17.672 29.16 13.992 31.112 9.25597 31.112C4.55197 31.112 0.999971 29.16 0.999971 24.744V21.256H5.12797V24.36C5.12797 26.408 6.88797 27.624 9.31997 27.624C11.848 27.624 13.544 26.408 13.544 24.36V22.536C13.544 19.368 12.936 18.888 8.26397 17.032C1.95997 14.536 1.15997 12.968 1.15997 9.83201V7.43201C1.15997 3.01601 4.64797 1.06401 9.35197 1.06401C14.024 1.06401 17.544 3.01601 17.544 7.43201V10.216H13.416V7.81601C13.416 5.76801 11.752 4.55201 9.35197 4.55201C6.88797 4.55201 5.28797 5.67201 5.28797 7.72001ZM19.418 5.28801V1.70401H36.314V5.28801H29.978V30.472H25.754V5.28801H19.418ZM53.7425 30.472H38.8945V1.70401H53.4225V5.28801H43.0545V13.992H53.1025V17.48H43.0545V26.888H53.7425V30.472ZM72.8715 7.62401V14.376C72.8715 18.472 70.8875 20.392 66.8555 20.392H60.6795V30.472H56.5195V1.70401H66.8555C70.8875 1.70401 72.8715 3.52801 72.8715 7.62401ZM60.6795 5.19201V16.904H65.4155C67.7835 16.904 68.7435 15.912 68.7435 13.672V8.42401C68.7435 6.18401 67.7835 5.19201 65.4155 5.19201H60.6795ZM95.7922 9.06401V7.59201C95.7922 5.67201 94.5442 4.36001 92.3042 4.36001C90.0642 4.36001 88.9122 5.67201 88.9122 7.59201V9.70401H84.8162V7.59201C84.8162 3.36801 87.8882 1.00001 92.3042 1.00001C96.7202 1.00001 99.9522 3.36801 99.9522 7.59201V9.06401C99.9522 12.744 98.1602 14.536 94.1922 18.408C90.3522 22.152 88.8802 23.336 88.8802 25.384V27.112H100.112V30.472H84.6242V25.384C84.6242 22.728 85.6162 20.904 90.7682 16.296C94.7042 12.808 95.7922 11.4 95.7922 9.06401Z"/>
</mask>
<path d="M5.28797 7.72001V9.67201C5.28797 11.368 6.56797 12.008 10.312 13.512C17.064 16.2 17.672 17.512 17.672 21.736V24.744C17.672 29.16 13.992 31.112 9.25597 31.112C4.55197 31.112 0.999971 29.16 0.999971 24.744V21.256H5.12797V24.36C5.12797 26.408 6.88797 27.624 9.31997 27.624C11.848 27.624 13.544 26.408 13.544 24.36V22.536C13.544 19.368 12.936 18.888 8.26397 17.032C1.95997 14.536 1.15997 12.968 1.15997 9.83201V7.43201C1.15997 3.01601 4.64797 1.06401 9.35197 1.06401C14.024 1.06401 17.544 3.01601 17.544 7.43201V10.216H13.416V7.81601C13.416 5.76801 11.752 4.55201 9.35197 4.55201C6.88797 4.55201 5.28797 5.67201 5.28797 7.72001ZM19.418 5.28801V1.70401H36.314V5.28801H29.978V30.472H25.754V5.28801H19.418ZM53.7425 30.472H38.8945V1.70401H53.4225V5.28801H43.0545V13.992H53.1025V17.48H43.0545V26.888H53.7425V30.472ZM72.8715 7.62401V14.376C72.8715 18.472 70.8875 20.392 66.8555 20.392H60.6795V30.472H56.5195V1.70401H66.8555C70.8875 1.70401 72.8715 3.52801 72.8715 7.62401ZM60.6795 5.19201V16.904H65.4155C67.7835 16.904 68.7435 15.912 68.7435 13.672V8.42401C68.7435 6.18401 67.7835 5.19201 65.4155 5.19201H60.6795ZM95.7922 9.06401V7.59201C95.7922 5.67201 94.5442 4.36001 92.3042 4.36001C90.0642 4.36001 88.9122 5.67201 88.9122 7.59201V9.70401H84.8162V7.59201C84.8162 3.36801 87.8882 1.00001 92.3042 1.00001C96.7202 1.00001 99.9522 3.36801 99.9522 7.59201V9.06401C99.9522 12.744 98.1602 14.536 94.1922 18.408C90.3522 22.152 88.8802 23.336 88.8802 25.384V27.112H100.112V30.472H84.6242V25.384C84.6242 22.728 85.6162 20.904 90.7682 16.296C94.7042 12.808 95.7922 11.4 95.7922 9.06401Z" fill="white"/>
<path d="M10.312 13.512L9.93921 14.4399L9.9421 14.4411L10.312 13.512ZM0.999971 21.256V20.256H-2.92063e-05V21.256H0.999971ZM5.12797 21.256H6.12797V20.256H5.12797V21.256ZM8.26397 17.032L8.63317 16.1027L8.6321 16.1022L8.26397 17.032ZM17.544 10.216V11.216H18.544V10.216H17.544ZM13.416 10.216H12.416V11.216H13.416V10.216ZM5.28797 7.72001H4.28797V9.67201H5.28797H6.28797V7.72001H5.28797ZM5.28797 9.67201H4.28797C4.28797 10.2287 4.3949 10.7612 4.67187 11.2608C4.94439 11.7525 5.34304 12.1425 5.81669 12.4791C6.72187 13.1224 8.10312 13.7024 9.93921 14.4399L10.312 13.512L10.6847 12.5841C8.77682 11.8177 7.64608 11.3256 6.97525 10.8489C6.6609 10.6255 6.50555 10.4436 6.42108 10.2912C6.34104 10.1468 6.28797 9.96333 6.28797 9.67201H5.28797ZM10.312 13.512L9.9421 14.4411C13.3415 15.7944 14.9447 16.7176 15.7566 17.6892C16.5015 18.5807 16.672 19.6278 16.672 21.736H17.672H18.672C18.672 19.6202 18.5384 17.8993 17.2913 16.4068C16.1112 14.9945 14.0345 13.9176 10.6818 12.5829L10.312 13.512ZM17.672 21.736H16.672V24.744H17.672H18.672V21.736H17.672ZM17.672 24.744H16.672C16.672 26.6284 15.9094 27.9098 14.6733 28.7601C13.3875 29.6445 11.5084 30.112 9.25597 30.112V31.112V32.112C11.7395 32.112 14.0684 31.6035 15.8067 30.4079C17.5945 29.1782 18.672 27.2756 18.672 24.744H17.672ZM9.25597 31.112V30.112C7.02048 30.112 5.18648 29.6449 3.93996 28.7666C2.74243 27.9228 1.99997 26.6425 1.99997 24.744H0.999971H-2.92063e-05C-2.92063e-05 27.2615 1.03351 29.1653 2.78798 30.4015C4.49346 31.6032 6.78746 32.112 9.25597 32.112V31.112ZM0.999971 24.744H1.99997V21.256H0.999971H-2.92063e-05V24.744H0.999971ZM0.999971 21.256V22.256H5.12797V21.256V20.256H0.999971V21.256ZM5.12797 21.256H4.12797V24.36H5.12797H6.12797V21.256H5.12797ZM5.12797 24.36H4.12797C4.12797 25.7053 4.72138 26.8144 5.7106 27.559C6.67236 28.2829 7.95011 28.624 9.31997 28.624V27.624V26.624C8.25783 26.624 7.43958 26.3571 6.91334 25.961C6.41456 25.5856 6.12797 25.0627 6.12797 24.36H5.12797ZM9.31997 27.624V28.624C10.7305 28.624 12.0203 28.2863 12.9834 27.5574C13.9765 26.8059 14.544 25.693 14.544 24.36H13.544H12.544C12.544 25.075 12.2634 25.5942 11.7765 25.9626C11.2596 26.3538 10.4375 26.624 9.31997 26.624V27.624ZM13.544 24.36H14.544V22.536H13.544H12.544V24.36H13.544ZM13.544 22.536H14.544C14.544 20.9317 14.4079 19.6468 13.3688 18.5906C12.8873 18.1013 12.2595 17.7097 11.5057 17.3343C10.7495 16.9578 9.79919 16.5659 8.63317 16.1027L8.26397 17.032L7.89478 17.9614C9.06475 18.4262 9.94248 18.7902 10.6143 19.1247C11.2884 19.4604 11.6887 19.7347 11.9432 19.9934C12.376 20.4333 12.544 20.9723 12.544 22.536H13.544ZM8.26397 17.032L8.6321 16.1022C5.48719 14.857 3.90908 13.9103 3.09073 13.0025C2.34914 12.1798 2.15997 11.3082 2.15997 9.83201H1.15997H0.159971C0.159971 11.4918 0.370804 12.9722 1.60522 14.3416C2.76286 15.6258 4.73676 16.711 7.89584 17.9618L8.26397 17.032ZM1.15997 9.83201H2.15997V7.43201H1.15997H0.159971V9.83201H1.15997ZM1.15997 7.43201H2.15997C2.15997 5.52649 2.89216 4.24704 4.07215 3.4065C5.30093 2.53121 7.11636 2.06401 9.35197 2.06401V1.06401V0.0640144C6.88358 0.0640144 4.60301 0.572823 2.91179 1.77753C1.17178 3.01698 0.159971 4.92153 0.159971 7.43201H1.15997ZM9.35197 1.06401V2.06401C11.5703 2.06401 13.387 2.53072 14.6208 3.40725C15.8064 4.24945 16.544 5.52978 16.544 7.43201H17.544H18.544C18.544 4.91825 17.5215 3.01458 15.7791 1.77678C14.085 0.573313 11.8056 0.0640144 9.35197 0.0640144V1.06401ZM17.544 7.43201H16.544V10.216H17.544H18.544V7.43201H17.544ZM17.544 10.216V9.21601H13.416V10.216V11.216H17.544V10.216ZM13.416 10.216H14.416V7.81601H13.416H12.416V10.216H13.416ZM13.416 7.81601H14.416C14.416 6.4917 13.8641 5.38232 12.9 4.62832C11.9622 3.8948 10.7089 3.55201 9.35197 3.55201V4.55201V5.55201C10.395 5.55201 11.1738 5.81722 11.6679 6.2037C12.1359 6.56971 12.416 7.09233 12.416 7.81601H13.416ZM9.35197 4.55201V3.55201C7.98534 3.55201 6.73049 3.86051 5.79237 4.57072C4.81811 5.3083 4.28797 6.40423 4.28797 7.72001H5.28797H6.28797C6.28797 6.98779 6.55783 6.49972 6.99957 6.1653C7.47745 5.80352 8.25461 5.55201 9.35197 5.55201V4.55201ZM19.418 5.28801H18.418V6.28801H19.418V5.28801ZM19.418 1.70401V0.704014H18.418V1.70401H19.418ZM36.314 1.70401H37.314V0.704014H36.314V1.70401ZM36.314 5.28801V6.28801H37.314V5.28801H36.314ZM29.978 5.28801V4.28801H28.978V5.28801H29.978ZM29.978 30.472V31.472H30.978V30.472H29.978ZM25.754 30.472H24.754V31.472H25.754V30.472ZM25.754 5.28801H26.754V4.28801H25.754V5.28801ZM19.418 5.28801H20.418V1.70401H19.418H18.418V5.28801H19.418ZM19.418 1.70401V2.70401H36.314V1.70401V0.704014H19.418V1.70401ZM36.314 1.70401H35.314V5.28801H36.314H37.314V1.70401H36.314ZM36.314 5.28801V4.28801H29.978V5.28801V6.28801H36.314V5.28801ZM29.978 5.28801H28.978V30.472H29.978H30.978V5.28801H29.978ZM29.978 30.472V29.472H25.754V30.472V31.472H29.978V30.472ZM25.754 30.472H26.754V5.28801H25.754H24.754V30.472H25.754ZM25.754 5.28801V4.28801H19.418V5.28801V6.28801H25.754V5.28801ZM53.7425 30.472V31.472H54.7425V30.472H53.7425ZM38.8945 30.472H37.8945V31.472H38.8945V30.472ZM38.8945 1.70401V0.704014H37.8945V1.70401H38.8945ZM53.4225 1.70401H54.4225V0.704014H53.4225V1.70401ZM53.4225 5.28801V6.28801H54.4225V5.28801H53.4225ZM43.0545 5.28801V4.28801H42.0545V5.28801H43.0545ZM43.0545 13.992H42.0545V14.992H43.0545V13.992ZM53.1025 13.992H54.1025V12.992H53.1025V13.992ZM53.1025 17.48V18.48H54.1025V17.48H53.1025ZM43.0545 17.48V16.48H42.0545V17.48H43.0545ZM43.0545 26.888H42.0545V27.888H43.0545V26.888ZM53.7425 26.888H54.7425V25.888H53.7425V26.888ZM53.7425 30.472V29.472H38.8945V30.472V31.472H53.7425V30.472ZM38.8945 30.472H39.8945V1.70401H38.8945H37.8945V30.472H38.8945ZM38.8945 1.70401V2.70401H53.4225V1.70401V0.704014H38.8945V1.70401ZM53.4225 1.70401H52.4225V5.28801H53.4225H54.4225V1.70401H53.4225ZM53.4225 5.28801V4.28801H43.0545V5.28801V6.28801H53.4225V5.28801ZM43.0545 5.28801H42.0545V13.992H43.0545H44.0545V5.28801H43.0545ZM43.0545 13.992V14.992H53.1025V13.992V12.992H43.0545V13.992ZM53.1025 13.992H52.1025V17.48H53.1025H54.1025V13.992H53.1025ZM53.1025 17.48V16.48H43.0545V17.48V18.48H53.1025V17.48ZM43.0545 17.48H42.0545V26.888H43.0545H44.0545V17.48H43.0545ZM43.0545 26.888V27.888H53.7425V26.888V25.888H43.0545V26.888ZM53.7425 26.888H52.7425V30.472H53.7425H54.7425V26.888H53.7425ZM60.6795 20.392V19.392H59.6795V20.392H60.6795ZM60.6795 30.472V31.472H61.6795V30.472H60.6795ZM56.5195 30.472H55.5195V31.472H56.5195V30.472ZM56.5195 1.70401V0.704014H55.5195V1.70401H56.5195ZM60.6795 5.19201V4.19201H59.6795V5.19201H60.6795ZM60.6795 16.904H59.6795V17.904H60.6795V16.904ZM72.8715 7.62401H71.8715V14.376H72.8715H73.8715V7.62401H72.8715ZM72.8715 14.376H71.8715C71.8715 16.278 71.4107 17.4765 70.6712 18.2101C69.9302 18.9452 68.7295 19.392 66.8555 19.392V20.392V21.392C69.0134 21.392 70.8208 20.8788 72.0797 19.63C73.3402 18.3796 73.8715 16.57 73.8715 14.376H72.8715ZM66.8555 20.392V19.392H60.6795V20.392V21.392H66.8555V20.392ZM60.6795 20.392H59.6795V30.472H60.6795H61.6795V20.392H60.6795ZM60.6795 30.472V29.472H56.5195V30.472V31.472H60.6795V30.472ZM56.5195 30.472H57.5195V1.70401H56.5195H55.5195V30.472H56.5195ZM56.5195 1.70401V2.70401H66.8555V1.70401V0.704014H56.5195V1.70401ZM66.8555 1.70401V2.70401C68.7418 2.70401 69.9426 3.13276 70.68 3.84652C71.4108 4.554 71.8715 5.7218 71.8715 7.62401H72.8715H73.8715C73.8715 5.43023 73.3401 3.63803 72.071 2.4095C70.8083 1.18727 69.0012 0.704014 66.8555 0.704014V1.70401ZM60.6795 5.19201H59.6795V16.904H60.6795H61.6795V5.19201H60.6795ZM60.6795 16.904V17.904H65.4155V16.904V15.904H60.6795V16.904ZM65.4155 16.904V17.904C66.7094 17.904 67.86 17.6376 68.6692 16.8404C69.4824 16.0394 69.7435 14.9077 69.7435 13.672H68.7435H67.7435C67.7435 14.6763 67.5246 15.1606 67.2657 15.4156C67.0029 15.6744 66.4896 15.904 65.4155 15.904V16.904ZM68.7435 13.672H69.7435V8.42401H68.7435H67.7435V13.672H68.7435ZM68.7435 8.42401H69.7435C69.7435 7.18832 69.4824 6.05661 68.6692 5.25561C67.86 4.45844 66.7094 4.19201 65.4155 4.19201V5.19201V6.19201C66.4896 6.19201 67.0029 6.42158 67.2657 6.68042C67.5246 6.93541 67.7435 7.4197 67.7435 8.42401H68.7435ZM65.4155 5.19201V4.19201H60.6795V5.19201V6.19201H65.4155V5.19201ZM88.9122 9.70401V10.704H89.9122V9.70401H88.9122ZM84.8162 9.70401H83.8162V10.704H84.8162V9.70401ZM94.1922 18.408L94.8903 19.124L94.8906 19.1237L94.1922 18.408ZM88.8802 27.112H87.8802V28.112H88.8802V27.112ZM100.112 27.112H101.112V26.112H100.112V27.112ZM100.112 30.472V31.472H101.112V30.472H100.112ZM84.6242 30.472H83.6242V31.472H84.6242V30.472ZM90.7682 16.296L90.105 15.5476L90.1016 15.5507L90.7682 16.296ZM95.7922 9.06401H96.7922V7.59201H95.7922H94.7922V9.06401H95.7922ZM95.7922 7.59201H96.7922C96.7922 6.41085 96.4032 5.32376 95.5806 4.53443C94.7611 3.7482 93.6188 3.36001 92.3042 3.36001V4.36001V5.36001C93.2296 5.36001 93.8313 5.62783 94.1959 5.9776C94.5572 6.32426 94.7922 6.85318 94.7922 7.59201H95.7922ZM92.3042 4.36001V3.36001C90.9885 3.36001 89.8606 3.74938 89.0611 4.54891C88.2633 5.34669 87.9122 6.43321 87.9122 7.59201H88.9122H89.9122C89.9122 6.83082 90.1371 6.30133 90.4753 5.96312C90.8118 5.62665 91.38 5.36001 92.3042 5.36001V4.36001ZM88.9122 7.59201H87.9122V9.70401H88.9122H89.9122V7.59201H88.9122ZM88.9122 9.70401V8.70401H84.8162V9.70401V10.704H88.9122V9.70401ZM84.8162 9.70401H85.8162V7.59201H84.8162H83.8162V9.70401H84.8162ZM84.8162 7.59201H85.8162C85.8162 5.74186 86.4783 4.38485 87.5512 3.47452C88.6448 2.54663 90.2654 2.00001 92.3042 2.00001V1.00001V1.33514e-05C89.927 1.33514e-05 87.8037 0.637392 86.2572 1.9495C84.6901 3.27918 83.8162 5.21817 83.8162 7.59201H84.8162ZM92.3042 1.00001V2.00001C94.3437 2.00001 96.0111 2.54724 97.1485 3.48394C98.263 4.40178 98.9522 5.75909 98.9522 7.59201H99.9522H100.952C100.952 5.20093 100.025 3.26224 98.4199 1.94008C96.8374 0.636789 94.6807 1.33514e-05 92.3042 1.33514e-05V1.00001ZM99.9522 7.59201H98.9522V9.06401H99.9522H100.952V7.59201H99.9522ZM99.9522 9.06401H98.9522C98.9522 10.7024 98.5651 11.8751 97.7326 13.1027C96.8578 14.3926 95.503 15.7317 93.4938 17.6923L94.1922 18.408L94.8906 19.1237C96.8494 17.2123 98.3746 15.7194 99.3879 14.2253C100.443 12.6689 100.952 11.1057 100.952 9.06401H99.9522ZM94.1922 18.408L93.4941 17.692C91.6123 19.5268 90.2195 20.8195 89.3273 21.8927C88.3906 23.0194 87.8802 24.0466 87.8802 25.384H88.8802H89.8802C89.8802 24.6735 90.1059 24.0846 90.8652 23.1713C91.6689 22.2045 92.9322 21.0332 94.8903 19.124L94.1922 18.408ZM88.8802 25.384H87.8802V27.112H88.8802H89.8802V25.384H88.8802ZM88.8802 27.112V28.112H100.112V27.112V26.112H88.8802V27.112ZM100.112 27.112H99.1122V30.472H100.112H101.112V27.112H100.112ZM100.112 30.472V29.472H84.6242V30.472V31.472H100.112V30.472ZM84.6242 30.472H85.6242V25.384H84.6242H83.6242V30.472H84.6242ZM84.6242 25.384H85.6242C85.6242 24.2287 85.8269 23.3033 86.6012 22.1193C87.4156 20.8738 88.8649 19.34 91.4349 17.0414L90.7682 16.296L90.1016 15.5507C87.5195 17.86 85.8968 19.5422 84.9273 21.0247C83.9176 22.5687 83.6242 23.8834 83.6242 25.384H84.6242ZM90.7682 16.296L91.4314 17.0444C93.3928 15.3063 94.733 14.0124 95.5726 12.8255C96.4564 11.5762 96.7922 10.4383 96.7922 9.06401H95.7922H94.7922C94.7922 10.0258 94.584 10.7599 93.9398 11.6705C93.2514 12.6437 92.0796 13.7977 90.105 15.5476L90.7682 16.296Z" fill="url(#paint0_linear_6016_53)" fill-opacity="0.3" mask="url(#path-1-outside-1_6016_53)"/>
<defs>
<linearGradient id="paint0_linear_6016_53" x1="92.6351" y1="23.39" x2="21.8338" y2="-16.7081" gradientUnits="userSpaceOnUse">
<stop stop-color="#6D6D6D"/>
<stop offset="1" stop-color="#E9E9E9"/>
</linearGradient>
</defs>
</svg>
