<?xml version="1.0" encoding="UTF-8"?>
<svg id="Layer_2" data-name="Layer 2" xmlns="http://www.w3.org/2000/svg" viewBox="0 0 99.13 30.11">
  <g id="Layer_1-2" data-name="Layer 1">
    <g>
      <path d="M4.29,8.67c0,1.7,1.28,2.34,5.02,3.84,6.75,2.69,7.36,4,7.36,8.22v3.01c0,4.42-3.68,6.37-8.42,6.37S0,28.16,0,23.74v-3.49h4.13v3.1c0,2.05,1.76,3.26,4.19,3.26s4.22-1.22,4.22-3.26v-1.82c0-3.17-.61-3.65-5.28-5.5C.96,13.54.16,11.97.16,8.83v-2.4C.16,2.02,3.65.06,8.35.06s8.19,1.95,8.19,6.37v2.78h-4.13v-2.4c0-2.05-1.66-3.26-4.06-3.26s-4.06,1.12-4.06,3.17v1.95Z"/>
      <path d="M18.43.7h16.89v3.58h-6.34v25.18h-4.22V4.29h-6.33V.7Z"/>
      <path d="M37.92,29.47V.7h14.53v3.58h-10.37v8.7h10.05v3.49h-10.05v9.41h10.69v3.58h-14.85Z"/>
      <path d="M71.9,13.38c0,4.1-1.98,6.01-6.02,6.01h-6.18v10.08h-4.16V.7h10.33c4.03,0,6.02,1.82,6.02,5.92v6.75ZM59.71,15.9h4.74c2.37,0,3.33-.99,3.33-3.23v-5.25c0-2.24-.96-3.23-3.33-3.23h-4.74v11.71Z"/>
      <path d="M94.81,6.59c0-1.92-1.25-3.23-3.49-3.23s-3.39,1.31-3.39,3.23v2.11h-4.1v-2.11c0-4.22,3.07-6.59,7.49-6.59s7.65,2.37,7.65,6.59v1.47c0,3.68-1.79,5.47-5.76,9.34-3.84,3.74-5.31,4.93-5.31,6.98v1.73h11.23v3.36h-15.49v-5.09c0-2.66.99-4.48,6.14-9.09,3.94-3.49,5.02-4.9,5.02-7.23v-1.47Z"/>
    </g>
  </g>
</svg>